G04 #@! TF.FileFunction,Soldermask,Bot*
%FSLAX46Y46*%
G04 Gerber Fmt 4.6, Leading zero omitted, Abs format (unit mm)*
G04 Created by KiCad (PCBNEW 4.0.0-rc1-stable) date Tue 17 Nov 2015 04:01:17 PM EST*
%MOMM*%
G01*
G04 APERTURE LIST*
%ADD10C,0.100000*%
%ADD11R,2.940000X2.940000*%
%ADD12C,2.940000*%
%ADD13R,1.700000X1.700000*%
%ADD14C,1.700000*%
%ADD15O,2.700000X2.000000*%
%ADD16R,2.127200X2.127200*%
%ADD17O,2.127200X2.127200*%
%ADD18R,2.432000X2.127200*%
%ADD19O,2.432000X2.127200*%
%ADD20C,2.398980*%
%ADD21O,1.901140X2.899360*%
%ADD22C,1.924000*%
%ADD23R,2.400000X2.400000*%
%ADD24C,2.400000*%
%ADD25C,2.305000*%
%ADD26R,0.700000X1.400000*%
%ADD27O,3.448000X2.127200*%
G04 APERTURE END LIST*
D10*
D11*
X46990000Y-140970000D03*
D12*
X46990000Y-146050000D03*
D13*
X60960000Y-139700000D03*
D14*
X60960000Y-144700000D03*
D13*
X55880000Y-139700000D03*
D14*
X55880000Y-144700000D03*
D13*
X71120000Y-114300000D03*
D14*
X71120000Y-109300000D03*
D13*
X55245000Y-104775000D03*
D14*
X55245000Y-109775000D03*
D13*
X54610000Y-75565000D03*
D14*
X54610000Y-80565000D03*
D13*
X46990000Y-80645000D03*
D14*
X46990000Y-75645000D03*
D13*
X71120000Y-99695000D03*
D14*
X71120000Y-104695000D03*
D15*
X59055000Y-90805000D03*
X59055000Y-93345000D03*
X59055000Y-95885000D03*
X59055000Y-98425000D03*
X59055000Y-100965000D03*
X59055000Y-103505000D03*
X59055000Y-106045000D03*
X59055000Y-108585000D03*
X59055000Y-111125000D03*
X59055000Y-113665000D03*
X59055000Y-116205000D03*
X59055000Y-118745000D03*
X59055000Y-121285000D03*
X59055000Y-123825000D03*
X66675000Y-123825000D03*
X66675000Y-121285000D03*
X66675000Y-118745000D03*
X66675000Y-116205000D03*
X66675000Y-113665000D03*
X66675000Y-111125000D03*
X66675000Y-108585000D03*
X66675000Y-106045000D03*
X66675000Y-103505000D03*
X66675000Y-100965000D03*
X66675000Y-98425000D03*
X66675000Y-95885000D03*
X66675000Y-93345000D03*
X66675000Y-90805000D03*
D16*
X46355000Y-114300000D03*
D17*
X48895000Y-114300000D03*
X46355000Y-116840000D03*
X48895000Y-116840000D03*
X46355000Y-119380000D03*
X48895000Y-119380000D03*
D18*
X47625000Y-90805000D03*
D19*
X47625000Y-93345000D03*
X47625000Y-95885000D03*
X47625000Y-98425000D03*
X47625000Y-100965000D03*
X47625000Y-103505000D03*
D20*
X53975000Y-100965000D03*
X53975000Y-90805000D03*
X66675000Y-84455000D03*
X66675000Y-74295000D03*
X62865000Y-84455000D03*
X62865000Y-74295000D03*
X59055000Y-84455000D03*
X59055000Y-74295000D03*
X70485000Y-84455000D03*
X70485000Y-74295000D03*
D21*
X59690000Y-130810000D03*
X57150000Y-130810000D03*
X62230000Y-130810000D03*
D22*
X75565000Y-133350000D03*
X76835000Y-132080000D03*
X75565000Y-130810000D03*
X76835000Y-129540000D03*
X75565000Y-125730000D03*
X76835000Y-124460000D03*
X75565000Y-123190000D03*
X76835000Y-121920000D03*
X75565000Y-118110000D03*
X76835000Y-116840000D03*
X75565000Y-115570000D03*
X76835000Y-114300000D03*
X75565000Y-110490000D03*
X76835000Y-109220000D03*
X75565000Y-107950000D03*
X76835000Y-106680000D03*
X75565000Y-102870000D03*
X76835000Y-101600000D03*
X75565000Y-100330000D03*
X76835000Y-99060000D03*
X75565000Y-95250000D03*
X76835000Y-93980000D03*
X75565000Y-92710000D03*
X76835000Y-91440000D03*
X75565000Y-87630000D03*
X76835000Y-86360000D03*
X75565000Y-85090000D03*
X76835000Y-83820000D03*
X75565000Y-80010000D03*
X76835000Y-78740000D03*
X75565000Y-77470000D03*
X76835000Y-76200000D03*
D23*
X46990000Y-69850000D03*
D24*
X49530000Y-69850000D03*
D23*
X74930000Y-69850000D03*
D24*
X77470000Y-69850000D03*
D22*
X46990000Y-129540000D03*
X46990000Y-127540000D03*
X46990000Y-131540000D03*
D25*
X46990000Y-125440000D03*
X46990000Y-133640000D03*
D26*
X49800000Y-76555000D03*
X50300000Y-76555000D03*
X50800000Y-76555000D03*
X51300000Y-76555000D03*
X51800000Y-76555000D03*
X51800000Y-79655000D03*
X51300000Y-79655000D03*
X50800000Y-79655000D03*
X50300000Y-79655000D03*
X49800000Y-79655000D03*
D27*
X78740000Y-140970000D03*
X78740000Y-146050000D03*
X66040000Y-140970000D03*
X66040000Y-146050000D03*
D13*
X52070000Y-104775000D03*
D14*
X52070000Y-109775000D03*
M02*
