M48
;DRILL file {KiCad 4.0.4+e1-6308~48~ubuntu14.04.1-stable} date Sun Oct 30 10:30:40 2016
;FORMAT={-:-/ absolute / inch / decimal}
FMAT,2
INCH,TZ
T1C0.016
T2C0.030
T3C0.031
T4C0.032
T5C0.039
T6C0.040
T7C0.050
T8C0.093
%
G90
G05
M72
T1
X1.825Y-4.7
X2.01Y-4.015
X2.13Y-4.445
X2.35Y-4.5
X2.35Y-4.6
X2.48Y-3.18
T2
X3.05Y-3.
X3.05Y-3.05
X3.05Y-3.1
X3.05Y-3.15
X3.05Y-3.3
X3.05Y-3.35
X3.05Y-3.4
X3.05Y-3.45
X3.05Y-3.6
X3.05Y-3.65
X3.05Y-3.7
X3.05Y-3.75
X3.05Y-3.9
X3.05Y-3.95
X3.05Y-4.
X3.05Y-4.05
X3.05Y-4.2
X3.05Y-4.25
X3.05Y-4.3
X3.05Y-4.35
X3.05Y-4.5
X3.05Y-4.55
X3.05Y-4.6
X3.05Y-4.65
X3.05Y-4.8
X3.05Y-4.85
X3.05Y-4.9
X3.05Y-4.95
X3.05Y-5.1
X3.05Y-5.15
X3.05Y-5.2
X3.05Y-5.25
T3
X2.05Y-4.125
X2.05Y-4.3219
X2.175Y-4.125
X2.175Y-4.3219
X2.2Y-5.575
X2.2Y-5.7719
X2.325Y-3.575
X2.325Y-3.675
X2.325Y-3.775
X2.325Y-3.875
X2.325Y-3.975
X2.325Y-4.075
X2.325Y-4.175
X2.325Y-4.275
X2.325Y-4.375
X2.325Y-4.475
X2.325Y-4.575
X2.325Y-4.675
X2.325Y-4.775
X2.325Y-4.875
X2.4Y-5.575
X2.4Y-5.7719
X2.625Y-3.575
X2.625Y-3.675
X2.625Y-3.775
X2.625Y-3.875
X2.625Y-3.975
X2.625Y-4.075
X2.625Y-4.175
X2.625Y-4.275
X2.625Y-4.375
X2.625Y-4.475
X2.625Y-4.575
X2.625Y-4.675
X2.625Y-4.775
X2.625Y-4.875
X2.775Y-3.7531
X2.775Y-3.95
X2.775Y-4.45
X2.775Y-4.6469
T4
X1.78Y-3.33
X1.85Y-5.0213
X1.85Y-5.1
X1.85Y-5.1787
X1.88Y-3.33
X1.98Y-3.33
X2.08Y-3.33
X2.18Y-3.33
T5
X1.85Y-2.75
X1.95Y-2.75
X2.125Y-3.575
X2.125Y-3.975
X2.2Y-5.4
X2.3Y-5.4
X2.325Y-2.925
X2.325Y-3.325
X2.4Y-5.4
X2.475Y-2.925
X2.475Y-3.325
X2.625Y-2.925
X2.625Y-3.325
X2.775Y-2.925
X2.775Y-3.325
X2.95Y-2.75
X3.05Y-2.75
T6
X1.825Y-4.5
X1.825Y-4.6
X1.825Y-4.7
X1.875Y-3.575
X1.875Y-3.675
X1.875Y-3.775
X1.875Y-3.875
X1.875Y-3.975
X1.875Y-4.075
X1.925Y-4.5
X1.925Y-4.6
X1.925Y-4.7
T7
X1.85Y-4.9386
X1.85Y-5.2614
X2.33Y-5.175
X2.6Y-5.55
X2.6Y-5.75
X2.8Y-5.175
X3.1Y-5.55
X3.1Y-5.75
T8
X1.86Y-4.265
X2.8Y-4.265
T0
M30
