M48
;DRILL file {Pcbnew (2012-oct-18)-testing} date Mon 07 Oct 2013 03:49:25 PM EDT
;FORMAT={2:4/ absolute / inch / suppress trailing zeros}
FMAT,2
INCH,LZ
T1C0.025
T2C0.032
T3C0.040
T4C0.042
T5C0.075
%
G90
G05
M72
T1
X0032Y0198
X004Y0181
X0046Y0135
X00475Y01675
X00475Y01
X0052Y0182
X0053Y019
X0054Y0198
X0055Y02075
X00625Y01025
T2
X0005Y024
X001Y0215
X001Y01875
X001Y016
X001Y01325
X001Y0105
X001Y00775
X001Y005
X001Y00225
X0015Y024
X002Y0215
X002Y01875
X002Y016
X002Y01325
X002Y0105
X002Y00775
X002Y005
X002Y00225
X00375Y0222
X00375Y0207
X00375Y0191
X004Y017
X004Y016
X004Y015
X004Y014
X004Y013
X004Y012
X004Y011
X0045Y00875
X0063Y003
X0065Y024
X0065Y00875
X007Y017
X007Y016
X007Y015
X007Y014
X007Y013
X007Y012
X007Y011
X00725Y0222
X00725Y0207
X00725Y0191
X0073Y003
X0075Y024
T3
X00275Y01725
X003Y0215
X0035Y00225
X00425Y00375
X00475Y023
X00475Y00225
T4
X00425Y00675
X00425Y00498
X00681Y00675
X00681Y00498
T5
X0063Y0018
X0063Y0006
X0073Y0018
X0073Y0006
T0
M30
