G04 (created by PCBNEW (2012-oct-18)-testing) date Mon 07 Oct 2013 03:49:21 PM EDT*
%MOIN*%
G04 Gerber Fmt 3.4, Leading zero omitted, Abs format*
%FSLAX34Y34*%
G01*
G70*
G90*
G04 APERTURE LIST*
%ADD10C,0.006*%
%ADD11C,0.008*%
%ADD12C,0.00590551*%
%ADD13C,0.005*%
%ADD14C,0.015*%
%ADD15C,0.012*%
%ADD16C,0.01*%
%ADD17C,0.003*%
G04 APERTURE END LIST*
G54D10*
G54D11*
X4819Y24438D02*
X4819Y24838D01*
X4914Y24838D01*
X4971Y24819D01*
X5009Y24780D01*
X5028Y24742D01*
X5047Y24666D01*
X5047Y24609D01*
X5028Y24533D01*
X5009Y24495D01*
X4971Y24457D01*
X4914Y24438D01*
X4819Y24438D01*
X5390Y24438D02*
X5390Y24647D01*
X5371Y24685D01*
X5333Y24704D01*
X5257Y24704D01*
X5219Y24685D01*
X5390Y24457D02*
X5352Y24438D01*
X5257Y24438D01*
X5219Y24457D01*
X5200Y24495D01*
X5200Y24533D01*
X5219Y24571D01*
X5257Y24590D01*
X5352Y24590D01*
X5390Y24609D01*
X5523Y24704D02*
X5676Y24704D01*
X5580Y24838D02*
X5580Y24495D01*
X5600Y24457D01*
X5638Y24438D01*
X5676Y24438D01*
X5980Y24438D02*
X5980Y24647D01*
X5961Y24685D01*
X5923Y24704D01*
X5847Y24704D01*
X5809Y24685D01*
X5980Y24457D02*
X5942Y24438D01*
X5847Y24438D01*
X5809Y24457D01*
X5790Y24495D01*
X5790Y24533D01*
X5809Y24571D01*
X5847Y24590D01*
X5942Y24590D01*
X5980Y24609D01*
X2204Y24476D02*
X2185Y24457D01*
X2128Y24438D01*
X2090Y24438D01*
X2033Y24457D01*
X1995Y24495D01*
X1976Y24533D01*
X1957Y24609D01*
X1957Y24666D01*
X1976Y24742D01*
X1995Y24780D01*
X2033Y24819D01*
X2090Y24838D01*
X2128Y24838D01*
X2185Y24819D01*
X2204Y24800D01*
X2433Y24438D02*
X2395Y24457D01*
X2376Y24495D01*
X2376Y24838D01*
X2642Y24438D02*
X2604Y24457D01*
X2585Y24476D01*
X2566Y24514D01*
X2566Y24628D01*
X2585Y24666D01*
X2604Y24685D01*
X2642Y24704D01*
X2700Y24704D01*
X2738Y24685D01*
X2757Y24666D01*
X2776Y24628D01*
X2776Y24514D01*
X2757Y24476D01*
X2738Y24457D01*
X2700Y24438D01*
X2642Y24438D01*
X3119Y24457D02*
X3080Y24438D01*
X3004Y24438D01*
X2966Y24457D01*
X2947Y24476D01*
X2928Y24514D01*
X2928Y24628D01*
X2947Y24666D01*
X2966Y24685D01*
X3004Y24704D01*
X3080Y24704D01*
X3119Y24685D01*
X3290Y24438D02*
X3290Y24838D01*
X3328Y24590D02*
X3442Y24438D01*
X3442Y24704D02*
X3290Y24552D01*
X2795Y1057D02*
X2757Y1038D01*
X2680Y1038D01*
X2642Y1057D01*
X2623Y1095D01*
X2623Y1247D01*
X2642Y1285D01*
X2680Y1304D01*
X2757Y1304D01*
X2795Y1285D01*
X2814Y1247D01*
X2814Y1209D01*
X2623Y1171D01*
X3157Y1038D02*
X3157Y1438D01*
X3157Y1057D02*
X3119Y1038D01*
X3042Y1038D01*
X3004Y1057D01*
X2985Y1076D01*
X2966Y1114D01*
X2966Y1228D01*
X2985Y1266D01*
X3004Y1285D01*
X3042Y1304D01*
X3119Y1304D01*
X3157Y1285D01*
X3290Y1304D02*
X3442Y1304D01*
X3347Y1038D02*
X3347Y1380D01*
X3366Y1419D01*
X3404Y1438D01*
X3442Y1438D01*
X3576Y1076D02*
X3595Y1057D01*
X3576Y1038D01*
X3557Y1057D01*
X3576Y1076D01*
X3576Y1038D01*
X3766Y1038D02*
X3766Y1438D01*
X3766Y1285D02*
X3804Y1304D01*
X3880Y1304D01*
X3919Y1285D01*
X3938Y1266D01*
X3957Y1228D01*
X3957Y1114D01*
X3938Y1076D01*
X3919Y1057D01*
X3880Y1038D01*
X3804Y1038D01*
X3766Y1057D01*
X4300Y1304D02*
X4300Y1038D01*
X4128Y1304D02*
X4128Y1095D01*
X4147Y1057D01*
X4185Y1038D01*
X4242Y1038D01*
X4280Y1057D01*
X4300Y1076D01*
X4490Y1076D02*
X4509Y1057D01*
X4490Y1038D01*
X4471Y1057D01*
X4490Y1076D01*
X4490Y1038D01*
X4833Y1057D02*
X4795Y1038D01*
X4719Y1038D01*
X4680Y1057D01*
X4661Y1095D01*
X4661Y1247D01*
X4680Y1285D01*
X4719Y1304D01*
X4795Y1304D01*
X4833Y1285D01*
X4852Y1247D01*
X4852Y1209D01*
X4661Y1171D01*
X5195Y1038D02*
X5195Y1438D01*
X5195Y1057D02*
X5157Y1038D01*
X5080Y1038D01*
X5042Y1057D01*
X5023Y1076D01*
X5004Y1114D01*
X5004Y1228D01*
X5023Y1266D01*
X5042Y1285D01*
X5080Y1304D01*
X5157Y1304D01*
X5195Y1285D01*
X5557Y1304D02*
X5557Y1038D01*
X5385Y1304D02*
X5385Y1095D01*
X5404Y1057D01*
X5442Y1038D01*
X5500Y1038D01*
X5538Y1057D01*
X5557Y1076D01*
X400Y459D02*
X471Y435D01*
X495Y411D01*
X519Y364D01*
X519Y292D01*
X495Y245D01*
X471Y221D01*
X423Y197D01*
X233Y197D01*
X233Y697D01*
X400Y697D01*
X447Y673D01*
X471Y650D01*
X495Y602D01*
X495Y554D01*
X471Y507D01*
X447Y483D01*
X400Y459D01*
X233Y459D01*
X804Y197D02*
X757Y221D01*
X733Y269D01*
X733Y697D01*
X995Y197D02*
X995Y530D01*
X995Y697D02*
X971Y673D01*
X995Y650D01*
X1019Y673D01*
X995Y697D01*
X995Y650D01*
X1233Y530D02*
X1233Y197D01*
X1233Y483D02*
X1257Y507D01*
X1304Y530D01*
X1376Y530D01*
X1423Y507D01*
X1447Y459D01*
X1447Y197D01*
X1685Y197D02*
X1685Y697D01*
X1733Y388D02*
X1876Y197D01*
X1876Y530D02*
X1685Y340D01*
X2042Y530D02*
X2161Y197D01*
X2280Y530D02*
X2161Y197D01*
X2114Y78D01*
X2090Y54D01*
X2042Y30D01*
X2471Y197D02*
X2471Y697D01*
X2661Y697D01*
X2709Y673D01*
X2733Y650D01*
X2757Y602D01*
X2757Y530D01*
X2733Y483D01*
X2709Y459D01*
X2661Y435D01*
X2471Y435D01*
X3066Y697D02*
X3161Y697D01*
X3209Y673D01*
X3257Y626D01*
X3280Y530D01*
X3280Y364D01*
X3257Y269D01*
X3209Y221D01*
X3161Y197D01*
X3066Y197D01*
X3019Y221D01*
X2971Y269D01*
X2947Y364D01*
X2947Y530D01*
X2971Y626D01*
X3019Y673D01*
X3066Y697D01*
X3423Y697D02*
X3590Y197D01*
X3757Y697D01*
X4280Y721D02*
X3852Y78D01*
X4423Y340D02*
X4661Y340D01*
X4376Y197D02*
X4542Y697D01*
X4709Y197D01*
X4804Y697D02*
X4971Y197D01*
X5138Y697D01*
X5590Y197D02*
X5423Y435D01*
X5304Y197D02*
X5304Y697D01*
X5495Y697D01*
X5542Y673D01*
X5566Y650D01*
X5590Y602D01*
X5590Y530D01*
X5566Y483D01*
X5542Y459D01*
X5495Y435D01*
X5304Y435D01*
X6695Y3980D02*
X7304Y3980D01*
X5595Y3980D02*
X6204Y3980D01*
X5900Y3676D02*
X5900Y4285D01*
G54D12*
X0Y0D02*
X0Y25000D01*
X8000Y0D02*
X0Y0D01*
X8000Y25000D02*
X8000Y0D01*
X0Y25000D02*
X8000Y25000D01*
G54D13*
X4000Y22450D02*
X4000Y21700D01*
X4000Y21700D02*
X7000Y21700D01*
X7000Y21700D02*
X7000Y22700D01*
X7000Y22700D02*
X4000Y22700D01*
X4000Y22700D02*
X4000Y22450D01*
X3750Y22200D02*
X4000Y22200D01*
X7000Y22200D02*
X7250Y22200D01*
X4000Y22450D02*
X4250Y22700D01*
X4000Y20950D02*
X4000Y20200D01*
X4000Y20200D02*
X7000Y20200D01*
X7000Y20200D02*
X7000Y21200D01*
X7000Y21200D02*
X4000Y21200D01*
X4000Y21200D02*
X4000Y20950D01*
X3750Y20700D02*
X4000Y20700D01*
X7000Y20700D02*
X7250Y20700D01*
X4000Y20950D02*
X4250Y21200D01*
G54D14*
X4500Y10000D02*
X4500Y18000D01*
X6500Y18000D02*
X6500Y10000D01*
X6500Y10000D02*
X4500Y10000D01*
X5000Y10000D02*
X5000Y10500D01*
X5000Y10500D02*
X6000Y10500D01*
X6000Y10500D02*
X6000Y10000D01*
X4500Y18000D02*
X6500Y18000D01*
G54D15*
X6900Y8350D02*
X4100Y8350D01*
X4100Y8350D02*
X4100Y9150D01*
X4100Y9150D02*
X6900Y9150D01*
X6900Y9150D02*
X6900Y8350D01*
X6900Y8550D02*
X6700Y8350D01*
G54D12*
X5910Y5950D02*
G75*
G03X5910Y5950I-360J0D01*
G74*
G01*
X4750Y7050D02*
X6350Y7050D01*
X6350Y7050D02*
X6350Y4750D01*
X6350Y4750D02*
X4750Y4750D01*
X4750Y4750D02*
X4750Y7050D01*
G54D13*
X4000Y19350D02*
X4000Y18600D01*
X4000Y18600D02*
X7000Y18600D01*
X7000Y18600D02*
X7000Y19600D01*
X7000Y19600D02*
X4000Y19600D01*
X4000Y19600D02*
X4000Y19350D01*
X3750Y19100D02*
X4000Y19100D01*
X7000Y19100D02*
X7250Y19100D01*
X4000Y19350D02*
X4250Y19600D01*
G54D16*
X280Y24500D02*
X280Y23500D01*
G54D10*
X1360Y23615D02*
G75*
G03X1500Y24000I-460J384D01*
G74*
G01*
X1499Y24000D02*
G75*
G03X1348Y24397I-599J0D01*
G74*
G01*
X300Y24000D02*
G75*
G03X444Y23610I599J0D01*
G74*
G01*
X439Y24384D02*
G75*
G03X300Y24000I460J-384D01*
G74*
G01*
X412Y23650D02*
G75*
G03X900Y23400I487J349D01*
G74*
G01*
X900Y23400D02*
G75*
G03X1379Y23639I0J600D01*
G74*
G01*
X900Y24599D02*
G75*
G03X427Y24368I0J-599D01*
G74*
G01*
X1373Y24368D02*
G75*
G03X900Y24600I-473J-368D01*
G74*
G01*
X900Y23750D02*
G75*
G03X1150Y24000I0J250D01*
G74*
G01*
X900Y23600D02*
G75*
G03X1300Y24000I0J400D01*
G74*
G01*
X900Y24250D02*
G75*
G03X650Y24000I0J-250D01*
G74*
G01*
X900Y24400D02*
G75*
G03X500Y24000I0J-400D01*
G74*
G01*
G54D16*
X286Y23486D02*
G75*
G03X900Y23200I613J513D01*
G74*
G01*
X900Y23201D02*
G75*
G03X1604Y23623I0J799D01*
G74*
G01*
X898Y24798D02*
G75*
G03X289Y24515I1J-798D01*
G74*
G01*
X1594Y24397D02*
G75*
G03X900Y24800I-694J-397D01*
G74*
G01*
X1604Y23620D02*
G75*
G03X1700Y24000I-704J379D01*
G74*
G01*
X1699Y24000D02*
G75*
G03X1581Y24418I-799J0D01*
G74*
G01*
X6280Y24500D02*
X6280Y23500D01*
G54D10*
X7360Y23615D02*
G75*
G03X7500Y24000I-460J384D01*
G74*
G01*
X7499Y24000D02*
G75*
G03X7348Y24397I-599J0D01*
G74*
G01*
X6300Y24000D02*
G75*
G03X6444Y23610I599J0D01*
G74*
G01*
X6439Y24384D02*
G75*
G03X6300Y24000I460J-384D01*
G74*
G01*
X6412Y23650D02*
G75*
G03X6900Y23400I487J349D01*
G74*
G01*
X6900Y23400D02*
G75*
G03X7379Y23639I0J600D01*
G74*
G01*
X6900Y24599D02*
G75*
G03X6427Y24368I0J-599D01*
G74*
G01*
X7373Y24368D02*
G75*
G03X6900Y24600I-473J-368D01*
G74*
G01*
X6900Y23750D02*
G75*
G03X7150Y24000I0J250D01*
G74*
G01*
X6900Y23600D02*
G75*
G03X7300Y24000I0J400D01*
G74*
G01*
X6900Y24250D02*
G75*
G03X6650Y24000I0J-250D01*
G74*
G01*
X6900Y24400D02*
G75*
G03X6500Y24000I0J-400D01*
G74*
G01*
G54D16*
X6286Y23486D02*
G75*
G03X6900Y23200I613J513D01*
G74*
G01*
X6900Y23201D02*
G75*
G03X7604Y23623I0J799D01*
G74*
G01*
X6898Y24798D02*
G75*
G03X6289Y24515I1J-798D01*
G74*
G01*
X7594Y24397D02*
G75*
G03X6900Y24800I-694J-397D01*
G74*
G01*
X7604Y23620D02*
G75*
G03X7700Y24000I-704J379D01*
G74*
G01*
X7699Y24000D02*
G75*
G03X7581Y24418I-799J0D01*
G74*
G01*
G54D11*
X380Y22250D02*
X380Y20750D01*
G54D17*
X2107Y21500D02*
G75*
G03X2107Y21500I-707J0D01*
G74*
G01*
G54D16*
X400Y20749D02*
G75*
G03X400Y22250I999J750D01*
G74*
G01*
G54D10*
X1400Y21050D02*
G75*
G03X1850Y21500I0J450D01*
G74*
G01*
X1400Y21950D02*
G75*
G03X950Y21500I0J-450D01*
G74*
G01*
X1400Y20850D02*
G75*
G03X2050Y21500I0J650D01*
G74*
G01*
X1400Y22150D02*
G75*
G03X750Y21500I0J-650D01*
G74*
G01*
X1400Y20650D02*
G75*
G03X2250Y21500I0J850D01*
G74*
G01*
X1400Y22350D02*
G75*
G03X550Y21500I0J-850D01*
G74*
G01*
G54D11*
X380Y19500D02*
X380Y18000D01*
G54D17*
X2107Y18750D02*
G75*
G03X2107Y18750I-707J0D01*
G74*
G01*
G54D16*
X400Y17999D02*
G75*
G03X400Y19500I999J750D01*
G74*
G01*
G54D10*
X1400Y18300D02*
G75*
G03X1850Y18750I0J450D01*
G74*
G01*
X1400Y19200D02*
G75*
G03X950Y18750I0J-450D01*
G74*
G01*
X1400Y18100D02*
G75*
G03X2050Y18750I0J650D01*
G74*
G01*
X1400Y19400D02*
G75*
G03X750Y18750I0J-650D01*
G74*
G01*
X1400Y17900D02*
G75*
G03X2250Y18750I0J850D01*
G74*
G01*
X1400Y19600D02*
G75*
G03X550Y18750I0J-850D01*
G74*
G01*
G54D11*
X380Y16750D02*
X380Y15250D01*
G54D17*
X2107Y16000D02*
G75*
G03X2107Y16000I-707J0D01*
G74*
G01*
G54D16*
X400Y15249D02*
G75*
G03X400Y16750I999J750D01*
G74*
G01*
G54D10*
X1400Y15550D02*
G75*
G03X1850Y16000I0J450D01*
G74*
G01*
X1400Y16450D02*
G75*
G03X950Y16000I0J-450D01*
G74*
G01*
X1400Y15350D02*
G75*
G03X2050Y16000I0J650D01*
G74*
G01*
X1400Y16650D02*
G75*
G03X750Y16000I0J-650D01*
G74*
G01*
X1400Y15150D02*
G75*
G03X2250Y16000I0J850D01*
G74*
G01*
X1400Y16850D02*
G75*
G03X550Y16000I0J-850D01*
G74*
G01*
G54D11*
X380Y14000D02*
X380Y12500D01*
G54D17*
X2107Y13250D02*
G75*
G03X2107Y13250I-707J0D01*
G74*
G01*
G54D16*
X400Y12499D02*
G75*
G03X400Y14000I999J750D01*
G74*
G01*
G54D10*
X1400Y12800D02*
G75*
G03X1850Y13250I0J450D01*
G74*
G01*
X1400Y13700D02*
G75*
G03X950Y13250I0J-450D01*
G74*
G01*
X1400Y12600D02*
G75*
G03X2050Y13250I0J650D01*
G74*
G01*
X1400Y13900D02*
G75*
G03X750Y13250I0J-650D01*
G74*
G01*
X1400Y12400D02*
G75*
G03X2250Y13250I0J850D01*
G74*
G01*
X1400Y14100D02*
G75*
G03X550Y13250I0J-850D01*
G74*
G01*
G54D11*
X380Y11250D02*
X380Y9750D01*
G54D17*
X2107Y10500D02*
G75*
G03X2107Y10500I-707J0D01*
G74*
G01*
G54D16*
X400Y9749D02*
G75*
G03X400Y11250I999J750D01*
G74*
G01*
G54D10*
X1400Y10050D02*
G75*
G03X1850Y10500I0J450D01*
G74*
G01*
X1400Y10950D02*
G75*
G03X950Y10500I0J-450D01*
G74*
G01*
X1400Y9850D02*
G75*
G03X2050Y10500I0J650D01*
G74*
G01*
X1400Y11150D02*
G75*
G03X750Y10500I0J-650D01*
G74*
G01*
X1400Y9650D02*
G75*
G03X2250Y10500I0J850D01*
G74*
G01*
X1400Y11350D02*
G75*
G03X550Y10500I0J-850D01*
G74*
G01*
G54D11*
X380Y8500D02*
X380Y7000D01*
G54D17*
X2107Y7750D02*
G75*
G03X2107Y7750I-707J0D01*
G74*
G01*
G54D16*
X400Y6999D02*
G75*
G03X400Y8500I999J750D01*
G74*
G01*
G54D10*
X1400Y7300D02*
G75*
G03X1850Y7750I0J450D01*
G74*
G01*
X1400Y8200D02*
G75*
G03X950Y7750I0J-450D01*
G74*
G01*
X1400Y7100D02*
G75*
G03X2050Y7750I0J650D01*
G74*
G01*
X1400Y8400D02*
G75*
G03X750Y7750I0J-650D01*
G74*
G01*
X1400Y6900D02*
G75*
G03X2250Y7750I0J850D01*
G74*
G01*
X1400Y8600D02*
G75*
G03X550Y7750I0J-850D01*
G74*
G01*
G54D11*
X380Y5750D02*
X380Y4250D01*
G54D17*
X2107Y5000D02*
G75*
G03X2107Y5000I-707J0D01*
G74*
G01*
G54D16*
X400Y4249D02*
G75*
G03X400Y5750I999J750D01*
G74*
G01*
G54D10*
X1400Y4550D02*
G75*
G03X1850Y5000I0J450D01*
G74*
G01*
X1400Y5450D02*
G75*
G03X950Y5000I0J-450D01*
G74*
G01*
X1400Y4350D02*
G75*
G03X2050Y5000I0J650D01*
G74*
G01*
X1400Y5650D02*
G75*
G03X750Y5000I0J-650D01*
G74*
G01*
X1400Y4150D02*
G75*
G03X2250Y5000I0J850D01*
G74*
G01*
X1400Y5850D02*
G75*
G03X550Y5000I0J-850D01*
G74*
G01*
G54D11*
X380Y3000D02*
X380Y1500D01*
G54D17*
X2107Y2250D02*
G75*
G03X2107Y2250I-707J0D01*
G74*
G01*
G54D16*
X400Y1499D02*
G75*
G03X400Y3000I999J750D01*
G74*
G01*
G54D10*
X1400Y1800D02*
G75*
G03X1850Y2250I0J450D01*
G74*
G01*
X1400Y2700D02*
G75*
G03X950Y2250I0J-450D01*
G74*
G01*
X1400Y1600D02*
G75*
G03X2050Y2250I0J650D01*
G74*
G01*
X1400Y2900D02*
G75*
G03X750Y2250I0J-650D01*
G74*
G01*
X1400Y1400D02*
G75*
G03X2250Y2250I0J850D01*
G74*
G01*
X1400Y3100D02*
G75*
G03X550Y2250I0J-850D01*
G74*
G01*
X3500Y21000D02*
X2500Y21000D01*
X2500Y22000D02*
X3500Y22000D01*
X2500Y21000D02*
X2500Y22000D01*
X3500Y22000D02*
X3500Y21000D01*
X3250Y16750D02*
X2250Y16750D01*
X2250Y17750D02*
X3250Y17750D01*
X2250Y16750D02*
X2250Y17750D01*
X3250Y17750D02*
X3250Y16750D01*
X5250Y22500D02*
X4250Y22500D01*
X4250Y23500D02*
X5250Y23500D01*
X4250Y22500D02*
X4250Y23500D01*
X5250Y23500D02*
X5250Y22500D01*
X4750Y3250D02*
X3750Y3250D01*
X3750Y4250D02*
X4750Y4250D01*
X3750Y3250D02*
X3750Y4250D01*
X4750Y4250D02*
X4750Y3250D01*
X5250Y1750D02*
X4250Y1750D01*
X4250Y2750D02*
X5250Y2750D01*
X4250Y1750D02*
X4250Y2750D01*
X5250Y2750D02*
X5250Y1750D01*
X4000Y1750D02*
X3000Y1750D01*
X3000Y2750D02*
X4000Y2750D01*
X3000Y1750D02*
X3000Y2750D01*
X4000Y2750D02*
X4000Y1750D01*
G54D11*
X5916Y21997D02*
X5750Y22235D01*
X5630Y21997D02*
X5630Y22497D01*
X5821Y22497D01*
X5869Y22473D01*
X5892Y22450D01*
X5916Y22402D01*
X5916Y22330D01*
X5892Y22283D01*
X5869Y22259D01*
X5821Y22235D01*
X5630Y22235D01*
X6392Y21997D02*
X6107Y21997D01*
X6250Y21997D02*
X6250Y22497D01*
X6202Y22426D01*
X6154Y22378D01*
X6107Y22354D01*
X5916Y20497D02*
X5750Y20735D01*
X5630Y20497D02*
X5630Y20997D01*
X5821Y20997D01*
X5869Y20973D01*
X5892Y20950D01*
X5916Y20902D01*
X5916Y20830D01*
X5892Y20783D01*
X5869Y20759D01*
X5821Y20735D01*
X5630Y20735D01*
X6107Y20950D02*
X6130Y20973D01*
X6178Y20997D01*
X6297Y20997D01*
X6345Y20973D01*
X6369Y20950D01*
X6392Y20902D01*
X6392Y20854D01*
X6369Y20783D01*
X6083Y20497D01*
X6392Y20497D01*
X5011Y16997D02*
X5011Y17497D01*
X5535Y17045D02*
X5511Y17021D01*
X5440Y16997D01*
X5392Y16997D01*
X5321Y17021D01*
X5273Y17069D01*
X5250Y17116D01*
X5226Y17211D01*
X5226Y17283D01*
X5250Y17378D01*
X5273Y17426D01*
X5321Y17473D01*
X5392Y17497D01*
X5440Y17497D01*
X5511Y17473D01*
X5535Y17450D01*
X6011Y16997D02*
X5726Y16997D01*
X5869Y16997D02*
X5869Y17497D01*
X5821Y17426D01*
X5773Y17378D01*
X5726Y17354D01*
X7416Y9245D02*
X7392Y9221D01*
X7321Y9197D01*
X7273Y9197D01*
X7202Y9221D01*
X7154Y9269D01*
X7130Y9316D01*
X7107Y9411D01*
X7107Y9483D01*
X7130Y9578D01*
X7154Y9626D01*
X7202Y9673D01*
X7273Y9697D01*
X7321Y9697D01*
X7392Y9673D01*
X7416Y9650D01*
X7892Y9197D02*
X7607Y9197D01*
X7750Y9197D02*
X7750Y9697D01*
X7702Y9626D01*
X7654Y9578D01*
X7607Y9554D01*
X4833Y7321D02*
X4904Y7297D01*
X5023Y7297D01*
X5071Y7321D01*
X5095Y7345D01*
X5119Y7392D01*
X5119Y7440D01*
X5095Y7488D01*
X5071Y7511D01*
X5023Y7535D01*
X4928Y7559D01*
X4880Y7583D01*
X4857Y7607D01*
X4833Y7654D01*
X4833Y7702D01*
X4857Y7750D01*
X4880Y7773D01*
X4928Y7797D01*
X5047Y7797D01*
X5119Y7773D01*
X5285Y7797D02*
X5404Y7297D01*
X5500Y7654D01*
X5595Y7297D01*
X5714Y7797D01*
X6166Y7297D02*
X5880Y7297D01*
X6023Y7297D02*
X6023Y7797D01*
X5976Y7726D01*
X5928Y7678D01*
X5880Y7654D01*
G54D10*
X6033Y18897D02*
X5900Y19135D01*
X5804Y18897D02*
X5804Y19397D01*
X5957Y19397D01*
X5995Y19373D01*
X6014Y19350D01*
X6033Y19302D01*
X6033Y19230D01*
X6014Y19183D01*
X5995Y19159D01*
X5957Y19135D01*
X5804Y19135D01*
X6166Y19397D02*
X6414Y19397D01*
X6280Y19207D01*
X6338Y19207D01*
X6376Y19183D01*
X6395Y19159D01*
X6414Y19111D01*
X6414Y18992D01*
X6395Y18945D01*
X6376Y18921D01*
X6338Y18897D01*
X6223Y18897D01*
X6185Y18921D01*
X6166Y18945D01*
G54D11*
X2292Y23697D02*
X2292Y24197D01*
X2411Y24197D01*
X2483Y24173D01*
X2530Y24126D01*
X2554Y24078D01*
X2578Y23983D01*
X2578Y23911D01*
X2554Y23816D01*
X2530Y23769D01*
X2483Y23721D01*
X2411Y23697D01*
X2292Y23697D01*
X3054Y23697D02*
X2769Y23697D01*
X2911Y23697D02*
X2911Y24197D01*
X2864Y24126D01*
X2816Y24078D01*
X2769Y24054D01*
X3364Y24197D02*
X3411Y24197D01*
X3459Y24173D01*
X3483Y24150D01*
X3507Y24102D01*
X3530Y24007D01*
X3530Y23888D01*
X3507Y23792D01*
X3483Y23745D01*
X3459Y23721D01*
X3411Y23697D01*
X3364Y23697D01*
X3316Y23721D01*
X3292Y23745D01*
X3269Y23792D01*
X3245Y23888D01*
X3245Y24007D01*
X3269Y24102D01*
X3292Y24150D01*
X3316Y24173D01*
X3364Y24197D01*
X4830Y23697D02*
X4830Y24197D01*
X4950Y24197D01*
X5021Y24173D01*
X5069Y24126D01*
X5092Y24078D01*
X5116Y23983D01*
X5116Y23911D01*
X5092Y23816D01*
X5069Y23769D01*
X5021Y23721D01*
X4950Y23697D01*
X4830Y23697D01*
X5354Y23697D02*
X5450Y23697D01*
X5497Y23721D01*
X5521Y23745D01*
X5569Y23816D01*
X5592Y23911D01*
X5592Y24102D01*
X5569Y24150D01*
X5545Y24173D01*
X5497Y24197D01*
X5402Y24197D01*
X5354Y24173D01*
X5330Y24150D01*
X5307Y24102D01*
X5307Y23983D01*
X5330Y23935D01*
X5354Y23911D01*
X5402Y23888D01*
X5497Y23888D01*
X5545Y23911D01*
X5569Y23935D01*
X5592Y23983D01*
X2330Y22597D02*
X2330Y23097D01*
X2450Y23097D01*
X2521Y23073D01*
X2569Y23026D01*
X2592Y22978D01*
X2616Y22883D01*
X2616Y22811D01*
X2592Y22716D01*
X2569Y22669D01*
X2521Y22621D01*
X2450Y22597D01*
X2330Y22597D01*
X2902Y22883D02*
X2854Y22907D01*
X2830Y22930D01*
X2807Y22978D01*
X2807Y23002D01*
X2830Y23050D01*
X2854Y23073D01*
X2902Y23097D01*
X2997Y23097D01*
X3045Y23073D01*
X3069Y23050D01*
X3092Y23002D01*
X3092Y22978D01*
X3069Y22930D01*
X3045Y22907D01*
X2997Y22883D01*
X2902Y22883D01*
X2854Y22859D01*
X2830Y22835D01*
X2807Y22788D01*
X2807Y22692D01*
X2830Y22645D01*
X2854Y22621D01*
X2902Y22597D01*
X2997Y22597D01*
X3045Y22621D01*
X3069Y22645D01*
X3092Y22692D01*
X3092Y22788D01*
X3069Y22835D01*
X3045Y22859D01*
X2997Y22883D01*
X2330Y19847D02*
X2330Y20347D01*
X2450Y20347D01*
X2521Y20323D01*
X2569Y20276D01*
X2592Y20228D01*
X2616Y20133D01*
X2616Y20061D01*
X2592Y19966D01*
X2569Y19919D01*
X2521Y19871D01*
X2450Y19847D01*
X2330Y19847D01*
X2783Y20347D02*
X3116Y20347D01*
X2902Y19847D01*
X2630Y16047D02*
X2630Y16547D01*
X2750Y16547D01*
X2821Y16523D01*
X2869Y16476D01*
X2892Y16428D01*
X2916Y16333D01*
X2916Y16261D01*
X2892Y16166D01*
X2869Y16119D01*
X2821Y16071D01*
X2750Y16047D01*
X2630Y16047D01*
X3345Y16547D02*
X3250Y16547D01*
X3202Y16523D01*
X3178Y16500D01*
X3130Y16428D01*
X3107Y16333D01*
X3107Y16142D01*
X3130Y16095D01*
X3154Y16071D01*
X3202Y16047D01*
X3297Y16047D01*
X3345Y16071D01*
X3369Y16095D01*
X3392Y16142D01*
X3392Y16261D01*
X3369Y16309D01*
X3345Y16333D01*
X3297Y16357D01*
X3202Y16357D01*
X3154Y16333D01*
X3130Y16309D01*
X3107Y16261D01*
X2330Y14347D02*
X2330Y14847D01*
X2450Y14847D01*
X2521Y14823D01*
X2569Y14776D01*
X2592Y14728D01*
X2616Y14633D01*
X2616Y14561D01*
X2592Y14466D01*
X2569Y14419D01*
X2521Y14371D01*
X2450Y14347D01*
X2330Y14347D01*
X3069Y14847D02*
X2830Y14847D01*
X2807Y14609D01*
X2830Y14633D01*
X2878Y14657D01*
X2997Y14657D01*
X3045Y14633D01*
X3069Y14609D01*
X3092Y14561D01*
X3092Y14442D01*
X3069Y14395D01*
X3045Y14371D01*
X2997Y14347D01*
X2878Y14347D01*
X2830Y14371D01*
X2807Y14395D01*
X2330Y11597D02*
X2330Y12097D01*
X2450Y12097D01*
X2521Y12073D01*
X2569Y12026D01*
X2592Y11978D01*
X2616Y11883D01*
X2616Y11811D01*
X2592Y11716D01*
X2569Y11669D01*
X2521Y11621D01*
X2450Y11597D01*
X2330Y11597D01*
X3045Y11930D02*
X3045Y11597D01*
X2926Y12121D02*
X2807Y11764D01*
X3116Y11764D01*
X2330Y8847D02*
X2330Y9347D01*
X2450Y9347D01*
X2521Y9323D01*
X2569Y9276D01*
X2592Y9228D01*
X2616Y9133D01*
X2616Y9061D01*
X2592Y8966D01*
X2569Y8919D01*
X2521Y8871D01*
X2450Y8847D01*
X2330Y8847D01*
X2783Y9347D02*
X3092Y9347D01*
X2926Y9157D01*
X2997Y9157D01*
X3045Y9133D01*
X3069Y9109D01*
X3092Y9061D01*
X3092Y8942D01*
X3069Y8895D01*
X3045Y8871D01*
X2997Y8847D01*
X2854Y8847D01*
X2807Y8871D01*
X2783Y8895D01*
X2330Y6097D02*
X2330Y6597D01*
X2450Y6597D01*
X2521Y6573D01*
X2569Y6526D01*
X2592Y6478D01*
X2616Y6383D01*
X2616Y6311D01*
X2592Y6216D01*
X2569Y6169D01*
X2521Y6121D01*
X2450Y6097D01*
X2330Y6097D01*
X2807Y6550D02*
X2830Y6573D01*
X2878Y6597D01*
X2997Y6597D01*
X3045Y6573D01*
X3069Y6550D01*
X3092Y6502D01*
X3092Y6454D01*
X3069Y6383D01*
X2783Y6097D01*
X3092Y6097D01*
X2330Y3347D02*
X2330Y3847D01*
X2450Y3847D01*
X2521Y3823D01*
X2569Y3776D01*
X2592Y3728D01*
X2616Y3633D01*
X2616Y3561D01*
X2592Y3466D01*
X2569Y3419D01*
X2521Y3371D01*
X2450Y3347D01*
X2330Y3347D01*
X3092Y3347D02*
X2807Y3347D01*
X2950Y3347D02*
X2950Y3847D01*
X2902Y3776D01*
X2854Y3728D01*
X2807Y3704D01*
M02*
