G04 (created by PCBNEW (2012-oct-18)-testing) date Mon 07 Oct 2013 03:49:21 PM EDT*
%MOIN*%
G04 Gerber Fmt 3.4, Leading zero omitted, Abs format*
%FSLAX34Y34*%
G01*
G70*
G90*
G04 APERTURE LIST*
%ADD10C,0.006*%
%ADD11C,0.00590551*%
%ADD12C,0.055*%
%ADD13R,0.055X0.055*%
%ADD14C,0.06*%
%ADD15C,0.09*%
%ADD16C,0.066*%
%ADD17R,0.06X0.06*%
%ADD18C,0.042*%
%ADD19C,0.01*%
%ADD20C,0.015*%
%ADD21C,0.04*%
G04 APERTURE END LIST*
G54D10*
G54D11*
X0Y0D02*
X0Y25000D01*
X8000Y0D02*
X0Y0D01*
X8000Y25000D02*
X8000Y0D01*
X0Y25000D02*
X8000Y25000D01*
G54D12*
X3750Y22200D03*
X7250Y22200D03*
X3750Y20700D03*
X7250Y20700D03*
G54D13*
X7000Y11000D03*
G54D12*
X7000Y12000D03*
X7000Y13000D03*
X7000Y14000D03*
X7000Y15000D03*
X7000Y16000D03*
X7000Y17000D03*
X4000Y17000D03*
X4000Y16000D03*
X4000Y15000D03*
X4000Y14000D03*
X4000Y13000D03*
X4000Y12000D03*
X4000Y11000D03*
X6500Y8750D03*
X4500Y8750D03*
X4250Y6750D03*
X4250Y4980D03*
X6810Y4980D03*
X6810Y6750D03*
G54D14*
X6300Y3000D03*
X7300Y3000D03*
G54D15*
X6300Y1800D03*
X7300Y1800D03*
X6300Y600D03*
X7300Y600D03*
G54D12*
X3750Y19100D03*
X7250Y19100D03*
G54D16*
X1500Y24000D03*
X500Y24000D03*
X7500Y24000D03*
X6500Y24000D03*
X2000Y21500D03*
X1000Y21500D03*
X2000Y18750D03*
X1000Y18750D03*
X2000Y16000D03*
X1000Y16000D03*
X2000Y13250D03*
X1000Y13250D03*
X2000Y10500D03*
X1000Y10500D03*
X2000Y7750D03*
X1000Y7750D03*
X2000Y5000D03*
X1000Y5000D03*
X2000Y2250D03*
X1000Y2250D03*
G54D17*
X3000Y21500D03*
X2750Y17250D03*
X4750Y23000D03*
X4250Y3750D03*
X4750Y2250D03*
X3500Y2250D03*
G54D18*
X5400Y19800D03*
X3200Y19800D03*
X5500Y20750D03*
X6250Y10250D03*
X5300Y19000D03*
X4750Y10000D03*
X4750Y16750D03*
X4600Y13500D03*
X5200Y18200D03*
X4000Y18100D03*
G54D19*
X7000Y15000D02*
X6250Y15750D01*
X6250Y18950D02*
X5400Y19800D01*
X6250Y15750D02*
X6250Y18950D01*
G54D20*
X2000Y21500D02*
X2000Y21000D01*
X2000Y21000D02*
X3200Y19800D01*
X750Y23000D02*
X2500Y23000D01*
X500Y23250D02*
X750Y23000D01*
X500Y24000D02*
X500Y23250D01*
X3000Y22500D02*
X3000Y21500D01*
X2500Y23000D02*
X3000Y22500D01*
X3000Y21500D02*
X3000Y21000D01*
X3300Y20700D02*
X3750Y20700D01*
X3000Y21000D02*
X3300Y20700D01*
X7000Y17000D02*
X7000Y18250D01*
X6500Y19750D02*
X5500Y20750D01*
X6500Y18750D02*
X6500Y19750D01*
X7000Y18250D02*
X6500Y18750D01*
X5780Y9500D02*
X5780Y9530D01*
X5780Y9530D02*
X6250Y10000D01*
X6250Y10000D02*
X6250Y10250D01*
X7000Y14000D02*
X6000Y15000D01*
X5750Y19000D02*
X5300Y19000D01*
X6000Y18750D02*
X5750Y19000D01*
X6000Y15000D02*
X6000Y18750D01*
X4250Y3750D02*
X5360Y3750D01*
X5780Y4170D02*
X5780Y9500D01*
X5360Y3750D02*
X5780Y4170D01*
X4250Y6750D02*
X5000Y6750D01*
X5250Y7000D02*
X5250Y7500D01*
X5000Y6750D02*
X5250Y7000D01*
X5250Y9500D02*
X5000Y9750D01*
X5000Y9750D02*
X4750Y10000D01*
X4000Y17000D02*
X4500Y17000D01*
X4500Y17000D02*
X4750Y16750D01*
X5250Y9250D02*
X5250Y7500D01*
X5250Y9500D02*
X5250Y9250D01*
X4000Y17000D02*
X3000Y17000D01*
X3000Y17000D02*
X2750Y17250D01*
X4000Y16000D02*
X5000Y16000D01*
X5250Y17250D02*
X4800Y17700D01*
X5250Y16250D02*
X5250Y17250D01*
X5000Y16000D02*
X5250Y16250D01*
X6500Y24000D02*
X6500Y23500D01*
X6000Y23000D02*
X4750Y23000D01*
X6500Y23500D02*
X6000Y23000D01*
X3750Y22200D02*
X3750Y22750D01*
X4000Y23000D02*
X4750Y23000D01*
X3750Y22750D02*
X4000Y23000D01*
X3750Y22200D02*
X3750Y22150D01*
X4800Y21100D02*
X4800Y17700D01*
X3750Y22150D02*
X4800Y21100D01*
X2600Y14100D02*
X2600Y12600D01*
X3500Y15000D02*
X2600Y14100D01*
X4000Y15000D02*
X3500Y15000D01*
X2000Y12000D02*
X2000Y10500D01*
X2600Y12600D02*
X2000Y12000D01*
X7000Y16000D02*
X7100Y16000D01*
X5000Y13500D02*
X4600Y13500D01*
X6200Y12300D02*
X5000Y13500D01*
X6200Y12000D02*
X6200Y12300D01*
X6700Y11500D02*
X6200Y12000D01*
X7500Y11500D02*
X6700Y11500D01*
X7700Y11700D02*
X7500Y11500D01*
X7700Y15400D02*
X7700Y11700D01*
X7100Y16000D02*
X7700Y15400D01*
X5500Y13500D02*
X5500Y14250D01*
X4800Y14950D02*
X4800Y15400D01*
X5500Y14250D02*
X4800Y14950D01*
X2000Y16000D02*
X2700Y16000D01*
X4700Y15500D02*
X4800Y15400D01*
X3200Y15500D02*
X4700Y15500D01*
X2700Y16000D02*
X3200Y15500D01*
X5500Y13500D02*
X7000Y12000D01*
X7000Y13000D02*
X6500Y13500D01*
X5299Y18200D02*
X5200Y18200D01*
X5749Y17750D02*
X5299Y18200D01*
X5749Y14500D02*
X5749Y17750D01*
X6500Y13750D02*
X5749Y14500D01*
X6500Y13500D02*
X6500Y13750D01*
X2150Y18750D02*
X2000Y18750D01*
X4000Y18100D02*
X2800Y18100D01*
X2800Y18100D02*
X2150Y18750D01*
X4000Y12000D02*
X4250Y12000D01*
X3250Y3500D02*
X2000Y2250D01*
X3250Y7000D02*
X3250Y3500D01*
X3750Y7500D02*
X3250Y7000D01*
X3750Y9750D02*
X3750Y7500D01*
X4750Y10750D02*
X3750Y9750D01*
X4750Y11500D02*
X4750Y10750D01*
X4250Y12000D02*
X4750Y11500D01*
X4000Y13000D02*
X3500Y13000D01*
X2750Y5750D02*
X2000Y5000D01*
X2750Y7500D02*
X2750Y5750D01*
X3250Y8000D02*
X2750Y7500D01*
X3250Y12750D02*
X3250Y8000D01*
X3500Y13000D02*
X3250Y12750D01*
X4000Y14000D02*
X3500Y14000D01*
X2750Y8500D02*
X2000Y7750D01*
X2750Y11750D02*
X2750Y8500D01*
X2950Y12000D02*
X2750Y11750D01*
X2950Y13500D02*
X2950Y12000D01*
X3500Y14000D02*
X2950Y13500D01*
G54D21*
X6300Y3000D02*
X5500Y3000D01*
X5500Y3000D02*
X4750Y2250D01*
X6500Y8750D02*
X7650Y8750D01*
X7700Y4700D02*
X6300Y3000D01*
X7700Y8700D02*
X7700Y4700D01*
X7650Y8750D02*
X7700Y8700D01*
M02*
