G04 #@! TF.FileFunction,Copper,L1,Top,Signal*
%FSLAX46Y46*%
G04 Gerber Fmt 4.6, Leading zero omitted, Abs format (unit mm)*
G04 Created by KiCad (PCBNEW 4.0.0-rc1-stable) date Tue 17 Nov 2015 04:01:17 PM EST*
%MOMM*%
G01*
G04 APERTURE LIST*
%ADD10C,0.100000*%
%ADD11R,2.540000X2.540000*%
%ADD12C,2.540000*%
%ADD13R,1.300000X1.300000*%
%ADD14C,1.300000*%
%ADD15O,2.300000X1.600000*%
%ADD16R,1.727200X1.727200*%
%ADD17O,1.727200X1.727200*%
%ADD18R,2.032000X1.727200*%
%ADD19O,2.032000X1.727200*%
%ADD20C,1.998980*%
%ADD21O,1.501140X2.499360*%
%ADD22C,1.524000*%
%ADD23R,2.000000X2.000000*%
%ADD24C,2.000000*%
%ADD25C,1.905000*%
%ADD26O,3.048000X1.727200*%
%ADD27C,0.600000*%
%ADD28C,0.152400*%
%ADD29C,0.254000*%
%ADD30C,0.635000*%
%ADD31C,1.016000*%
%ADD32C,0.250000*%
G04 APERTURE END LIST*
D10*
D11*
X46990000Y-140970000D03*
D12*
X46990000Y-146050000D03*
D13*
X60960000Y-139700000D03*
D14*
X60960000Y-144700000D03*
D13*
X55880000Y-139700000D03*
D14*
X55880000Y-144700000D03*
D13*
X71120000Y-114300000D03*
D14*
X71120000Y-109300000D03*
D13*
X55245000Y-104775000D03*
D14*
X55245000Y-109775000D03*
D13*
X54610000Y-75565000D03*
D14*
X54610000Y-80565000D03*
D13*
X46990000Y-80645000D03*
D14*
X46990000Y-75645000D03*
D13*
X71120000Y-99695000D03*
D14*
X71120000Y-104695000D03*
D15*
X59055000Y-90805000D03*
X59055000Y-93345000D03*
X59055000Y-95885000D03*
X59055000Y-98425000D03*
X59055000Y-100965000D03*
X59055000Y-103505000D03*
X59055000Y-106045000D03*
X59055000Y-108585000D03*
X59055000Y-111125000D03*
X59055000Y-113665000D03*
X59055000Y-116205000D03*
X59055000Y-118745000D03*
X59055000Y-121285000D03*
X59055000Y-123825000D03*
X66675000Y-123825000D03*
X66675000Y-121285000D03*
X66675000Y-118745000D03*
X66675000Y-116205000D03*
X66675000Y-113665000D03*
X66675000Y-111125000D03*
X66675000Y-108585000D03*
X66675000Y-106045000D03*
X66675000Y-103505000D03*
X66675000Y-100965000D03*
X66675000Y-98425000D03*
X66675000Y-95885000D03*
X66675000Y-93345000D03*
X66675000Y-90805000D03*
D16*
X46355000Y-114300000D03*
D17*
X48895000Y-114300000D03*
X46355000Y-116840000D03*
X48895000Y-116840000D03*
X46355000Y-119380000D03*
X48895000Y-119380000D03*
D18*
X47625000Y-90805000D03*
D19*
X47625000Y-93345000D03*
X47625000Y-95885000D03*
X47625000Y-98425000D03*
X47625000Y-100965000D03*
X47625000Y-103505000D03*
D20*
X53975000Y-100965000D03*
X53975000Y-90805000D03*
X66675000Y-84455000D03*
X66675000Y-74295000D03*
X62865000Y-84455000D03*
X62865000Y-74295000D03*
X59055000Y-84455000D03*
X59055000Y-74295000D03*
X70485000Y-84455000D03*
X70485000Y-74295000D03*
D21*
X59690000Y-130810000D03*
X57150000Y-130810000D03*
X62230000Y-130810000D03*
D22*
X75565000Y-133350000D03*
X76835000Y-132080000D03*
X75565000Y-130810000D03*
X76835000Y-129540000D03*
X75565000Y-125730000D03*
X76835000Y-124460000D03*
X75565000Y-123190000D03*
X76835000Y-121920000D03*
X75565000Y-118110000D03*
X76835000Y-116840000D03*
X75565000Y-115570000D03*
X76835000Y-114300000D03*
X75565000Y-110490000D03*
X76835000Y-109220000D03*
X75565000Y-107950000D03*
X76835000Y-106680000D03*
X75565000Y-102870000D03*
X76835000Y-101600000D03*
X75565000Y-100330000D03*
X76835000Y-99060000D03*
X75565000Y-95250000D03*
X76835000Y-93980000D03*
X75565000Y-92710000D03*
X76835000Y-91440000D03*
X75565000Y-87630000D03*
X76835000Y-86360000D03*
X75565000Y-85090000D03*
X76835000Y-83820000D03*
X75565000Y-80010000D03*
X76835000Y-78740000D03*
X75565000Y-77470000D03*
X76835000Y-76200000D03*
D23*
X46990000Y-69850000D03*
D24*
X49530000Y-69850000D03*
D23*
X74930000Y-69850000D03*
D24*
X77470000Y-69850000D03*
D22*
X46990000Y-129540000D03*
X46990000Y-127540000D03*
X46990000Y-131540000D03*
D25*
X46990000Y-125440000D03*
X46990000Y-133640000D03*
D26*
X78740000Y-140970000D03*
X78740000Y-146050000D03*
X66040000Y-140970000D03*
X66040000Y-146050000D03*
D13*
X52070000Y-104775000D03*
D14*
X52070000Y-109775000D03*
D27*
X50546000Y-74549000D03*
X50038000Y-81534000D03*
X62611000Y-121412000D03*
X70485000Y-127254000D03*
X79883000Y-135001000D03*
X80010000Y-78740000D03*
X66675000Y-130810000D03*
X73787000Y-90932000D03*
X62611000Y-100711000D03*
X62230000Y-90170000D03*
X62992000Y-80772000D03*
X69342000Y-96266000D03*
X71247000Y-88138000D03*
X59690000Y-114300000D03*
X59690000Y-116840000D03*
X67310000Y-128270000D03*
X56515000Y-126365000D03*
X54737000Y-117475000D03*
X54102000Y-112903000D03*
X56388000Y-112395000D03*
X57277000Y-78232000D03*
X60071000Y-80899000D03*
X49276000Y-106299000D03*
X46355000Y-119380000D03*
X51816000Y-121793000D03*
X51054000Y-101981000D03*
D28*
X67310000Y-109347000D02*
X67310000Y-109220000D01*
D29*
X76835000Y-78740000D02*
X80010000Y-78740000D01*
X62484000Y-121285000D02*
X59055000Y-121285000D01*
X62611000Y-121412000D02*
X62484000Y-121285000D01*
X70485000Y-132588000D02*
X70485000Y-127254000D01*
X73406000Y-135509000D02*
X70485000Y-132588000D01*
X79375000Y-135509000D02*
X73406000Y-135509000D01*
X79883000Y-135001000D02*
X79375000Y-135509000D01*
X75565000Y-77470000D02*
X74422000Y-77470000D01*
X78359000Y-84836000D02*
X76835000Y-86360000D01*
X78359000Y-82931000D02*
X78359000Y-84836000D01*
X77343000Y-81915000D02*
X78359000Y-82931000D01*
X74549000Y-81915000D02*
X77343000Y-81915000D01*
X73787000Y-81153000D02*
X74549000Y-81915000D01*
X73787000Y-78105000D02*
X73787000Y-81153000D01*
X74422000Y-77470000D02*
X73787000Y-78105000D01*
D30*
X46990000Y-129540000D02*
X50419000Y-129540000D01*
X62103000Y-135763000D02*
X62230000Y-135890000D01*
X56642000Y-135763000D02*
X62103000Y-135763000D01*
X54610000Y-133731000D02*
X56642000Y-135763000D01*
X50419000Y-129540000D02*
X54610000Y-133731000D01*
D31*
X62230000Y-130810000D02*
X66675000Y-130810000D01*
D30*
X71120000Y-99695000D02*
X71120000Y-93599000D01*
X71120000Y-93599000D02*
X73787000Y-90932000D01*
D31*
X62230000Y-130810000D02*
X62230000Y-135890000D01*
X62230000Y-135890000D02*
X62230000Y-138430000D01*
X62230000Y-138430000D02*
X60960000Y-139700000D01*
D29*
X75565000Y-85090000D02*
X74930000Y-85090000D01*
X74930000Y-85090000D02*
X73787000Y-86233000D01*
X73787000Y-86233000D02*
X73787000Y-88900000D01*
X73787000Y-88900000D02*
X74422000Y-89535000D01*
X74422000Y-89535000D02*
X77597000Y-89535000D01*
X77597000Y-89535000D02*
X78359000Y-90297000D01*
X78359000Y-90297000D02*
X78359000Y-92456000D01*
X78359000Y-92456000D02*
X76835000Y-93980000D01*
X75565000Y-92710000D02*
X74422000Y-92710000D01*
X78359000Y-100076000D02*
X76835000Y-101600000D01*
X78359000Y-98044000D02*
X78359000Y-100076000D01*
X77343000Y-97028000D02*
X78359000Y-98044000D01*
X74676000Y-97028000D02*
X77343000Y-97028000D01*
X73787000Y-96139000D02*
X74676000Y-97028000D01*
X73787000Y-93345000D02*
X73787000Y-96139000D01*
X74422000Y-92710000D02*
X73787000Y-93345000D01*
X75565000Y-100330000D02*
X75057000Y-100330000D01*
X75057000Y-100330000D02*
X73787000Y-101600000D01*
X73787000Y-101600000D02*
X73787000Y-104394000D01*
X73787000Y-104394000D02*
X74295000Y-104902000D01*
X74295000Y-104902000D02*
X77470000Y-104902000D01*
X77470000Y-104902000D02*
X78359000Y-105791000D01*
X78359000Y-105791000D02*
X78359000Y-107696000D01*
X78359000Y-107696000D02*
X76835000Y-109220000D01*
X75565000Y-107950000D02*
X74422000Y-107950000D01*
X78359000Y-115316000D02*
X76835000Y-116840000D01*
X78359000Y-113284000D02*
X78359000Y-115316000D01*
X77470000Y-112395000D02*
X78359000Y-113284000D01*
X74803000Y-112395000D02*
X77470000Y-112395000D01*
X73787000Y-111379000D02*
X74803000Y-112395000D01*
X73787000Y-108585000D02*
X73787000Y-111379000D01*
X74422000Y-107950000D02*
X73787000Y-108585000D01*
X75565000Y-115570000D02*
X74422000Y-115570000D01*
X78359000Y-122936000D02*
X76835000Y-124460000D01*
X78359000Y-121285000D02*
X78359000Y-122936000D01*
X77089000Y-120015000D02*
X78359000Y-121285000D01*
X74930000Y-120015000D02*
X77089000Y-120015000D01*
X73787000Y-118872000D02*
X74930000Y-120015000D01*
X73787000Y-116205000D02*
X73787000Y-118872000D01*
X74422000Y-115570000D02*
X73787000Y-116205000D01*
X75565000Y-123190000D02*
X74549000Y-123190000D01*
X78359000Y-130556000D02*
X76835000Y-132080000D01*
X78359000Y-128778000D02*
X78359000Y-130556000D01*
X77216000Y-127635000D02*
X78359000Y-128778000D01*
X74930000Y-127635000D02*
X77216000Y-127635000D01*
X73787000Y-126492000D02*
X74930000Y-127635000D01*
X73787000Y-123952000D02*
X73787000Y-126492000D01*
X74549000Y-123190000D02*
X73787000Y-123952000D01*
D32*
X65405000Y-103505000D02*
X66675000Y-103505000D01*
X62611000Y-100711000D02*
X65405000Y-103505000D01*
X61214000Y-89154000D02*
X62230000Y-90170000D01*
X61214000Y-82550000D02*
X61214000Y-89154000D01*
X62992000Y-80772000D02*
X61214000Y-82550000D01*
X70485000Y-74295000D02*
X70485000Y-78232000D01*
X68326000Y-100965000D02*
X66675000Y-100965000D01*
X69342000Y-99949000D02*
X68326000Y-100965000D01*
X69342000Y-96266000D02*
X69342000Y-99949000D01*
X72390000Y-86995000D02*
X71247000Y-88138000D01*
X72390000Y-80137000D02*
X72390000Y-86995000D01*
X70485000Y-78232000D02*
X72390000Y-80137000D01*
D29*
X47625000Y-98425000D02*
X49530000Y-98425000D01*
X54610000Y-93345000D02*
X59055000Y-93345000D01*
X49530000Y-98425000D02*
X54610000Y-93345000D01*
X47625000Y-100965000D02*
X49403000Y-100965000D01*
X54483000Y-95885000D02*
X59055000Y-95885000D01*
X49403000Y-100965000D02*
X54483000Y-95885000D01*
D32*
X78740000Y-140970000D02*
X71374000Y-140970000D01*
X71374000Y-140970000D02*
X68707000Y-138303000D01*
D29*
X59055000Y-118745000D02*
X57658000Y-118745000D01*
X68707000Y-138303000D02*
X66040000Y-140970000D01*
X68707000Y-129667000D02*
X68707000Y-138303000D01*
X67310000Y-128270000D02*
X68707000Y-129667000D01*
X56261000Y-126111000D02*
X56515000Y-126365000D01*
X56261000Y-120142000D02*
X56261000Y-126111000D01*
X57658000Y-118745000D02*
X56261000Y-120142000D01*
D32*
X66675000Y-118745000D02*
X62611000Y-118745000D01*
X61341000Y-117475000D02*
X54737000Y-117475000D01*
X62611000Y-118745000D02*
X61341000Y-117475000D01*
X66675000Y-116205000D02*
X62865000Y-116205000D01*
X56134000Y-114935000D02*
X54102000Y-112903000D01*
X61595000Y-114935000D02*
X56134000Y-114935000D01*
X62865000Y-116205000D02*
X61595000Y-114935000D01*
X66675000Y-113665000D02*
X62611000Y-113665000D01*
X61341000Y-112395000D02*
X56388000Y-112395000D01*
X62611000Y-113665000D02*
X61341000Y-112395000D01*
D29*
X62865000Y-75311000D02*
X62865000Y-74295000D01*
X59944000Y-78232000D02*
X62865000Y-75311000D01*
X57277000Y-78232000D02*
X59944000Y-78232000D01*
X66675000Y-74295000D02*
X61849000Y-79121000D01*
X61849000Y-79121000D02*
X60071000Y-80899000D01*
X66230500Y-74295000D02*
X66675000Y-74295000D01*
D30*
X46990000Y-131540000D02*
X48609000Y-131540000D01*
X49784000Y-138176000D02*
X46990000Y-140970000D01*
X49784000Y-132715000D02*
X49784000Y-138176000D01*
X48609000Y-131540000D02*
X49784000Y-132715000D01*
D32*
X50800000Y-104775000D02*
X52070000Y-104775000D01*
X49276000Y-106299000D02*
X50800000Y-104775000D01*
X52070000Y-121539000D02*
X52070000Y-109775000D01*
X51816000Y-121793000D02*
X52070000Y-121539000D01*
X53721000Y-108331000D02*
X52277000Y-109775000D01*
X53721000Y-103505000D02*
X53721000Y-108331000D01*
X53340000Y-103124000D02*
X53721000Y-103505000D01*
X52197000Y-103124000D02*
X53340000Y-103124000D01*
X51054000Y-101981000D02*
X52197000Y-103124000D01*
X52277000Y-109775000D02*
X52070000Y-109775000D01*
D29*
X59055000Y-90805000D02*
X53975000Y-90805000D01*
G36*
X79883000Y-77804889D02*
X79824833Y-77804838D01*
X79481057Y-77946883D01*
X79449886Y-77978000D01*
X78031705Y-77978000D01*
X78020010Y-77949697D01*
X77627370Y-77556371D01*
X77419488Y-77470051D01*
X77625303Y-77385010D01*
X78018629Y-76992370D01*
X78231757Y-76479100D01*
X78232242Y-75923339D01*
X78020010Y-75409697D01*
X77627370Y-75016371D01*
X77114100Y-74803243D01*
X76558339Y-74802758D01*
X76044697Y-75014990D01*
X75651371Y-75407630D01*
X75438243Y-75920900D01*
X75438110Y-76072889D01*
X75288339Y-76072758D01*
X74774697Y-76284990D01*
X74381371Y-76677630D01*
X74363967Y-76719544D01*
X74130395Y-76766004D01*
X74031377Y-76832166D01*
X73883185Y-76931184D01*
X73248185Y-77566185D01*
X73083004Y-77813395D01*
X73025000Y-78105000D01*
X73025000Y-79745667D01*
X72927401Y-79599599D01*
X71245000Y-77917198D01*
X71245000Y-75749496D01*
X71409655Y-75681462D01*
X71869846Y-75222073D01*
X72119206Y-74621547D01*
X72119774Y-73971306D01*
X71871462Y-73370345D01*
X71412073Y-72910154D01*
X70811547Y-72660794D01*
X70161306Y-72660226D01*
X69560345Y-72908538D01*
X69100154Y-73367927D01*
X68850794Y-73968453D01*
X68850226Y-74618694D01*
X69098538Y-75219655D01*
X69557927Y-75679846D01*
X69725000Y-75749221D01*
X69725000Y-78232000D01*
X69782852Y-78522839D01*
X69947599Y-78769401D01*
X71630000Y-80451802D01*
X71630000Y-83246716D01*
X71571838Y-83188554D01*
X71457556Y-83302836D01*
X71358958Y-83036035D01*
X70749418Y-82809599D01*
X70099623Y-82833659D01*
X69611042Y-83036035D01*
X69512443Y-83302837D01*
X70485000Y-84275395D01*
X70499142Y-84261252D01*
X70678748Y-84440858D01*
X70664605Y-84455000D01*
X70678748Y-84469142D01*
X70499142Y-84648748D01*
X70485000Y-84634605D01*
X69512443Y-85607163D01*
X69611042Y-85873965D01*
X70220582Y-86100401D01*
X70870377Y-86076341D01*
X71358958Y-85873965D01*
X71457556Y-85607164D01*
X71571838Y-85721446D01*
X71630000Y-85663284D01*
X71630000Y-86680198D01*
X71107320Y-87202878D01*
X71061833Y-87202838D01*
X70718057Y-87344883D01*
X70454808Y-87607673D01*
X70312162Y-87951201D01*
X70311838Y-88323167D01*
X70453883Y-88666943D01*
X70716673Y-88930192D01*
X71060201Y-89072838D01*
X71432167Y-89073162D01*
X71775943Y-88931117D01*
X72039192Y-88668327D01*
X72181838Y-88324799D01*
X72181879Y-88277923D01*
X72927401Y-87532401D01*
X73025000Y-87386333D01*
X73025000Y-88900000D01*
X73083004Y-89191605D01*
X73185479Y-89344969D01*
X73248185Y-89438815D01*
X73789333Y-89979964D01*
X73787000Y-89979500D01*
X73699409Y-89996923D01*
X73601833Y-89996838D01*
X73510856Y-90034429D01*
X73422495Y-90052005D01*
X73348240Y-90101620D01*
X73258057Y-90138883D01*
X73188392Y-90208426D01*
X73113481Y-90258480D01*
X70446481Y-92925481D01*
X70240005Y-93234494D01*
X70167500Y-93599000D01*
X70167500Y-95815430D01*
X70135117Y-95737057D01*
X69872327Y-95473808D01*
X69528799Y-95331162D01*
X69156833Y-95330838D01*
X68813057Y-95472883D01*
X68549808Y-95735673D01*
X68492648Y-95873328D01*
X68385737Y-95335849D01*
X68074668Y-94870302D01*
X67692582Y-94615000D01*
X68074668Y-94359698D01*
X68385737Y-93894151D01*
X68494970Y-93345000D01*
X68385737Y-92795849D01*
X68074668Y-92330302D01*
X67692582Y-92075000D01*
X68074668Y-91819698D01*
X68385737Y-91354151D01*
X68494970Y-90805000D01*
X68385737Y-90255849D01*
X68074668Y-89790302D01*
X67609121Y-89479233D01*
X67059970Y-89370000D01*
X66290030Y-89370000D01*
X65740879Y-89479233D01*
X65275332Y-89790302D01*
X64964263Y-90255849D01*
X64855030Y-90805000D01*
X64964263Y-91354151D01*
X65275332Y-91819698D01*
X65657418Y-92075000D01*
X65275332Y-92330302D01*
X64964263Y-92795849D01*
X64855030Y-93345000D01*
X64964263Y-93894151D01*
X65275332Y-94359698D01*
X65657418Y-94615000D01*
X65275332Y-94870302D01*
X64964263Y-95335849D01*
X64855030Y-95885000D01*
X64964263Y-96434151D01*
X65275332Y-96899698D01*
X65657418Y-97155000D01*
X65275332Y-97410302D01*
X64964263Y-97875849D01*
X64855030Y-98425000D01*
X64964263Y-98974151D01*
X65275332Y-99439698D01*
X65657418Y-99695000D01*
X65275332Y-99950302D01*
X64964263Y-100415849D01*
X64855030Y-100965000D01*
X64964263Y-101514151D01*
X65275332Y-101979698D01*
X65657418Y-102235000D01*
X65389092Y-102414290D01*
X63546122Y-100571320D01*
X63546162Y-100525833D01*
X63404117Y-100182057D01*
X63141327Y-99918808D01*
X62797799Y-99776162D01*
X62425833Y-99775838D01*
X62082057Y-99917883D01*
X61818808Y-100180673D01*
X61676162Y-100524201D01*
X61675838Y-100896167D01*
X61817883Y-101239943D01*
X62080673Y-101503192D01*
X62424201Y-101645838D01*
X62471077Y-101645879D01*
X64867599Y-104042401D01*
X65028045Y-104149607D01*
X65275332Y-104519698D01*
X65657418Y-104775000D01*
X65275332Y-105030302D01*
X64964263Y-105495849D01*
X64855030Y-106045000D01*
X64964263Y-106594151D01*
X65275332Y-107059698D01*
X65653151Y-107312149D01*
X65220500Y-107660104D01*
X64950633Y-108153181D01*
X64933096Y-108235961D01*
X65055085Y-108458000D01*
X66548000Y-108458000D01*
X66548000Y-108438000D01*
X66802000Y-108438000D01*
X66802000Y-108458000D01*
X68294915Y-108458000D01*
X68416904Y-108235961D01*
X68399367Y-108153181D01*
X68129500Y-107660104D01*
X67696849Y-107312149D01*
X68074668Y-107059698D01*
X68385737Y-106594151D01*
X68494970Y-106045000D01*
X68385737Y-105495849D01*
X68074668Y-105030302D01*
X67953711Y-104949481D01*
X69834777Y-104949481D01*
X70029995Y-105421943D01*
X70391155Y-105783735D01*
X70863276Y-105979777D01*
X71374481Y-105980223D01*
X71846943Y-105785005D01*
X72208735Y-105423845D01*
X72404777Y-104951724D01*
X72405223Y-104440519D01*
X72210005Y-103968057D01*
X71848845Y-103606265D01*
X71376724Y-103410223D01*
X70865519Y-103409777D01*
X70393057Y-103604995D01*
X70031265Y-103966155D01*
X69835223Y-104438276D01*
X69834777Y-104949481D01*
X67953711Y-104949481D01*
X67692582Y-104775000D01*
X68074668Y-104519698D01*
X68385737Y-104054151D01*
X68494970Y-103505000D01*
X68385737Y-102955849D01*
X68074668Y-102490302D01*
X67692582Y-102235000D01*
X68074668Y-101979698D01*
X68244852Y-101725000D01*
X68326000Y-101725000D01*
X68616839Y-101667148D01*
X68863401Y-101502401D01*
X69853955Y-100511847D01*
X69866838Y-100580317D01*
X70005910Y-100796441D01*
X70218110Y-100941431D01*
X70470000Y-100992440D01*
X71770000Y-100992440D01*
X72005317Y-100948162D01*
X72221441Y-100809090D01*
X72366431Y-100596890D01*
X72417440Y-100345000D01*
X72417440Y-99045000D01*
X72373162Y-98809683D01*
X72234090Y-98593559D01*
X72072500Y-98483149D01*
X72072500Y-93993538D01*
X73224688Y-92841350D01*
X73083004Y-93053395D01*
X73025000Y-93345000D01*
X73025000Y-96139000D01*
X73083004Y-96430605D01*
X73188838Y-96588996D01*
X73248185Y-96677815D01*
X74137185Y-97566815D01*
X74384395Y-97731996D01*
X74676000Y-97790000D01*
X76250389Y-97790000D01*
X76044697Y-97874990D01*
X75651371Y-98267630D01*
X75438243Y-98780900D01*
X75438110Y-98932889D01*
X75288339Y-98932758D01*
X74774697Y-99144990D01*
X74381371Y-99537630D01*
X74168243Y-100050900D01*
X74168164Y-100141205D01*
X73248185Y-101061185D01*
X73083004Y-101308395D01*
X73025000Y-101600000D01*
X73025000Y-104394000D01*
X73083004Y-104685605D01*
X73219260Y-104889526D01*
X73248185Y-104932815D01*
X73756184Y-105440815D01*
X73854950Y-105506808D01*
X74003395Y-105605996D01*
X74295000Y-105664000D01*
X75875392Y-105664000D01*
X75651371Y-105887630D01*
X75438243Y-106400900D01*
X75438110Y-106552889D01*
X75288339Y-106552758D01*
X74774697Y-106764990D01*
X74381371Y-107157630D01*
X74363967Y-107199544D01*
X74130395Y-107246004D01*
X74037860Y-107307834D01*
X73883185Y-107411184D01*
X73248185Y-108046185D01*
X73083004Y-108293395D01*
X73025000Y-108585000D01*
X73025000Y-111379000D01*
X73083004Y-111670605D01*
X73207005Y-111856185D01*
X73248185Y-111917815D01*
X74264185Y-112933815D01*
X74511395Y-113098996D01*
X74803000Y-113157000D01*
X76002614Y-113157000D01*
X75651371Y-113507630D01*
X75438243Y-114020900D01*
X75438110Y-114172889D01*
X75288339Y-114172758D01*
X74774697Y-114384990D01*
X74381371Y-114777630D01*
X74363967Y-114819544D01*
X74130395Y-114866004D01*
X74031377Y-114932166D01*
X73883185Y-115031184D01*
X73248185Y-115666185D01*
X73083004Y-115913395D01*
X73025000Y-116205000D01*
X73025000Y-118872000D01*
X73083004Y-119163605D01*
X73181493Y-119311004D01*
X73248185Y-119410815D01*
X74391185Y-120553815D01*
X74638395Y-120718996D01*
X74930000Y-120777000D01*
X76002614Y-120777000D01*
X75651371Y-121127630D01*
X75438243Y-121640900D01*
X75438110Y-121792889D01*
X75288339Y-121792758D01*
X74774697Y-122004990D01*
X74381371Y-122397630D01*
X74352533Y-122467080D01*
X74257395Y-122486004D01*
X74158377Y-122552166D01*
X74010185Y-122651184D01*
X73248185Y-123413185D01*
X73083004Y-123660395D01*
X73025000Y-123952000D01*
X73025000Y-126492000D01*
X73083004Y-126783605D01*
X73181493Y-126931004D01*
X73248185Y-127030815D01*
X74391185Y-128173815D01*
X74638395Y-128338996D01*
X74930000Y-128397000D01*
X76002614Y-128397000D01*
X75651371Y-128747630D01*
X75438243Y-129260900D01*
X75438110Y-129412889D01*
X75288339Y-129412758D01*
X74774697Y-129624990D01*
X74381371Y-130017630D01*
X74168243Y-130530900D01*
X74167758Y-131086661D01*
X74379990Y-131600303D01*
X74772630Y-131993629D01*
X74980512Y-132079949D01*
X74774697Y-132164990D01*
X74381371Y-132557630D01*
X74168243Y-133070900D01*
X74167758Y-133626661D01*
X74379990Y-134140303D01*
X74772630Y-134533629D01*
X75285900Y-134746757D01*
X75564353Y-134747000D01*
X73721630Y-134747000D01*
X71247000Y-132272370D01*
X71247000Y-127814466D01*
X71277192Y-127784327D01*
X71419838Y-127440799D01*
X71420162Y-127068833D01*
X71278117Y-126725057D01*
X71015327Y-126461808D01*
X70671799Y-126319162D01*
X70299833Y-126318838D01*
X69956057Y-126460883D01*
X69692808Y-126723673D01*
X69550162Y-127067201D01*
X69549838Y-127439167D01*
X69691883Y-127782943D01*
X69723000Y-127814114D01*
X69723000Y-132588000D01*
X69781004Y-132879605D01*
X69914574Y-133079506D01*
X69946185Y-133126815D01*
X72867185Y-136047815D01*
X73114395Y-136212996D01*
X73406000Y-136271000D01*
X79375000Y-136271000D01*
X79666605Y-136212996D01*
X79883000Y-136068405D01*
X79883000Y-139558982D01*
X79442697Y-139471400D01*
X78037303Y-139471400D01*
X77463814Y-139585474D01*
X76977633Y-139910330D01*
X76777400Y-140210000D01*
X71688802Y-140210000D01*
X69469000Y-137990198D01*
X69469000Y-129667000D01*
X69410996Y-129375395D01*
X69356757Y-129294221D01*
X69245815Y-129128184D01*
X68245125Y-128127495D01*
X68245162Y-128084833D01*
X68103117Y-127741057D01*
X67840327Y-127477808D01*
X67496799Y-127335162D01*
X67124833Y-127334838D01*
X66781057Y-127476883D01*
X66517808Y-127739673D01*
X66375162Y-128083201D01*
X66374838Y-128455167D01*
X66516883Y-128798943D01*
X66779673Y-129062192D01*
X67123201Y-129204838D01*
X67167246Y-129204876D01*
X67945000Y-129982631D01*
X67945000Y-137987369D01*
X66460970Y-139471400D01*
X65337303Y-139471400D01*
X64763814Y-139585474D01*
X64277633Y-139910330D01*
X63952777Y-140396511D01*
X63838703Y-140970000D01*
X63952777Y-141543489D01*
X64277633Y-142029670D01*
X64763814Y-142354526D01*
X65337303Y-142468600D01*
X66742697Y-142468600D01*
X67316186Y-142354526D01*
X67802367Y-142029670D01*
X68127223Y-141543489D01*
X68241297Y-140970000D01*
X68127223Y-140396511D01*
X67952544Y-140135086D01*
X68708414Y-139379216D01*
X70836599Y-141507401D01*
X71083161Y-141672148D01*
X71374000Y-141730000D01*
X76777400Y-141730000D01*
X76977633Y-142029670D01*
X77463814Y-142354526D01*
X78037303Y-142468600D01*
X79442697Y-142468600D01*
X79883000Y-142381018D01*
X79883000Y-144638982D01*
X79442697Y-144551400D01*
X78037303Y-144551400D01*
X77463814Y-144665474D01*
X76977633Y-144990330D01*
X76652777Y-145476511D01*
X76538703Y-146050000D01*
X76652777Y-146623489D01*
X76977633Y-147109670D01*
X77463814Y-147434526D01*
X78037303Y-147548600D01*
X79442697Y-147548600D01*
X79883000Y-147461018D01*
X79883000Y-148463000D01*
X44577000Y-148463000D01*
X44577000Y-146427265D01*
X45084670Y-146427265D01*
X45374078Y-147127686D01*
X45909495Y-147664039D01*
X46609410Y-147954668D01*
X47367265Y-147955330D01*
X48067686Y-147665922D01*
X48604039Y-147130505D01*
X48894668Y-146430590D01*
X48895000Y-146050000D01*
X63838703Y-146050000D01*
X63952777Y-146623489D01*
X64277633Y-147109670D01*
X64763814Y-147434526D01*
X65337303Y-147548600D01*
X66742697Y-147548600D01*
X67316186Y-147434526D01*
X67802367Y-147109670D01*
X68127223Y-146623489D01*
X68241297Y-146050000D01*
X68127223Y-145476511D01*
X67802367Y-144990330D01*
X67316186Y-144665474D01*
X66742697Y-144551400D01*
X65337303Y-144551400D01*
X64763814Y-144665474D01*
X64277633Y-144990330D01*
X63952777Y-145476511D01*
X63838703Y-146050000D01*
X48895000Y-146050000D01*
X48895330Y-145672735D01*
X48605922Y-144972314D01*
X48588121Y-144954481D01*
X54594777Y-144954481D01*
X54789995Y-145426943D01*
X55151155Y-145788735D01*
X55623276Y-145984777D01*
X56134481Y-145985223D01*
X56606943Y-145790005D01*
X56968735Y-145428845D01*
X57164777Y-144956724D01*
X57164778Y-144954481D01*
X59674777Y-144954481D01*
X59869995Y-145426943D01*
X60231155Y-145788735D01*
X60703276Y-145984777D01*
X61214481Y-145985223D01*
X61686943Y-145790005D01*
X62048735Y-145428845D01*
X62244777Y-144956724D01*
X62245223Y-144445519D01*
X62050005Y-143973057D01*
X61688845Y-143611265D01*
X61216724Y-143415223D01*
X60705519Y-143414777D01*
X60233057Y-143609995D01*
X59871265Y-143971155D01*
X59675223Y-144443276D01*
X59674777Y-144954481D01*
X57164778Y-144954481D01*
X57165223Y-144445519D01*
X56970005Y-143973057D01*
X56608845Y-143611265D01*
X56136724Y-143415223D01*
X55625519Y-143414777D01*
X55153057Y-143609995D01*
X54791265Y-143971155D01*
X54595223Y-144443276D01*
X54594777Y-144954481D01*
X48588121Y-144954481D01*
X48070505Y-144435961D01*
X47370590Y-144145332D01*
X46612735Y-144144670D01*
X45912314Y-144434078D01*
X45375961Y-144969495D01*
X45085332Y-145669410D01*
X45084670Y-146427265D01*
X44577000Y-146427265D01*
X44577000Y-139700000D01*
X45072560Y-139700000D01*
X45072560Y-142240000D01*
X45116838Y-142475317D01*
X45255910Y-142691441D01*
X45468110Y-142836431D01*
X45720000Y-142887440D01*
X48260000Y-142887440D01*
X48495317Y-142843162D01*
X48711441Y-142704090D01*
X48856431Y-142491890D01*
X48907440Y-142240000D01*
X48907440Y-140399598D01*
X49321288Y-139985750D01*
X54595000Y-139985750D01*
X54595000Y-140476309D01*
X54691673Y-140709698D01*
X54870301Y-140888327D01*
X55103690Y-140985000D01*
X55594250Y-140985000D01*
X55753000Y-140826250D01*
X55753000Y-139827000D01*
X56007000Y-139827000D01*
X56007000Y-140826250D01*
X56165750Y-140985000D01*
X56656310Y-140985000D01*
X56889699Y-140888327D01*
X57068327Y-140709698D01*
X57165000Y-140476309D01*
X57165000Y-139985750D01*
X57006250Y-139827000D01*
X56007000Y-139827000D01*
X55753000Y-139827000D01*
X54753750Y-139827000D01*
X54595000Y-139985750D01*
X49321288Y-139985750D01*
X50383347Y-138923691D01*
X54595000Y-138923691D01*
X54595000Y-139414250D01*
X54753750Y-139573000D01*
X55753000Y-139573000D01*
X55753000Y-138573750D01*
X56007000Y-138573750D01*
X56007000Y-139573000D01*
X57006250Y-139573000D01*
X57165000Y-139414250D01*
X57165000Y-138923691D01*
X57068327Y-138690302D01*
X56889699Y-138511673D01*
X56656310Y-138415000D01*
X56165750Y-138415000D01*
X56007000Y-138573750D01*
X55753000Y-138573750D01*
X55594250Y-138415000D01*
X55103690Y-138415000D01*
X54870301Y-138511673D01*
X54691673Y-138690302D01*
X54595000Y-138923691D01*
X50383347Y-138923691D01*
X50457519Y-138849519D01*
X50663995Y-138540506D01*
X50736500Y-138176000D01*
X50736500Y-132715000D01*
X50663995Y-132350494D01*
X50457519Y-132041481D01*
X49282519Y-130866481D01*
X48973506Y-130660005D01*
X48609000Y-130587500D01*
X48013096Y-130587500D01*
X47965658Y-130539979D01*
X48013219Y-130492500D01*
X50024462Y-130492500D01*
X55968481Y-136436519D01*
X56277494Y-136642995D01*
X56642000Y-136715500D01*
X61087000Y-136715500D01*
X61087000Y-137956554D01*
X60640994Y-138402560D01*
X60310000Y-138402560D01*
X60074683Y-138446838D01*
X59858559Y-138585910D01*
X59713569Y-138798110D01*
X59662560Y-139050000D01*
X59662560Y-140350000D01*
X59706838Y-140585317D01*
X59845910Y-140801441D01*
X60058110Y-140946431D01*
X60310000Y-140997440D01*
X61610000Y-140997440D01*
X61845317Y-140953162D01*
X62061441Y-140814090D01*
X62206431Y-140601890D01*
X62257440Y-140350000D01*
X62257440Y-140019006D01*
X63038223Y-139238223D01*
X63285994Y-138867407D01*
X63373000Y-138430000D01*
X63373000Y-132081452D01*
X63458829Y-131953000D01*
X66675000Y-131953000D01*
X67112407Y-131865994D01*
X67483223Y-131618223D01*
X67730994Y-131247407D01*
X67818000Y-130810000D01*
X67730994Y-130372593D01*
X67483223Y-130001777D01*
X67112407Y-129754006D01*
X66675000Y-129667000D01*
X63458829Y-129667000D01*
X63209746Y-129294221D01*
X62760235Y-128993867D01*
X62230000Y-128888397D01*
X61699765Y-128993867D01*
X61250254Y-129294221D01*
X60949900Y-129743732D01*
X60948050Y-129753032D01*
X60921499Y-129663323D01*
X60579944Y-129241342D01*
X60102903Y-128982190D01*
X60031275Y-128968007D01*
X59817000Y-129090661D01*
X59817000Y-130683000D01*
X59837000Y-130683000D01*
X59837000Y-130937000D01*
X59817000Y-130937000D01*
X59817000Y-132529339D01*
X60031275Y-132651993D01*
X60102903Y-132637810D01*
X60579944Y-132378658D01*
X60921499Y-131956677D01*
X60948050Y-131866968D01*
X60949900Y-131876268D01*
X61087000Y-132081452D01*
X61087000Y-134810500D01*
X57036538Y-134810500D01*
X52500005Y-130273967D01*
X55764430Y-130273967D01*
X55764430Y-131346033D01*
X55869900Y-131876268D01*
X56170254Y-132325779D01*
X56619765Y-132626133D01*
X57150000Y-132731603D01*
X57680235Y-132626133D01*
X58129746Y-132325779D01*
X58430100Y-131876268D01*
X58431950Y-131866968D01*
X58458501Y-131956677D01*
X58800056Y-132378658D01*
X59277097Y-132637810D01*
X59348725Y-132651993D01*
X59563000Y-132529339D01*
X59563000Y-130937000D01*
X59543000Y-130937000D01*
X59543000Y-130683000D01*
X59563000Y-130683000D01*
X59563000Y-129090661D01*
X59348725Y-128968007D01*
X59277097Y-128982190D01*
X58800056Y-129241342D01*
X58458501Y-129663323D01*
X58431950Y-129753032D01*
X58430100Y-129743732D01*
X58129746Y-129294221D01*
X57680235Y-128993867D01*
X57150000Y-128888397D01*
X56619765Y-128993867D01*
X56170254Y-129294221D01*
X55869900Y-129743732D01*
X55764430Y-130273967D01*
X52500005Y-130273967D01*
X51092519Y-128866481D01*
X50783506Y-128660005D01*
X50419000Y-128587500D01*
X48013096Y-128587500D01*
X47965658Y-128539979D01*
X48173629Y-128332370D01*
X48386757Y-127819100D01*
X48387242Y-127263339D01*
X48175010Y-126749697D01*
X48050244Y-126624713D01*
X48335032Y-126340421D01*
X48577224Y-125757159D01*
X48577775Y-125125612D01*
X48336602Y-124541928D01*
X47890421Y-124094968D01*
X47307159Y-123852776D01*
X46675612Y-123852225D01*
X46091928Y-124093398D01*
X45644968Y-124539579D01*
X45402776Y-125122841D01*
X45402225Y-125754388D01*
X45643398Y-126338072D01*
X45929521Y-126624695D01*
X45806371Y-126747630D01*
X45593243Y-127260900D01*
X45592758Y-127816661D01*
X45804990Y-128330303D01*
X46014342Y-128540021D01*
X45806371Y-128747630D01*
X45593243Y-129260900D01*
X45592758Y-129816661D01*
X45804990Y-130330303D01*
X46014342Y-130540021D01*
X45806371Y-130747630D01*
X45593243Y-131260900D01*
X45592758Y-131816661D01*
X45804990Y-132330303D01*
X45929756Y-132455287D01*
X45644968Y-132739579D01*
X45402776Y-133322841D01*
X45402225Y-133954388D01*
X45643398Y-134538072D01*
X46089579Y-134985032D01*
X46672841Y-135227224D01*
X47304388Y-135227775D01*
X47888072Y-134986602D01*
X48335032Y-134540421D01*
X48577224Y-133957159D01*
X48577775Y-133325612D01*
X48336602Y-132741928D01*
X48087609Y-132492500D01*
X48214462Y-132492500D01*
X48831500Y-133109538D01*
X48831500Y-137781462D01*
X47560402Y-139052560D01*
X45720000Y-139052560D01*
X45484683Y-139096838D01*
X45268559Y-139235910D01*
X45123569Y-139448110D01*
X45072560Y-139700000D01*
X44577000Y-139700000D01*
X44577000Y-116840000D01*
X44827041Y-116840000D01*
X44941115Y-117413489D01*
X45265971Y-117899670D01*
X45580752Y-118110000D01*
X45265971Y-118320330D01*
X44941115Y-118806511D01*
X44827041Y-119380000D01*
X44941115Y-119953489D01*
X45265971Y-120439670D01*
X45752152Y-120764526D01*
X46325641Y-120878600D01*
X46384359Y-120878600D01*
X46957848Y-120764526D01*
X47444029Y-120439670D01*
X47625000Y-120168828D01*
X47805971Y-120439670D01*
X48292152Y-120764526D01*
X48865641Y-120878600D01*
X48924359Y-120878600D01*
X49497848Y-120764526D01*
X49984029Y-120439670D01*
X50308885Y-119953489D01*
X50422959Y-119380000D01*
X50308885Y-118806511D01*
X49984029Y-118320330D01*
X49669248Y-118110000D01*
X49984029Y-117899670D01*
X50308885Y-117413489D01*
X50422959Y-116840000D01*
X50308885Y-116266511D01*
X49984029Y-115780330D01*
X49660772Y-115564336D01*
X49783490Y-115506821D01*
X50177688Y-115074947D01*
X50349958Y-114659026D01*
X50228817Y-114427000D01*
X49022000Y-114427000D01*
X49022000Y-114447000D01*
X48768000Y-114447000D01*
X48768000Y-114427000D01*
X48748000Y-114427000D01*
X48748000Y-114173000D01*
X48768000Y-114173000D01*
X48768000Y-112965531D01*
X49022000Y-112965531D01*
X49022000Y-114173000D01*
X50228817Y-114173000D01*
X50349958Y-113940974D01*
X50177688Y-113525053D01*
X49783490Y-113093179D01*
X49254027Y-112845032D01*
X49022000Y-112965531D01*
X48768000Y-112965531D01*
X48535973Y-112845032D01*
X48006510Y-113093179D01*
X47836505Y-113279433D01*
X47821762Y-113201083D01*
X47682690Y-112984959D01*
X47470490Y-112839969D01*
X47218600Y-112788960D01*
X45491400Y-112788960D01*
X45256083Y-112833238D01*
X45039959Y-112972310D01*
X44894969Y-113184510D01*
X44843960Y-113436400D01*
X44843960Y-115163600D01*
X44888238Y-115398917D01*
X45027310Y-115615041D01*
X45239510Y-115760031D01*
X45283131Y-115768864D01*
X45265971Y-115780330D01*
X44941115Y-116266511D01*
X44827041Y-116840000D01*
X44577000Y-116840000D01*
X44577000Y-106484167D01*
X48340838Y-106484167D01*
X48482883Y-106827943D01*
X48745673Y-107091192D01*
X49089201Y-107233838D01*
X49461167Y-107234162D01*
X49804943Y-107092117D01*
X50068192Y-106829327D01*
X50210838Y-106485799D01*
X50210879Y-106438923D01*
X50884436Y-105765366D01*
X50955910Y-105876441D01*
X51168110Y-106021431D01*
X51420000Y-106072440D01*
X52720000Y-106072440D01*
X52955317Y-106028162D01*
X52961000Y-106024505D01*
X52961000Y-108016198D01*
X52439957Y-108537241D01*
X52326724Y-108490223D01*
X51815519Y-108489777D01*
X51343057Y-108684995D01*
X50981265Y-109046155D01*
X50785223Y-109518276D01*
X50784777Y-110029481D01*
X50979995Y-110501943D01*
X51310000Y-110832525D01*
X51310000Y-120990403D01*
X51287057Y-120999883D01*
X51023808Y-121262673D01*
X50881162Y-121606201D01*
X50880838Y-121978167D01*
X51022883Y-122321943D01*
X51285673Y-122585192D01*
X51629201Y-122727838D01*
X52001167Y-122728162D01*
X52344943Y-122586117D01*
X52608192Y-122323327D01*
X52750838Y-121979799D01*
X52750941Y-121861579D01*
X52772148Y-121829840D01*
X52830000Y-121539000D01*
X52830000Y-113088167D01*
X53166838Y-113088167D01*
X53308883Y-113431943D01*
X53571673Y-113695192D01*
X53915201Y-113837838D01*
X53962077Y-113837879D01*
X55596599Y-115472401D01*
X55843161Y-115637148D01*
X56134000Y-115695000D01*
X57336475Y-115695000D01*
X57235030Y-116205000D01*
X57336475Y-116715000D01*
X55299463Y-116715000D01*
X55267327Y-116682808D01*
X54923799Y-116540162D01*
X54551833Y-116539838D01*
X54208057Y-116681883D01*
X53944808Y-116944673D01*
X53802162Y-117288201D01*
X53801838Y-117660167D01*
X53943883Y-118003943D01*
X54206673Y-118267192D01*
X54550201Y-118409838D01*
X54922167Y-118410162D01*
X55265943Y-118268117D01*
X55299118Y-118235000D01*
X57090369Y-118235000D01*
X55722185Y-119603185D01*
X55557004Y-119850395D01*
X55499000Y-120142000D01*
X55499000Y-126111000D01*
X55557004Y-126402605D01*
X55579937Y-126436926D01*
X55579838Y-126550167D01*
X55721883Y-126893943D01*
X55984673Y-127157192D01*
X56328201Y-127299838D01*
X56700167Y-127300162D01*
X57043943Y-127158117D01*
X57307192Y-126895327D01*
X57449838Y-126551799D01*
X57450162Y-126179833D01*
X57308117Y-125836057D01*
X57045327Y-125572808D01*
X57023000Y-125563537D01*
X57023000Y-120457630D01*
X57694657Y-119785974D01*
X58037418Y-120015000D01*
X57655332Y-120270302D01*
X57344263Y-120735849D01*
X57235030Y-121285000D01*
X57344263Y-121834151D01*
X57655332Y-122299698D01*
X58037418Y-122555000D01*
X57655332Y-122810302D01*
X57344263Y-123275849D01*
X57235030Y-123825000D01*
X57344263Y-124374151D01*
X57655332Y-124839698D01*
X58120879Y-125150767D01*
X58670030Y-125260000D01*
X59439970Y-125260000D01*
X59989121Y-125150767D01*
X60454668Y-124839698D01*
X60765737Y-124374151D01*
X60874970Y-123825000D01*
X60765737Y-123275849D01*
X60454668Y-122810302D01*
X60072582Y-122555000D01*
X60454668Y-122299698D01*
X60623516Y-122047000D01*
X61923755Y-122047000D01*
X62080673Y-122204192D01*
X62424201Y-122346838D01*
X62796167Y-122347162D01*
X63139943Y-122205117D01*
X63403192Y-121942327D01*
X63545838Y-121598799D01*
X63546162Y-121226833D01*
X63404117Y-120883057D01*
X63141327Y-120619808D01*
X62797799Y-120477162D01*
X62425833Y-120476838D01*
X62314112Y-120523000D01*
X60623516Y-120523000D01*
X60454668Y-120270302D01*
X60072582Y-120015000D01*
X60454668Y-119759698D01*
X60765737Y-119294151D01*
X60874970Y-118745000D01*
X60773525Y-118235000D01*
X61026198Y-118235000D01*
X62073599Y-119282401D01*
X62320160Y-119447148D01*
X62611000Y-119505000D01*
X65105148Y-119505000D01*
X65275332Y-119759698D01*
X65657418Y-120015000D01*
X65275332Y-120270302D01*
X64964263Y-120735849D01*
X64855030Y-121285000D01*
X64964263Y-121834151D01*
X65275332Y-122299698D01*
X65657418Y-122555000D01*
X65275332Y-122810302D01*
X64964263Y-123275849D01*
X64855030Y-123825000D01*
X64964263Y-124374151D01*
X65275332Y-124839698D01*
X65740879Y-125150767D01*
X66290030Y-125260000D01*
X67059970Y-125260000D01*
X67609121Y-125150767D01*
X68074668Y-124839698D01*
X68385737Y-124374151D01*
X68494970Y-123825000D01*
X68385737Y-123275849D01*
X68074668Y-122810302D01*
X67692582Y-122555000D01*
X68074668Y-122299698D01*
X68385737Y-121834151D01*
X68494970Y-121285000D01*
X68385737Y-120735849D01*
X68074668Y-120270302D01*
X67692582Y-120015000D01*
X68074668Y-119759698D01*
X68385737Y-119294151D01*
X68494970Y-118745000D01*
X68385737Y-118195849D01*
X68074668Y-117730302D01*
X67692582Y-117475000D01*
X68074668Y-117219698D01*
X68385737Y-116754151D01*
X68494970Y-116205000D01*
X68385737Y-115655849D01*
X68074668Y-115190302D01*
X67692582Y-114935000D01*
X68074668Y-114679698D01*
X68137442Y-114585750D01*
X69835000Y-114585750D01*
X69835000Y-115076309D01*
X69931673Y-115309698D01*
X70110301Y-115488327D01*
X70343690Y-115585000D01*
X70834250Y-115585000D01*
X70993000Y-115426250D01*
X70993000Y-114427000D01*
X71247000Y-114427000D01*
X71247000Y-115426250D01*
X71405750Y-115585000D01*
X71896310Y-115585000D01*
X72129699Y-115488327D01*
X72308327Y-115309698D01*
X72405000Y-115076309D01*
X72405000Y-114585750D01*
X72246250Y-114427000D01*
X71247000Y-114427000D01*
X70993000Y-114427000D01*
X69993750Y-114427000D01*
X69835000Y-114585750D01*
X68137442Y-114585750D01*
X68385737Y-114214151D01*
X68494970Y-113665000D01*
X68466862Y-113523691D01*
X69835000Y-113523691D01*
X69835000Y-114014250D01*
X69993750Y-114173000D01*
X70993000Y-114173000D01*
X70993000Y-113173750D01*
X71247000Y-113173750D01*
X71247000Y-114173000D01*
X72246250Y-114173000D01*
X72405000Y-114014250D01*
X72405000Y-113523691D01*
X72308327Y-113290302D01*
X72129699Y-113111673D01*
X71896310Y-113015000D01*
X71405750Y-113015000D01*
X71247000Y-113173750D01*
X70993000Y-113173750D01*
X70834250Y-113015000D01*
X70343690Y-113015000D01*
X70110301Y-113111673D01*
X69931673Y-113290302D01*
X69835000Y-113523691D01*
X68466862Y-113523691D01*
X68385737Y-113115849D01*
X68074668Y-112650302D01*
X67696849Y-112397851D01*
X68129500Y-112049896D01*
X68399367Y-111556819D01*
X68416904Y-111474039D01*
X68294915Y-111252000D01*
X66802000Y-111252000D01*
X66802000Y-111272000D01*
X66548000Y-111272000D01*
X66548000Y-111252000D01*
X65055085Y-111252000D01*
X64933096Y-111474039D01*
X64950633Y-111556819D01*
X65220500Y-112049896D01*
X65653151Y-112397851D01*
X65275332Y-112650302D01*
X65105148Y-112905000D01*
X62925802Y-112905000D01*
X61878401Y-111857599D01*
X61631839Y-111692852D01*
X61341000Y-111635000D01*
X60773525Y-111635000D01*
X60874970Y-111125000D01*
X60765737Y-110575849D01*
X60454668Y-110110302D01*
X60072582Y-109855000D01*
X60454668Y-109599698D01*
X60765737Y-109134151D01*
X60805541Y-108934039D01*
X64933096Y-108934039D01*
X64950633Y-109016819D01*
X65220500Y-109509896D01*
X65649607Y-109855000D01*
X65220500Y-110200104D01*
X64950633Y-110693181D01*
X64933096Y-110775961D01*
X65055085Y-110998000D01*
X66548000Y-110998000D01*
X66548000Y-108712000D01*
X66802000Y-108712000D01*
X66802000Y-110998000D01*
X68294915Y-110998000D01*
X68416904Y-110775961D01*
X68399367Y-110693181D01*
X68129500Y-110200104D01*
X67700393Y-109855000D01*
X68074062Y-109554481D01*
X69834777Y-109554481D01*
X70029995Y-110026943D01*
X70391155Y-110388735D01*
X70863276Y-110584777D01*
X71374481Y-110585223D01*
X71846943Y-110390005D01*
X72208735Y-110028845D01*
X72404777Y-109556724D01*
X72405223Y-109045519D01*
X72210005Y-108573057D01*
X71848845Y-108211265D01*
X71376724Y-108015223D01*
X70865519Y-108014777D01*
X70393057Y-108209995D01*
X70031265Y-108571155D01*
X69835223Y-109043276D01*
X69834777Y-109554481D01*
X68074062Y-109554481D01*
X68129500Y-109509896D01*
X68399367Y-109016819D01*
X68416904Y-108934039D01*
X68294915Y-108712000D01*
X66802000Y-108712000D01*
X66548000Y-108712000D01*
X65055085Y-108712000D01*
X64933096Y-108934039D01*
X60805541Y-108934039D01*
X60874970Y-108585000D01*
X60765737Y-108035849D01*
X60454668Y-107570302D01*
X60076849Y-107317851D01*
X60509500Y-106969896D01*
X60779367Y-106476819D01*
X60796904Y-106394039D01*
X60674915Y-106172000D01*
X59182000Y-106172000D01*
X59182000Y-106192000D01*
X58928000Y-106192000D01*
X58928000Y-106172000D01*
X57435085Y-106172000D01*
X57313096Y-106394039D01*
X57330633Y-106476819D01*
X57600500Y-106969896D01*
X58033151Y-107317851D01*
X57655332Y-107570302D01*
X57344263Y-108035849D01*
X57235030Y-108585000D01*
X57344263Y-109134151D01*
X57655332Y-109599698D01*
X58037418Y-109855000D01*
X57655332Y-110110302D01*
X57344263Y-110575849D01*
X57235030Y-111125000D01*
X57336475Y-111635000D01*
X56950463Y-111635000D01*
X56918327Y-111602808D01*
X56574799Y-111460162D01*
X56202833Y-111459838D01*
X55859057Y-111601883D01*
X55595808Y-111864673D01*
X55453162Y-112208201D01*
X55452838Y-112580167D01*
X55594883Y-112923943D01*
X55857673Y-113187192D01*
X56201201Y-113329838D01*
X56573167Y-113330162D01*
X56916943Y-113188117D01*
X56950118Y-113155000D01*
X57336475Y-113155000D01*
X57235030Y-113665000D01*
X57336475Y-114175000D01*
X56448802Y-114175000D01*
X55037122Y-112763320D01*
X55037162Y-112717833D01*
X54895117Y-112374057D01*
X54632327Y-112110808D01*
X54288799Y-111968162D01*
X53916833Y-111967838D01*
X53573057Y-112109883D01*
X53309808Y-112372673D01*
X53167162Y-112716201D01*
X53166838Y-113088167D01*
X52830000Y-113088167D01*
X52830000Y-110832006D01*
X53158735Y-110503845D01*
X53354777Y-110031724D01*
X53354778Y-110029481D01*
X53959777Y-110029481D01*
X54154995Y-110501943D01*
X54516155Y-110863735D01*
X54988276Y-111059777D01*
X55499481Y-111060223D01*
X55971943Y-110865005D01*
X56333735Y-110503845D01*
X56529777Y-110031724D01*
X56530223Y-109520519D01*
X56335005Y-109048057D01*
X55973845Y-108686265D01*
X55501724Y-108490223D01*
X54990519Y-108489777D01*
X54518057Y-108684995D01*
X54156265Y-109046155D01*
X53960223Y-109518276D01*
X53959777Y-110029481D01*
X53354778Y-110029481D01*
X53355004Y-109771798D01*
X54258401Y-108868401D01*
X54423148Y-108621840D01*
X54481000Y-108331000D01*
X54481000Y-106060000D01*
X54959250Y-106060000D01*
X55118000Y-105901250D01*
X55118000Y-104902000D01*
X55372000Y-104902000D01*
X55372000Y-105901250D01*
X55530750Y-106060000D01*
X56021310Y-106060000D01*
X56254699Y-105963327D01*
X56433327Y-105784698D01*
X56530000Y-105551309D01*
X56530000Y-105060750D01*
X56371250Y-104902000D01*
X55372000Y-104902000D01*
X55118000Y-104902000D01*
X55098000Y-104902000D01*
X55098000Y-104648000D01*
X55118000Y-104648000D01*
X55118000Y-103648750D01*
X55372000Y-103648750D01*
X55372000Y-104648000D01*
X56371250Y-104648000D01*
X56530000Y-104489250D01*
X56530000Y-103998691D01*
X56433327Y-103765302D01*
X56254699Y-103586673D01*
X56021310Y-103490000D01*
X55530750Y-103490000D01*
X55372000Y-103648750D01*
X55118000Y-103648750D01*
X54959250Y-103490000D01*
X54478016Y-103490000D01*
X54423148Y-103214161D01*
X54423148Y-103214160D01*
X54258401Y-102967599D01*
X53894397Y-102603595D01*
X54360377Y-102586341D01*
X54848958Y-102383965D01*
X54947557Y-102117163D01*
X53975000Y-101144605D01*
X53002443Y-102117163D01*
X53093664Y-102364000D01*
X52511802Y-102364000D01*
X51989122Y-101841320D01*
X51989162Y-101795833D01*
X51847117Y-101452057D01*
X51584327Y-101188808D01*
X51240799Y-101046162D01*
X50868833Y-101045838D01*
X50525057Y-101187883D01*
X50261808Y-101450673D01*
X50119162Y-101794201D01*
X50118838Y-102166167D01*
X50260883Y-102509943D01*
X50523673Y-102773192D01*
X50867201Y-102915838D01*
X50914077Y-102915879D01*
X51475758Y-103477560D01*
X51420000Y-103477560D01*
X51184683Y-103521838D01*
X50968559Y-103660910D01*
X50823569Y-103873110D01*
X50794619Y-104016070D01*
X50557414Y-104063254D01*
X50509160Y-104072852D01*
X50262599Y-104237599D01*
X49136320Y-105363878D01*
X49090833Y-105363838D01*
X48747057Y-105505883D01*
X48483808Y-105768673D01*
X48341162Y-106112201D01*
X48340838Y-106484167D01*
X44577000Y-106484167D01*
X44577000Y-98425000D01*
X45941655Y-98425000D01*
X46055729Y-98998489D01*
X46380585Y-99484670D01*
X46695366Y-99695000D01*
X46380585Y-99905330D01*
X46055729Y-100391511D01*
X45941655Y-100965000D01*
X46055729Y-101538489D01*
X46380585Y-102024670D01*
X46695366Y-102235000D01*
X46380585Y-102445330D01*
X46055729Y-102931511D01*
X45941655Y-103505000D01*
X46055729Y-104078489D01*
X46380585Y-104564670D01*
X46866766Y-104889526D01*
X47440255Y-105003600D01*
X47809745Y-105003600D01*
X48383234Y-104889526D01*
X48869415Y-104564670D01*
X49194271Y-104078489D01*
X49308345Y-103505000D01*
X49194271Y-102931511D01*
X48869415Y-102445330D01*
X48554634Y-102235000D01*
X48869415Y-102024670D01*
X49068312Y-101727000D01*
X49403000Y-101727000D01*
X49694605Y-101668996D01*
X49941815Y-101503815D01*
X50745048Y-100700582D01*
X52329599Y-100700582D01*
X52353659Y-101350377D01*
X52556035Y-101838958D01*
X52822837Y-101937557D01*
X53795395Y-100965000D01*
X54154605Y-100965000D01*
X55127163Y-101937557D01*
X55393965Y-101838958D01*
X55620401Y-101229418D01*
X55596341Y-100579623D01*
X55393965Y-100091042D01*
X55127163Y-99992443D01*
X54154605Y-100965000D01*
X53795395Y-100965000D01*
X52822837Y-99992443D01*
X52556035Y-100091042D01*
X52329599Y-100700582D01*
X50745048Y-100700582D01*
X51632793Y-99812837D01*
X53002443Y-99812837D01*
X53975000Y-100785395D01*
X54947557Y-99812837D01*
X54848958Y-99546035D01*
X54239418Y-99319599D01*
X53589623Y-99343659D01*
X53101042Y-99546035D01*
X53002443Y-99812837D01*
X51632793Y-99812837D01*
X54798630Y-96647000D01*
X57486484Y-96647000D01*
X57655332Y-96899698D01*
X58037418Y-97155000D01*
X57655332Y-97410302D01*
X57344263Y-97875849D01*
X57235030Y-98425000D01*
X57344263Y-98974151D01*
X57655332Y-99439698D01*
X58037418Y-99695000D01*
X57655332Y-99950302D01*
X57344263Y-100415849D01*
X57235030Y-100965000D01*
X57344263Y-101514151D01*
X57655332Y-101979698D01*
X58037418Y-102235000D01*
X57655332Y-102490302D01*
X57344263Y-102955849D01*
X57235030Y-103505000D01*
X57344263Y-104054151D01*
X57655332Y-104519698D01*
X58033151Y-104772149D01*
X57600500Y-105120104D01*
X57330633Y-105613181D01*
X57313096Y-105695961D01*
X57435085Y-105918000D01*
X58928000Y-105918000D01*
X58928000Y-105898000D01*
X59182000Y-105898000D01*
X59182000Y-105918000D01*
X60674915Y-105918000D01*
X60796904Y-105695961D01*
X60779367Y-105613181D01*
X60509500Y-105120104D01*
X60076849Y-104772149D01*
X60454668Y-104519698D01*
X60765737Y-104054151D01*
X60874970Y-103505000D01*
X60765737Y-102955849D01*
X60454668Y-102490302D01*
X60072582Y-102235000D01*
X60454668Y-101979698D01*
X60765737Y-101514151D01*
X60874970Y-100965000D01*
X60765737Y-100415849D01*
X60454668Y-99950302D01*
X60072582Y-99695000D01*
X60454668Y-99439698D01*
X60765737Y-98974151D01*
X60874970Y-98425000D01*
X60765737Y-97875849D01*
X60454668Y-97410302D01*
X60072582Y-97155000D01*
X60454668Y-96899698D01*
X60765737Y-96434151D01*
X60874970Y-95885000D01*
X60765737Y-95335849D01*
X60454668Y-94870302D01*
X60072582Y-94615000D01*
X60454668Y-94359698D01*
X60765737Y-93894151D01*
X60874970Y-93345000D01*
X60765737Y-92795849D01*
X60454668Y-92330302D01*
X60072582Y-92075000D01*
X60454668Y-91819698D01*
X60765737Y-91354151D01*
X60874970Y-90805000D01*
X60765737Y-90255849D01*
X60454668Y-89790302D01*
X59989121Y-89479233D01*
X59439970Y-89370000D01*
X58670030Y-89370000D01*
X58120879Y-89479233D01*
X57655332Y-89790302D01*
X57486484Y-90043000D01*
X55428670Y-90043000D01*
X55361462Y-89880345D01*
X54902073Y-89420154D01*
X54301547Y-89170794D01*
X53651306Y-89170226D01*
X53050345Y-89418538D01*
X52590154Y-89877927D01*
X52340794Y-90478453D01*
X52340226Y-91128694D01*
X52588538Y-91729655D01*
X53047927Y-92189846D01*
X53648453Y-92439206D01*
X54298694Y-92439774D01*
X54899655Y-92191462D01*
X55359846Y-91732073D01*
X55428390Y-91567000D01*
X57486484Y-91567000D01*
X57655332Y-91819698D01*
X58037418Y-92075000D01*
X57655332Y-92330302D01*
X57486484Y-92583000D01*
X54610000Y-92583000D01*
X54318395Y-92641004D01*
X54086654Y-92795849D01*
X54071185Y-92806185D01*
X49214370Y-97663000D01*
X49068312Y-97663000D01*
X48869415Y-97365330D01*
X48559931Y-97158539D01*
X48975732Y-96787036D01*
X49229709Y-96259791D01*
X49232358Y-96244026D01*
X49111217Y-96012000D01*
X47752000Y-96012000D01*
X47752000Y-96032000D01*
X47498000Y-96032000D01*
X47498000Y-96012000D01*
X46138783Y-96012000D01*
X46017642Y-96244026D01*
X46020291Y-96259791D01*
X46274268Y-96787036D01*
X46690069Y-97158539D01*
X46380585Y-97365330D01*
X46055729Y-97851511D01*
X45941655Y-98425000D01*
X44577000Y-98425000D01*
X44577000Y-93345000D01*
X45941655Y-93345000D01*
X46055729Y-93918489D01*
X46380585Y-94404670D01*
X46690069Y-94611461D01*
X46274268Y-94982964D01*
X46020291Y-95510209D01*
X46017642Y-95525974D01*
X46138783Y-95758000D01*
X47498000Y-95758000D01*
X47498000Y-95738000D01*
X47752000Y-95738000D01*
X47752000Y-95758000D01*
X49111217Y-95758000D01*
X49232358Y-95525974D01*
X49229709Y-95510209D01*
X48975732Y-94982964D01*
X48559931Y-94611461D01*
X48869415Y-94404670D01*
X49194271Y-93918489D01*
X49308345Y-93345000D01*
X49194271Y-92771511D01*
X48869415Y-92285330D01*
X48855087Y-92275757D01*
X48876317Y-92271762D01*
X49092441Y-92132690D01*
X49237431Y-91920490D01*
X49288440Y-91668600D01*
X49288440Y-89941400D01*
X49244162Y-89706083D01*
X49105090Y-89489959D01*
X48892890Y-89344969D01*
X48641000Y-89293960D01*
X46609000Y-89293960D01*
X46373683Y-89338238D01*
X46157559Y-89477310D01*
X46012569Y-89689510D01*
X45961560Y-89941400D01*
X45961560Y-91668600D01*
X46005838Y-91903917D01*
X46144910Y-92120041D01*
X46357110Y-92265031D01*
X46398439Y-92273400D01*
X46380585Y-92285330D01*
X46055729Y-92771511D01*
X45941655Y-93345000D01*
X44577000Y-93345000D01*
X44577000Y-85607163D01*
X58082443Y-85607163D01*
X58181042Y-85873965D01*
X58790582Y-86100401D01*
X59440377Y-86076341D01*
X59928958Y-85873965D01*
X60027557Y-85607163D01*
X59055000Y-84634605D01*
X58082443Y-85607163D01*
X44577000Y-85607163D01*
X44577000Y-84190582D01*
X57409599Y-84190582D01*
X57433659Y-84840377D01*
X57636035Y-85328958D01*
X57902837Y-85427557D01*
X58875395Y-84455000D01*
X59234605Y-84455000D01*
X60207163Y-85427557D01*
X60454000Y-85336336D01*
X60454000Y-89154000D01*
X60511852Y-89444839D01*
X60676599Y-89691401D01*
X61294878Y-90309680D01*
X61294838Y-90355167D01*
X61436883Y-90698943D01*
X61699673Y-90962192D01*
X62043201Y-91104838D01*
X62415167Y-91105162D01*
X62758943Y-90963117D01*
X63022192Y-90700327D01*
X63164838Y-90356799D01*
X63165162Y-89984833D01*
X63023117Y-89641057D01*
X62760327Y-89377808D01*
X62416799Y-89235162D01*
X62369923Y-89235121D01*
X61974000Y-88839198D01*
X61974000Y-85827851D01*
X61991042Y-85873965D01*
X62600582Y-86100401D01*
X63250377Y-86076341D01*
X63738958Y-85873965D01*
X63837557Y-85607163D01*
X65702443Y-85607163D01*
X65801042Y-85873965D01*
X66410582Y-86100401D01*
X67060377Y-86076341D01*
X67548958Y-85873965D01*
X67647557Y-85607163D01*
X66675000Y-84634605D01*
X65702443Y-85607163D01*
X63837557Y-85607163D01*
X62865000Y-84634605D01*
X62850858Y-84648748D01*
X62671252Y-84469142D01*
X62685395Y-84455000D01*
X63044605Y-84455000D01*
X64017163Y-85427557D01*
X64283965Y-85328958D01*
X64510401Y-84719418D01*
X64490820Y-84190582D01*
X65029599Y-84190582D01*
X65053659Y-84840377D01*
X65256035Y-85328958D01*
X65522837Y-85427557D01*
X66495395Y-84455000D01*
X66854605Y-84455000D01*
X67827163Y-85427557D01*
X68093965Y-85328958D01*
X68320401Y-84719418D01*
X68300820Y-84190582D01*
X68839599Y-84190582D01*
X68863659Y-84840377D01*
X69066035Y-85328958D01*
X69332837Y-85427557D01*
X70305395Y-84455000D01*
X69332837Y-83482443D01*
X69066035Y-83581042D01*
X68839599Y-84190582D01*
X68300820Y-84190582D01*
X68296341Y-84069623D01*
X68093965Y-83581042D01*
X67827163Y-83482443D01*
X66854605Y-84455000D01*
X66495395Y-84455000D01*
X65522837Y-83482443D01*
X65256035Y-83581042D01*
X65029599Y-84190582D01*
X64490820Y-84190582D01*
X64486341Y-84069623D01*
X64283965Y-83581042D01*
X64017163Y-83482443D01*
X63044605Y-84455000D01*
X62685395Y-84455000D01*
X62671252Y-84440858D01*
X62850858Y-84261252D01*
X62865000Y-84275395D01*
X63837557Y-83302837D01*
X65702443Y-83302837D01*
X66675000Y-84275395D01*
X67647557Y-83302837D01*
X67548958Y-83036035D01*
X66939418Y-82809599D01*
X66289623Y-82833659D01*
X65801042Y-83036035D01*
X65702443Y-83302837D01*
X63837557Y-83302837D01*
X63738958Y-83036035D01*
X63129418Y-82809599D01*
X62479623Y-82833659D01*
X61991042Y-83036035D01*
X61974000Y-83082149D01*
X61974000Y-82864802D01*
X63131680Y-81707122D01*
X63177167Y-81707162D01*
X63520943Y-81565117D01*
X63784192Y-81302327D01*
X63926838Y-80958799D01*
X63927162Y-80586833D01*
X63785117Y-80243057D01*
X63522327Y-79979808D01*
X63178799Y-79837162D01*
X62806833Y-79836838D01*
X62463057Y-79978883D01*
X62199808Y-80241673D01*
X62057162Y-80585201D01*
X62057121Y-80632077D01*
X60676599Y-82012599D01*
X60511852Y-82259161D01*
X60454000Y-82550000D01*
X60454000Y-83573664D01*
X60207163Y-83482443D01*
X59234605Y-84455000D01*
X58875395Y-84455000D01*
X57902837Y-83482443D01*
X57636035Y-83581042D01*
X57409599Y-84190582D01*
X44577000Y-84190582D01*
X44577000Y-83302837D01*
X58082443Y-83302837D01*
X59055000Y-84275395D01*
X60027557Y-83302837D01*
X59928958Y-83036035D01*
X59319418Y-82809599D01*
X58669623Y-82833659D01*
X58181042Y-83036035D01*
X58082443Y-83302837D01*
X44577000Y-83302837D01*
X44577000Y-80930750D01*
X45705000Y-80930750D01*
X45705000Y-81421309D01*
X45801673Y-81654698D01*
X45980301Y-81833327D01*
X46213690Y-81930000D01*
X46704250Y-81930000D01*
X46863000Y-81771250D01*
X46863000Y-80772000D01*
X47117000Y-80772000D01*
X47117000Y-81771250D01*
X47275750Y-81930000D01*
X47766310Y-81930000D01*
X47999699Y-81833327D01*
X48178327Y-81654698D01*
X48275000Y-81421309D01*
X48275000Y-80930750D01*
X48163731Y-80819481D01*
X53324777Y-80819481D01*
X53519995Y-81291943D01*
X53881155Y-81653735D01*
X54353276Y-81849777D01*
X54864481Y-81850223D01*
X55336943Y-81655005D01*
X55698735Y-81293845D01*
X55785801Y-81084167D01*
X59135838Y-81084167D01*
X59277883Y-81427943D01*
X59540673Y-81691192D01*
X59884201Y-81833838D01*
X60256167Y-81834162D01*
X60599943Y-81692117D01*
X60863192Y-81429327D01*
X61005838Y-81085799D01*
X61005876Y-81041754D01*
X62387816Y-79659815D01*
X62387818Y-79659812D01*
X66185916Y-75861715D01*
X66348453Y-75929206D01*
X66998694Y-75929774D01*
X67599655Y-75681462D01*
X68059846Y-75222073D01*
X68309206Y-74621547D01*
X68309774Y-73971306D01*
X68061462Y-73370345D01*
X67602073Y-72910154D01*
X67001547Y-72660794D01*
X66351306Y-72660226D01*
X65750345Y-72908538D01*
X65290154Y-73367927D01*
X65040794Y-73968453D01*
X65040226Y-74618694D01*
X65108482Y-74783887D01*
X61310188Y-78582182D01*
X61310185Y-78582184D01*
X59928495Y-79963875D01*
X59885833Y-79963838D01*
X59542057Y-80105883D01*
X59278808Y-80368673D01*
X59136162Y-80712201D01*
X59135838Y-81084167D01*
X55785801Y-81084167D01*
X55894777Y-80821724D01*
X55895223Y-80310519D01*
X55700005Y-79838057D01*
X55338845Y-79476265D01*
X54866724Y-79280223D01*
X54355519Y-79279777D01*
X53883057Y-79474995D01*
X53521265Y-79836155D01*
X53325223Y-80308276D01*
X53324777Y-80819481D01*
X48163731Y-80819481D01*
X48116250Y-80772000D01*
X47117000Y-80772000D01*
X46863000Y-80772000D01*
X45863750Y-80772000D01*
X45705000Y-80930750D01*
X44577000Y-80930750D01*
X44577000Y-79868691D01*
X45705000Y-79868691D01*
X45705000Y-80359250D01*
X45863750Y-80518000D01*
X46863000Y-80518000D01*
X46863000Y-79518750D01*
X47117000Y-79518750D01*
X47117000Y-80518000D01*
X48116250Y-80518000D01*
X48275000Y-80359250D01*
X48275000Y-79868691D01*
X48178327Y-79635302D01*
X47999699Y-79456673D01*
X47766310Y-79360000D01*
X47275750Y-79360000D01*
X47117000Y-79518750D01*
X46863000Y-79518750D01*
X46704250Y-79360000D01*
X46213690Y-79360000D01*
X45980301Y-79456673D01*
X45801673Y-79635302D01*
X45705000Y-79868691D01*
X44577000Y-79868691D01*
X44577000Y-78417167D01*
X56341838Y-78417167D01*
X56483883Y-78760943D01*
X56746673Y-79024192D01*
X57090201Y-79166838D01*
X57462167Y-79167162D01*
X57805943Y-79025117D01*
X57837114Y-78994000D01*
X59944000Y-78994000D01*
X60235605Y-78935996D01*
X60482815Y-78770815D01*
X63403815Y-75849815D01*
X63412055Y-75837483D01*
X63789655Y-75681462D01*
X64249846Y-75222073D01*
X64499206Y-74621547D01*
X64499774Y-73971306D01*
X64251462Y-73370345D01*
X63792073Y-72910154D01*
X63191547Y-72660794D01*
X62541306Y-72660226D01*
X61940345Y-72908538D01*
X61480154Y-73367927D01*
X61230794Y-73968453D01*
X61230226Y-74618694D01*
X61478538Y-75219655D01*
X61678452Y-75419918D01*
X59628370Y-77470000D01*
X57837466Y-77470000D01*
X57807327Y-77439808D01*
X57463799Y-77297162D01*
X57091833Y-77296838D01*
X56748057Y-77438883D01*
X56484808Y-77701673D01*
X56342162Y-78045201D01*
X56341838Y-78417167D01*
X44577000Y-78417167D01*
X44577000Y-75899481D01*
X45704777Y-75899481D01*
X45899995Y-76371943D01*
X46261155Y-76733735D01*
X46733276Y-76929777D01*
X47244481Y-76930223D01*
X47716943Y-76735005D01*
X48078735Y-76373845D01*
X48274777Y-75901724D01*
X48274821Y-75850750D01*
X53325000Y-75850750D01*
X53325000Y-76341309D01*
X53421673Y-76574698D01*
X53600301Y-76753327D01*
X53833690Y-76850000D01*
X54324250Y-76850000D01*
X54483000Y-76691250D01*
X54483000Y-75692000D01*
X54737000Y-75692000D01*
X54737000Y-76691250D01*
X54895750Y-76850000D01*
X55386310Y-76850000D01*
X55619699Y-76753327D01*
X55798327Y-76574698D01*
X55895000Y-76341309D01*
X55895000Y-75850750D01*
X55736250Y-75692000D01*
X54737000Y-75692000D01*
X54483000Y-75692000D01*
X53483750Y-75692000D01*
X53325000Y-75850750D01*
X48274821Y-75850750D01*
X48275223Y-75390519D01*
X48080005Y-74918057D01*
X47950865Y-74788691D01*
X53325000Y-74788691D01*
X53325000Y-75279250D01*
X53483750Y-75438000D01*
X54483000Y-75438000D01*
X54483000Y-74438750D01*
X54737000Y-74438750D01*
X54737000Y-75438000D01*
X55736250Y-75438000D01*
X55895000Y-75279250D01*
X55895000Y-74788691D01*
X55824585Y-74618694D01*
X57420226Y-74618694D01*
X57668538Y-75219655D01*
X58127927Y-75679846D01*
X58728453Y-75929206D01*
X59378694Y-75929774D01*
X59979655Y-75681462D01*
X60439846Y-75222073D01*
X60689206Y-74621547D01*
X60689774Y-73971306D01*
X60441462Y-73370345D01*
X59982073Y-72910154D01*
X59381547Y-72660794D01*
X58731306Y-72660226D01*
X58130345Y-72908538D01*
X57670154Y-73367927D01*
X57420794Y-73968453D01*
X57420226Y-74618694D01*
X55824585Y-74618694D01*
X55798327Y-74555302D01*
X55619699Y-74376673D01*
X55386310Y-74280000D01*
X54895750Y-74280000D01*
X54737000Y-74438750D01*
X54483000Y-74438750D01*
X54324250Y-74280000D01*
X53833690Y-74280000D01*
X53600301Y-74376673D01*
X53421673Y-74555302D01*
X53325000Y-74788691D01*
X47950865Y-74788691D01*
X47718845Y-74556265D01*
X47246724Y-74360223D01*
X46735519Y-74359777D01*
X46263057Y-74554995D01*
X45901265Y-74916155D01*
X45705223Y-75388276D01*
X45704777Y-75899481D01*
X44577000Y-75899481D01*
X44577000Y-68850000D01*
X45342560Y-68850000D01*
X45342560Y-70850000D01*
X45386838Y-71085317D01*
X45525910Y-71301441D01*
X45738110Y-71446431D01*
X45990000Y-71497440D01*
X47990000Y-71497440D01*
X48225317Y-71453162D01*
X48441441Y-71314090D01*
X48538910Y-71171439D01*
X48602637Y-71235278D01*
X49203352Y-71484716D01*
X49853795Y-71485284D01*
X50454943Y-71236894D01*
X50915278Y-70777363D01*
X51164716Y-70176648D01*
X51165284Y-69526205D01*
X50916894Y-68925057D01*
X50841969Y-68850000D01*
X73282560Y-68850000D01*
X73282560Y-70850000D01*
X73326838Y-71085317D01*
X73465910Y-71301441D01*
X73678110Y-71446431D01*
X73930000Y-71497440D01*
X75930000Y-71497440D01*
X76165317Y-71453162D01*
X76381441Y-71314090D01*
X76478910Y-71171439D01*
X76542637Y-71235278D01*
X77143352Y-71484716D01*
X77793795Y-71485284D01*
X78394943Y-71236894D01*
X78855278Y-70777363D01*
X79104716Y-70176648D01*
X79105284Y-69526205D01*
X78856894Y-68925057D01*
X78397363Y-68464722D01*
X77796648Y-68215284D01*
X77146205Y-68214716D01*
X76545057Y-68463106D01*
X76478426Y-68529621D01*
X76394090Y-68398559D01*
X76181890Y-68253569D01*
X75930000Y-68202560D01*
X73930000Y-68202560D01*
X73694683Y-68246838D01*
X73478559Y-68385910D01*
X73333569Y-68598110D01*
X73282560Y-68850000D01*
X50841969Y-68850000D01*
X50457363Y-68464722D01*
X49856648Y-68215284D01*
X49206205Y-68214716D01*
X48605057Y-68463106D01*
X48538426Y-68529621D01*
X48454090Y-68398559D01*
X48241890Y-68253569D01*
X47990000Y-68202560D01*
X45990000Y-68202560D01*
X45754683Y-68246838D01*
X45538559Y-68385910D01*
X45393569Y-68598110D01*
X45342560Y-68850000D01*
X44577000Y-68850000D01*
X44577000Y-67437000D01*
X79883000Y-67437000D01*
X79883000Y-77804889D01*
X79883000Y-77804889D01*
G37*
X79883000Y-77804889D02*
X79824833Y-77804838D01*
X79481057Y-77946883D01*
X79449886Y-77978000D01*
X78031705Y-77978000D01*
X78020010Y-77949697D01*
X77627370Y-77556371D01*
X77419488Y-77470051D01*
X77625303Y-77385010D01*
X78018629Y-76992370D01*
X78231757Y-76479100D01*
X78232242Y-75923339D01*
X78020010Y-75409697D01*
X77627370Y-75016371D01*
X77114100Y-74803243D01*
X76558339Y-74802758D01*
X76044697Y-75014990D01*
X75651371Y-75407630D01*
X75438243Y-75920900D01*
X75438110Y-76072889D01*
X75288339Y-76072758D01*
X74774697Y-76284990D01*
X74381371Y-76677630D01*
X74363967Y-76719544D01*
X74130395Y-76766004D01*
X74031377Y-76832166D01*
X73883185Y-76931184D01*
X73248185Y-77566185D01*
X73083004Y-77813395D01*
X73025000Y-78105000D01*
X73025000Y-79745667D01*
X72927401Y-79599599D01*
X71245000Y-77917198D01*
X71245000Y-75749496D01*
X71409655Y-75681462D01*
X71869846Y-75222073D01*
X72119206Y-74621547D01*
X72119774Y-73971306D01*
X71871462Y-73370345D01*
X71412073Y-72910154D01*
X70811547Y-72660794D01*
X70161306Y-72660226D01*
X69560345Y-72908538D01*
X69100154Y-73367927D01*
X68850794Y-73968453D01*
X68850226Y-74618694D01*
X69098538Y-75219655D01*
X69557927Y-75679846D01*
X69725000Y-75749221D01*
X69725000Y-78232000D01*
X69782852Y-78522839D01*
X69947599Y-78769401D01*
X71630000Y-80451802D01*
X71630000Y-83246716D01*
X71571838Y-83188554D01*
X71457556Y-83302836D01*
X71358958Y-83036035D01*
X70749418Y-82809599D01*
X70099623Y-82833659D01*
X69611042Y-83036035D01*
X69512443Y-83302837D01*
X70485000Y-84275395D01*
X70499142Y-84261252D01*
X70678748Y-84440858D01*
X70664605Y-84455000D01*
X70678748Y-84469142D01*
X70499142Y-84648748D01*
X70485000Y-84634605D01*
X69512443Y-85607163D01*
X69611042Y-85873965D01*
X70220582Y-86100401D01*
X70870377Y-86076341D01*
X71358958Y-85873965D01*
X71457556Y-85607164D01*
X71571838Y-85721446D01*
X71630000Y-85663284D01*
X71630000Y-86680198D01*
X71107320Y-87202878D01*
X71061833Y-87202838D01*
X70718057Y-87344883D01*
X70454808Y-87607673D01*
X70312162Y-87951201D01*
X70311838Y-88323167D01*
X70453883Y-88666943D01*
X70716673Y-88930192D01*
X71060201Y-89072838D01*
X71432167Y-89073162D01*
X71775943Y-88931117D01*
X72039192Y-88668327D01*
X72181838Y-88324799D01*
X72181879Y-88277923D01*
X72927401Y-87532401D01*
X73025000Y-87386333D01*
X73025000Y-88900000D01*
X73083004Y-89191605D01*
X73185479Y-89344969D01*
X73248185Y-89438815D01*
X73789333Y-89979964D01*
X73787000Y-89979500D01*
X73699409Y-89996923D01*
X73601833Y-89996838D01*
X73510856Y-90034429D01*
X73422495Y-90052005D01*
X73348240Y-90101620D01*
X73258057Y-90138883D01*
X73188392Y-90208426D01*
X73113481Y-90258480D01*
X70446481Y-92925481D01*
X70240005Y-93234494D01*
X70167500Y-93599000D01*
X70167500Y-95815430D01*
X70135117Y-95737057D01*
X69872327Y-95473808D01*
X69528799Y-95331162D01*
X69156833Y-95330838D01*
X68813057Y-95472883D01*
X68549808Y-95735673D01*
X68492648Y-95873328D01*
X68385737Y-95335849D01*
X68074668Y-94870302D01*
X67692582Y-94615000D01*
X68074668Y-94359698D01*
X68385737Y-93894151D01*
X68494970Y-93345000D01*
X68385737Y-92795849D01*
X68074668Y-92330302D01*
X67692582Y-92075000D01*
X68074668Y-91819698D01*
X68385737Y-91354151D01*
X68494970Y-90805000D01*
X68385737Y-90255849D01*
X68074668Y-89790302D01*
X67609121Y-89479233D01*
X67059970Y-89370000D01*
X66290030Y-89370000D01*
X65740879Y-89479233D01*
X65275332Y-89790302D01*
X64964263Y-90255849D01*
X64855030Y-90805000D01*
X64964263Y-91354151D01*
X65275332Y-91819698D01*
X65657418Y-92075000D01*
X65275332Y-92330302D01*
X64964263Y-92795849D01*
X64855030Y-93345000D01*
X64964263Y-93894151D01*
X65275332Y-94359698D01*
X65657418Y-94615000D01*
X65275332Y-94870302D01*
X64964263Y-95335849D01*
X64855030Y-95885000D01*
X64964263Y-96434151D01*
X65275332Y-96899698D01*
X65657418Y-97155000D01*
X65275332Y-97410302D01*
X64964263Y-97875849D01*
X64855030Y-98425000D01*
X64964263Y-98974151D01*
X65275332Y-99439698D01*
X65657418Y-99695000D01*
X65275332Y-99950302D01*
X64964263Y-100415849D01*
X64855030Y-100965000D01*
X64964263Y-101514151D01*
X65275332Y-101979698D01*
X65657418Y-102235000D01*
X65389092Y-102414290D01*
X63546122Y-100571320D01*
X63546162Y-100525833D01*
X63404117Y-100182057D01*
X63141327Y-99918808D01*
X62797799Y-99776162D01*
X62425833Y-99775838D01*
X62082057Y-99917883D01*
X61818808Y-100180673D01*
X61676162Y-100524201D01*
X61675838Y-100896167D01*
X61817883Y-101239943D01*
X62080673Y-101503192D01*
X62424201Y-101645838D01*
X62471077Y-101645879D01*
X64867599Y-104042401D01*
X65028045Y-104149607D01*
X65275332Y-104519698D01*
X65657418Y-104775000D01*
X65275332Y-105030302D01*
X64964263Y-105495849D01*
X64855030Y-106045000D01*
X64964263Y-106594151D01*
X65275332Y-107059698D01*
X65653151Y-107312149D01*
X65220500Y-107660104D01*
X64950633Y-108153181D01*
X64933096Y-108235961D01*
X65055085Y-108458000D01*
X66548000Y-108458000D01*
X66548000Y-108438000D01*
X66802000Y-108438000D01*
X66802000Y-108458000D01*
X68294915Y-108458000D01*
X68416904Y-108235961D01*
X68399367Y-108153181D01*
X68129500Y-107660104D01*
X67696849Y-107312149D01*
X68074668Y-107059698D01*
X68385737Y-106594151D01*
X68494970Y-106045000D01*
X68385737Y-105495849D01*
X68074668Y-105030302D01*
X67953711Y-104949481D01*
X69834777Y-104949481D01*
X70029995Y-105421943D01*
X70391155Y-105783735D01*
X70863276Y-105979777D01*
X71374481Y-105980223D01*
X71846943Y-105785005D01*
X72208735Y-105423845D01*
X72404777Y-104951724D01*
X72405223Y-104440519D01*
X72210005Y-103968057D01*
X71848845Y-103606265D01*
X71376724Y-103410223D01*
X70865519Y-103409777D01*
X70393057Y-103604995D01*
X70031265Y-103966155D01*
X69835223Y-104438276D01*
X69834777Y-104949481D01*
X67953711Y-104949481D01*
X67692582Y-104775000D01*
X68074668Y-104519698D01*
X68385737Y-104054151D01*
X68494970Y-103505000D01*
X68385737Y-102955849D01*
X68074668Y-102490302D01*
X67692582Y-102235000D01*
X68074668Y-101979698D01*
X68244852Y-101725000D01*
X68326000Y-101725000D01*
X68616839Y-101667148D01*
X68863401Y-101502401D01*
X69853955Y-100511847D01*
X69866838Y-100580317D01*
X70005910Y-100796441D01*
X70218110Y-100941431D01*
X70470000Y-100992440D01*
X71770000Y-100992440D01*
X72005317Y-100948162D01*
X72221441Y-100809090D01*
X72366431Y-100596890D01*
X72417440Y-100345000D01*
X72417440Y-99045000D01*
X72373162Y-98809683D01*
X72234090Y-98593559D01*
X72072500Y-98483149D01*
X72072500Y-93993538D01*
X73224688Y-92841350D01*
X73083004Y-93053395D01*
X73025000Y-93345000D01*
X73025000Y-96139000D01*
X73083004Y-96430605D01*
X73188838Y-96588996D01*
X73248185Y-96677815D01*
X74137185Y-97566815D01*
X74384395Y-97731996D01*
X74676000Y-97790000D01*
X76250389Y-97790000D01*
X76044697Y-97874990D01*
X75651371Y-98267630D01*
X75438243Y-98780900D01*
X75438110Y-98932889D01*
X75288339Y-98932758D01*
X74774697Y-99144990D01*
X74381371Y-99537630D01*
X74168243Y-100050900D01*
X74168164Y-100141205D01*
X73248185Y-101061185D01*
X73083004Y-101308395D01*
X73025000Y-101600000D01*
X73025000Y-104394000D01*
X73083004Y-104685605D01*
X73219260Y-104889526D01*
X73248185Y-104932815D01*
X73756184Y-105440815D01*
X73854950Y-105506808D01*
X74003395Y-105605996D01*
X74295000Y-105664000D01*
X75875392Y-105664000D01*
X75651371Y-105887630D01*
X75438243Y-106400900D01*
X75438110Y-106552889D01*
X75288339Y-106552758D01*
X74774697Y-106764990D01*
X74381371Y-107157630D01*
X74363967Y-107199544D01*
X74130395Y-107246004D01*
X74037860Y-107307834D01*
X73883185Y-107411184D01*
X73248185Y-108046185D01*
X73083004Y-108293395D01*
X73025000Y-108585000D01*
X73025000Y-111379000D01*
X73083004Y-111670605D01*
X73207005Y-111856185D01*
X73248185Y-111917815D01*
X74264185Y-112933815D01*
X74511395Y-113098996D01*
X74803000Y-113157000D01*
X76002614Y-113157000D01*
X75651371Y-113507630D01*
X75438243Y-114020900D01*
X75438110Y-114172889D01*
X75288339Y-114172758D01*
X74774697Y-114384990D01*
X74381371Y-114777630D01*
X74363967Y-114819544D01*
X74130395Y-114866004D01*
X74031377Y-114932166D01*
X73883185Y-115031184D01*
X73248185Y-115666185D01*
X73083004Y-115913395D01*
X73025000Y-116205000D01*
X73025000Y-118872000D01*
X73083004Y-119163605D01*
X73181493Y-119311004D01*
X73248185Y-119410815D01*
X74391185Y-120553815D01*
X74638395Y-120718996D01*
X74930000Y-120777000D01*
X76002614Y-120777000D01*
X75651371Y-121127630D01*
X75438243Y-121640900D01*
X75438110Y-121792889D01*
X75288339Y-121792758D01*
X74774697Y-122004990D01*
X74381371Y-122397630D01*
X74352533Y-122467080D01*
X74257395Y-122486004D01*
X74158377Y-122552166D01*
X74010185Y-122651184D01*
X73248185Y-123413185D01*
X73083004Y-123660395D01*
X73025000Y-123952000D01*
X73025000Y-126492000D01*
X73083004Y-126783605D01*
X73181493Y-126931004D01*
X73248185Y-127030815D01*
X74391185Y-128173815D01*
X74638395Y-128338996D01*
X74930000Y-128397000D01*
X76002614Y-128397000D01*
X75651371Y-128747630D01*
X75438243Y-129260900D01*
X75438110Y-129412889D01*
X75288339Y-129412758D01*
X74774697Y-129624990D01*
X74381371Y-130017630D01*
X74168243Y-130530900D01*
X74167758Y-131086661D01*
X74379990Y-131600303D01*
X74772630Y-131993629D01*
X74980512Y-132079949D01*
X74774697Y-132164990D01*
X74381371Y-132557630D01*
X74168243Y-133070900D01*
X74167758Y-133626661D01*
X74379990Y-134140303D01*
X74772630Y-134533629D01*
X75285900Y-134746757D01*
X75564353Y-134747000D01*
X73721630Y-134747000D01*
X71247000Y-132272370D01*
X71247000Y-127814466D01*
X71277192Y-127784327D01*
X71419838Y-127440799D01*
X71420162Y-127068833D01*
X71278117Y-126725057D01*
X71015327Y-126461808D01*
X70671799Y-126319162D01*
X70299833Y-126318838D01*
X69956057Y-126460883D01*
X69692808Y-126723673D01*
X69550162Y-127067201D01*
X69549838Y-127439167D01*
X69691883Y-127782943D01*
X69723000Y-127814114D01*
X69723000Y-132588000D01*
X69781004Y-132879605D01*
X69914574Y-133079506D01*
X69946185Y-133126815D01*
X72867185Y-136047815D01*
X73114395Y-136212996D01*
X73406000Y-136271000D01*
X79375000Y-136271000D01*
X79666605Y-136212996D01*
X79883000Y-136068405D01*
X79883000Y-139558982D01*
X79442697Y-139471400D01*
X78037303Y-139471400D01*
X77463814Y-139585474D01*
X76977633Y-139910330D01*
X76777400Y-140210000D01*
X71688802Y-140210000D01*
X69469000Y-137990198D01*
X69469000Y-129667000D01*
X69410996Y-129375395D01*
X69356757Y-129294221D01*
X69245815Y-129128184D01*
X68245125Y-128127495D01*
X68245162Y-128084833D01*
X68103117Y-127741057D01*
X67840327Y-127477808D01*
X67496799Y-127335162D01*
X67124833Y-127334838D01*
X66781057Y-127476883D01*
X66517808Y-127739673D01*
X66375162Y-128083201D01*
X66374838Y-128455167D01*
X66516883Y-128798943D01*
X66779673Y-129062192D01*
X67123201Y-129204838D01*
X67167246Y-129204876D01*
X67945000Y-129982631D01*
X67945000Y-137987369D01*
X66460970Y-139471400D01*
X65337303Y-139471400D01*
X64763814Y-139585474D01*
X64277633Y-139910330D01*
X63952777Y-140396511D01*
X63838703Y-140970000D01*
X63952777Y-141543489D01*
X64277633Y-142029670D01*
X64763814Y-142354526D01*
X65337303Y-142468600D01*
X66742697Y-142468600D01*
X67316186Y-142354526D01*
X67802367Y-142029670D01*
X68127223Y-141543489D01*
X68241297Y-140970000D01*
X68127223Y-140396511D01*
X67952544Y-140135086D01*
X68708414Y-139379216D01*
X70836599Y-141507401D01*
X71083161Y-141672148D01*
X71374000Y-141730000D01*
X76777400Y-141730000D01*
X76977633Y-142029670D01*
X77463814Y-142354526D01*
X78037303Y-142468600D01*
X79442697Y-142468600D01*
X79883000Y-142381018D01*
X79883000Y-144638982D01*
X79442697Y-144551400D01*
X78037303Y-144551400D01*
X77463814Y-144665474D01*
X76977633Y-144990330D01*
X76652777Y-145476511D01*
X76538703Y-146050000D01*
X76652777Y-146623489D01*
X76977633Y-147109670D01*
X77463814Y-147434526D01*
X78037303Y-147548600D01*
X79442697Y-147548600D01*
X79883000Y-147461018D01*
X79883000Y-148463000D01*
X44577000Y-148463000D01*
X44577000Y-146427265D01*
X45084670Y-146427265D01*
X45374078Y-147127686D01*
X45909495Y-147664039D01*
X46609410Y-147954668D01*
X47367265Y-147955330D01*
X48067686Y-147665922D01*
X48604039Y-147130505D01*
X48894668Y-146430590D01*
X48895000Y-146050000D01*
X63838703Y-146050000D01*
X63952777Y-146623489D01*
X64277633Y-147109670D01*
X64763814Y-147434526D01*
X65337303Y-147548600D01*
X66742697Y-147548600D01*
X67316186Y-147434526D01*
X67802367Y-147109670D01*
X68127223Y-146623489D01*
X68241297Y-146050000D01*
X68127223Y-145476511D01*
X67802367Y-144990330D01*
X67316186Y-144665474D01*
X66742697Y-144551400D01*
X65337303Y-144551400D01*
X64763814Y-144665474D01*
X64277633Y-144990330D01*
X63952777Y-145476511D01*
X63838703Y-146050000D01*
X48895000Y-146050000D01*
X48895330Y-145672735D01*
X48605922Y-144972314D01*
X48588121Y-144954481D01*
X54594777Y-144954481D01*
X54789995Y-145426943D01*
X55151155Y-145788735D01*
X55623276Y-145984777D01*
X56134481Y-145985223D01*
X56606943Y-145790005D01*
X56968735Y-145428845D01*
X57164777Y-144956724D01*
X57164778Y-144954481D01*
X59674777Y-144954481D01*
X59869995Y-145426943D01*
X60231155Y-145788735D01*
X60703276Y-145984777D01*
X61214481Y-145985223D01*
X61686943Y-145790005D01*
X62048735Y-145428845D01*
X62244777Y-144956724D01*
X62245223Y-144445519D01*
X62050005Y-143973057D01*
X61688845Y-143611265D01*
X61216724Y-143415223D01*
X60705519Y-143414777D01*
X60233057Y-143609995D01*
X59871265Y-143971155D01*
X59675223Y-144443276D01*
X59674777Y-144954481D01*
X57164778Y-144954481D01*
X57165223Y-144445519D01*
X56970005Y-143973057D01*
X56608845Y-143611265D01*
X56136724Y-143415223D01*
X55625519Y-143414777D01*
X55153057Y-143609995D01*
X54791265Y-143971155D01*
X54595223Y-144443276D01*
X54594777Y-144954481D01*
X48588121Y-144954481D01*
X48070505Y-144435961D01*
X47370590Y-144145332D01*
X46612735Y-144144670D01*
X45912314Y-144434078D01*
X45375961Y-144969495D01*
X45085332Y-145669410D01*
X45084670Y-146427265D01*
X44577000Y-146427265D01*
X44577000Y-139700000D01*
X45072560Y-139700000D01*
X45072560Y-142240000D01*
X45116838Y-142475317D01*
X45255910Y-142691441D01*
X45468110Y-142836431D01*
X45720000Y-142887440D01*
X48260000Y-142887440D01*
X48495317Y-142843162D01*
X48711441Y-142704090D01*
X48856431Y-142491890D01*
X48907440Y-142240000D01*
X48907440Y-140399598D01*
X49321288Y-139985750D01*
X54595000Y-139985750D01*
X54595000Y-140476309D01*
X54691673Y-140709698D01*
X54870301Y-140888327D01*
X55103690Y-140985000D01*
X55594250Y-140985000D01*
X55753000Y-140826250D01*
X55753000Y-139827000D01*
X56007000Y-139827000D01*
X56007000Y-140826250D01*
X56165750Y-140985000D01*
X56656310Y-140985000D01*
X56889699Y-140888327D01*
X57068327Y-140709698D01*
X57165000Y-140476309D01*
X57165000Y-139985750D01*
X57006250Y-139827000D01*
X56007000Y-139827000D01*
X55753000Y-139827000D01*
X54753750Y-139827000D01*
X54595000Y-139985750D01*
X49321288Y-139985750D01*
X50383347Y-138923691D01*
X54595000Y-138923691D01*
X54595000Y-139414250D01*
X54753750Y-139573000D01*
X55753000Y-139573000D01*
X55753000Y-138573750D01*
X56007000Y-138573750D01*
X56007000Y-139573000D01*
X57006250Y-139573000D01*
X57165000Y-139414250D01*
X57165000Y-138923691D01*
X57068327Y-138690302D01*
X56889699Y-138511673D01*
X56656310Y-138415000D01*
X56165750Y-138415000D01*
X56007000Y-138573750D01*
X55753000Y-138573750D01*
X55594250Y-138415000D01*
X55103690Y-138415000D01*
X54870301Y-138511673D01*
X54691673Y-138690302D01*
X54595000Y-138923691D01*
X50383347Y-138923691D01*
X50457519Y-138849519D01*
X50663995Y-138540506D01*
X50736500Y-138176000D01*
X50736500Y-132715000D01*
X50663995Y-132350494D01*
X50457519Y-132041481D01*
X49282519Y-130866481D01*
X48973506Y-130660005D01*
X48609000Y-130587500D01*
X48013096Y-130587500D01*
X47965658Y-130539979D01*
X48013219Y-130492500D01*
X50024462Y-130492500D01*
X55968481Y-136436519D01*
X56277494Y-136642995D01*
X56642000Y-136715500D01*
X61087000Y-136715500D01*
X61087000Y-137956554D01*
X60640994Y-138402560D01*
X60310000Y-138402560D01*
X60074683Y-138446838D01*
X59858559Y-138585910D01*
X59713569Y-138798110D01*
X59662560Y-139050000D01*
X59662560Y-140350000D01*
X59706838Y-140585317D01*
X59845910Y-140801441D01*
X60058110Y-140946431D01*
X60310000Y-140997440D01*
X61610000Y-140997440D01*
X61845317Y-140953162D01*
X62061441Y-140814090D01*
X62206431Y-140601890D01*
X62257440Y-140350000D01*
X62257440Y-140019006D01*
X63038223Y-139238223D01*
X63285994Y-138867407D01*
X63373000Y-138430000D01*
X63373000Y-132081452D01*
X63458829Y-131953000D01*
X66675000Y-131953000D01*
X67112407Y-131865994D01*
X67483223Y-131618223D01*
X67730994Y-131247407D01*
X67818000Y-130810000D01*
X67730994Y-130372593D01*
X67483223Y-130001777D01*
X67112407Y-129754006D01*
X66675000Y-129667000D01*
X63458829Y-129667000D01*
X63209746Y-129294221D01*
X62760235Y-128993867D01*
X62230000Y-128888397D01*
X61699765Y-128993867D01*
X61250254Y-129294221D01*
X60949900Y-129743732D01*
X60948050Y-129753032D01*
X60921499Y-129663323D01*
X60579944Y-129241342D01*
X60102903Y-128982190D01*
X60031275Y-128968007D01*
X59817000Y-129090661D01*
X59817000Y-130683000D01*
X59837000Y-130683000D01*
X59837000Y-130937000D01*
X59817000Y-130937000D01*
X59817000Y-132529339D01*
X60031275Y-132651993D01*
X60102903Y-132637810D01*
X60579944Y-132378658D01*
X60921499Y-131956677D01*
X60948050Y-131866968D01*
X60949900Y-131876268D01*
X61087000Y-132081452D01*
X61087000Y-134810500D01*
X57036538Y-134810500D01*
X52500005Y-130273967D01*
X55764430Y-130273967D01*
X55764430Y-131346033D01*
X55869900Y-131876268D01*
X56170254Y-132325779D01*
X56619765Y-132626133D01*
X57150000Y-132731603D01*
X57680235Y-132626133D01*
X58129746Y-132325779D01*
X58430100Y-131876268D01*
X58431950Y-131866968D01*
X58458501Y-131956677D01*
X58800056Y-132378658D01*
X59277097Y-132637810D01*
X59348725Y-132651993D01*
X59563000Y-132529339D01*
X59563000Y-130937000D01*
X59543000Y-130937000D01*
X59543000Y-130683000D01*
X59563000Y-130683000D01*
X59563000Y-129090661D01*
X59348725Y-128968007D01*
X59277097Y-128982190D01*
X58800056Y-129241342D01*
X58458501Y-129663323D01*
X58431950Y-129753032D01*
X58430100Y-129743732D01*
X58129746Y-129294221D01*
X57680235Y-128993867D01*
X57150000Y-128888397D01*
X56619765Y-128993867D01*
X56170254Y-129294221D01*
X55869900Y-129743732D01*
X55764430Y-130273967D01*
X52500005Y-130273967D01*
X51092519Y-128866481D01*
X50783506Y-128660005D01*
X50419000Y-128587500D01*
X48013096Y-128587500D01*
X47965658Y-128539979D01*
X48173629Y-128332370D01*
X48386757Y-127819100D01*
X48387242Y-127263339D01*
X48175010Y-126749697D01*
X48050244Y-126624713D01*
X48335032Y-126340421D01*
X48577224Y-125757159D01*
X48577775Y-125125612D01*
X48336602Y-124541928D01*
X47890421Y-124094968D01*
X47307159Y-123852776D01*
X46675612Y-123852225D01*
X46091928Y-124093398D01*
X45644968Y-124539579D01*
X45402776Y-125122841D01*
X45402225Y-125754388D01*
X45643398Y-126338072D01*
X45929521Y-126624695D01*
X45806371Y-126747630D01*
X45593243Y-127260900D01*
X45592758Y-127816661D01*
X45804990Y-128330303D01*
X46014342Y-128540021D01*
X45806371Y-128747630D01*
X45593243Y-129260900D01*
X45592758Y-129816661D01*
X45804990Y-130330303D01*
X46014342Y-130540021D01*
X45806371Y-130747630D01*
X45593243Y-131260900D01*
X45592758Y-131816661D01*
X45804990Y-132330303D01*
X45929756Y-132455287D01*
X45644968Y-132739579D01*
X45402776Y-133322841D01*
X45402225Y-133954388D01*
X45643398Y-134538072D01*
X46089579Y-134985032D01*
X46672841Y-135227224D01*
X47304388Y-135227775D01*
X47888072Y-134986602D01*
X48335032Y-134540421D01*
X48577224Y-133957159D01*
X48577775Y-133325612D01*
X48336602Y-132741928D01*
X48087609Y-132492500D01*
X48214462Y-132492500D01*
X48831500Y-133109538D01*
X48831500Y-137781462D01*
X47560402Y-139052560D01*
X45720000Y-139052560D01*
X45484683Y-139096838D01*
X45268559Y-139235910D01*
X45123569Y-139448110D01*
X45072560Y-139700000D01*
X44577000Y-139700000D01*
X44577000Y-116840000D01*
X44827041Y-116840000D01*
X44941115Y-117413489D01*
X45265971Y-117899670D01*
X45580752Y-118110000D01*
X45265971Y-118320330D01*
X44941115Y-118806511D01*
X44827041Y-119380000D01*
X44941115Y-119953489D01*
X45265971Y-120439670D01*
X45752152Y-120764526D01*
X46325641Y-120878600D01*
X46384359Y-120878600D01*
X46957848Y-120764526D01*
X47444029Y-120439670D01*
X47625000Y-120168828D01*
X47805971Y-120439670D01*
X48292152Y-120764526D01*
X48865641Y-120878600D01*
X48924359Y-120878600D01*
X49497848Y-120764526D01*
X49984029Y-120439670D01*
X50308885Y-119953489D01*
X50422959Y-119380000D01*
X50308885Y-118806511D01*
X49984029Y-118320330D01*
X49669248Y-118110000D01*
X49984029Y-117899670D01*
X50308885Y-117413489D01*
X50422959Y-116840000D01*
X50308885Y-116266511D01*
X49984029Y-115780330D01*
X49660772Y-115564336D01*
X49783490Y-115506821D01*
X50177688Y-115074947D01*
X50349958Y-114659026D01*
X50228817Y-114427000D01*
X49022000Y-114427000D01*
X49022000Y-114447000D01*
X48768000Y-114447000D01*
X48768000Y-114427000D01*
X48748000Y-114427000D01*
X48748000Y-114173000D01*
X48768000Y-114173000D01*
X48768000Y-112965531D01*
X49022000Y-112965531D01*
X49022000Y-114173000D01*
X50228817Y-114173000D01*
X50349958Y-113940974D01*
X50177688Y-113525053D01*
X49783490Y-113093179D01*
X49254027Y-112845032D01*
X49022000Y-112965531D01*
X48768000Y-112965531D01*
X48535973Y-112845032D01*
X48006510Y-113093179D01*
X47836505Y-113279433D01*
X47821762Y-113201083D01*
X47682690Y-112984959D01*
X47470490Y-112839969D01*
X47218600Y-112788960D01*
X45491400Y-112788960D01*
X45256083Y-112833238D01*
X45039959Y-112972310D01*
X44894969Y-113184510D01*
X44843960Y-113436400D01*
X44843960Y-115163600D01*
X44888238Y-115398917D01*
X45027310Y-115615041D01*
X45239510Y-115760031D01*
X45283131Y-115768864D01*
X45265971Y-115780330D01*
X44941115Y-116266511D01*
X44827041Y-116840000D01*
X44577000Y-116840000D01*
X44577000Y-106484167D01*
X48340838Y-106484167D01*
X48482883Y-106827943D01*
X48745673Y-107091192D01*
X49089201Y-107233838D01*
X49461167Y-107234162D01*
X49804943Y-107092117D01*
X50068192Y-106829327D01*
X50210838Y-106485799D01*
X50210879Y-106438923D01*
X50884436Y-105765366D01*
X50955910Y-105876441D01*
X51168110Y-106021431D01*
X51420000Y-106072440D01*
X52720000Y-106072440D01*
X52955317Y-106028162D01*
X52961000Y-106024505D01*
X52961000Y-108016198D01*
X52439957Y-108537241D01*
X52326724Y-108490223D01*
X51815519Y-108489777D01*
X51343057Y-108684995D01*
X50981265Y-109046155D01*
X50785223Y-109518276D01*
X50784777Y-110029481D01*
X50979995Y-110501943D01*
X51310000Y-110832525D01*
X51310000Y-120990403D01*
X51287057Y-120999883D01*
X51023808Y-121262673D01*
X50881162Y-121606201D01*
X50880838Y-121978167D01*
X51022883Y-122321943D01*
X51285673Y-122585192D01*
X51629201Y-122727838D01*
X52001167Y-122728162D01*
X52344943Y-122586117D01*
X52608192Y-122323327D01*
X52750838Y-121979799D01*
X52750941Y-121861579D01*
X52772148Y-121829840D01*
X52830000Y-121539000D01*
X52830000Y-113088167D01*
X53166838Y-113088167D01*
X53308883Y-113431943D01*
X53571673Y-113695192D01*
X53915201Y-113837838D01*
X53962077Y-113837879D01*
X55596599Y-115472401D01*
X55843161Y-115637148D01*
X56134000Y-115695000D01*
X57336475Y-115695000D01*
X57235030Y-116205000D01*
X57336475Y-116715000D01*
X55299463Y-116715000D01*
X55267327Y-116682808D01*
X54923799Y-116540162D01*
X54551833Y-116539838D01*
X54208057Y-116681883D01*
X53944808Y-116944673D01*
X53802162Y-117288201D01*
X53801838Y-117660167D01*
X53943883Y-118003943D01*
X54206673Y-118267192D01*
X54550201Y-118409838D01*
X54922167Y-118410162D01*
X55265943Y-118268117D01*
X55299118Y-118235000D01*
X57090369Y-118235000D01*
X55722185Y-119603185D01*
X55557004Y-119850395D01*
X55499000Y-120142000D01*
X55499000Y-126111000D01*
X55557004Y-126402605D01*
X55579937Y-126436926D01*
X55579838Y-126550167D01*
X55721883Y-126893943D01*
X55984673Y-127157192D01*
X56328201Y-127299838D01*
X56700167Y-127300162D01*
X57043943Y-127158117D01*
X57307192Y-126895327D01*
X57449838Y-126551799D01*
X57450162Y-126179833D01*
X57308117Y-125836057D01*
X57045327Y-125572808D01*
X57023000Y-125563537D01*
X57023000Y-120457630D01*
X57694657Y-119785974D01*
X58037418Y-120015000D01*
X57655332Y-120270302D01*
X57344263Y-120735849D01*
X57235030Y-121285000D01*
X57344263Y-121834151D01*
X57655332Y-122299698D01*
X58037418Y-122555000D01*
X57655332Y-122810302D01*
X57344263Y-123275849D01*
X57235030Y-123825000D01*
X57344263Y-124374151D01*
X57655332Y-124839698D01*
X58120879Y-125150767D01*
X58670030Y-125260000D01*
X59439970Y-125260000D01*
X59989121Y-125150767D01*
X60454668Y-124839698D01*
X60765737Y-124374151D01*
X60874970Y-123825000D01*
X60765737Y-123275849D01*
X60454668Y-122810302D01*
X60072582Y-122555000D01*
X60454668Y-122299698D01*
X60623516Y-122047000D01*
X61923755Y-122047000D01*
X62080673Y-122204192D01*
X62424201Y-122346838D01*
X62796167Y-122347162D01*
X63139943Y-122205117D01*
X63403192Y-121942327D01*
X63545838Y-121598799D01*
X63546162Y-121226833D01*
X63404117Y-120883057D01*
X63141327Y-120619808D01*
X62797799Y-120477162D01*
X62425833Y-120476838D01*
X62314112Y-120523000D01*
X60623516Y-120523000D01*
X60454668Y-120270302D01*
X60072582Y-120015000D01*
X60454668Y-119759698D01*
X60765737Y-119294151D01*
X60874970Y-118745000D01*
X60773525Y-118235000D01*
X61026198Y-118235000D01*
X62073599Y-119282401D01*
X62320160Y-119447148D01*
X62611000Y-119505000D01*
X65105148Y-119505000D01*
X65275332Y-119759698D01*
X65657418Y-120015000D01*
X65275332Y-120270302D01*
X64964263Y-120735849D01*
X64855030Y-121285000D01*
X64964263Y-121834151D01*
X65275332Y-122299698D01*
X65657418Y-122555000D01*
X65275332Y-122810302D01*
X64964263Y-123275849D01*
X64855030Y-123825000D01*
X64964263Y-124374151D01*
X65275332Y-124839698D01*
X65740879Y-125150767D01*
X66290030Y-125260000D01*
X67059970Y-125260000D01*
X67609121Y-125150767D01*
X68074668Y-124839698D01*
X68385737Y-124374151D01*
X68494970Y-123825000D01*
X68385737Y-123275849D01*
X68074668Y-122810302D01*
X67692582Y-122555000D01*
X68074668Y-122299698D01*
X68385737Y-121834151D01*
X68494970Y-121285000D01*
X68385737Y-120735849D01*
X68074668Y-120270302D01*
X67692582Y-120015000D01*
X68074668Y-119759698D01*
X68385737Y-119294151D01*
X68494970Y-118745000D01*
X68385737Y-118195849D01*
X68074668Y-117730302D01*
X67692582Y-117475000D01*
X68074668Y-117219698D01*
X68385737Y-116754151D01*
X68494970Y-116205000D01*
X68385737Y-115655849D01*
X68074668Y-115190302D01*
X67692582Y-114935000D01*
X68074668Y-114679698D01*
X68137442Y-114585750D01*
X69835000Y-114585750D01*
X69835000Y-115076309D01*
X69931673Y-115309698D01*
X70110301Y-115488327D01*
X70343690Y-115585000D01*
X70834250Y-115585000D01*
X70993000Y-115426250D01*
X70993000Y-114427000D01*
X71247000Y-114427000D01*
X71247000Y-115426250D01*
X71405750Y-115585000D01*
X71896310Y-115585000D01*
X72129699Y-115488327D01*
X72308327Y-115309698D01*
X72405000Y-115076309D01*
X72405000Y-114585750D01*
X72246250Y-114427000D01*
X71247000Y-114427000D01*
X70993000Y-114427000D01*
X69993750Y-114427000D01*
X69835000Y-114585750D01*
X68137442Y-114585750D01*
X68385737Y-114214151D01*
X68494970Y-113665000D01*
X68466862Y-113523691D01*
X69835000Y-113523691D01*
X69835000Y-114014250D01*
X69993750Y-114173000D01*
X70993000Y-114173000D01*
X70993000Y-113173750D01*
X71247000Y-113173750D01*
X71247000Y-114173000D01*
X72246250Y-114173000D01*
X72405000Y-114014250D01*
X72405000Y-113523691D01*
X72308327Y-113290302D01*
X72129699Y-113111673D01*
X71896310Y-113015000D01*
X71405750Y-113015000D01*
X71247000Y-113173750D01*
X70993000Y-113173750D01*
X70834250Y-113015000D01*
X70343690Y-113015000D01*
X70110301Y-113111673D01*
X69931673Y-113290302D01*
X69835000Y-113523691D01*
X68466862Y-113523691D01*
X68385737Y-113115849D01*
X68074668Y-112650302D01*
X67696849Y-112397851D01*
X68129500Y-112049896D01*
X68399367Y-111556819D01*
X68416904Y-111474039D01*
X68294915Y-111252000D01*
X66802000Y-111252000D01*
X66802000Y-111272000D01*
X66548000Y-111272000D01*
X66548000Y-111252000D01*
X65055085Y-111252000D01*
X64933096Y-111474039D01*
X64950633Y-111556819D01*
X65220500Y-112049896D01*
X65653151Y-112397851D01*
X65275332Y-112650302D01*
X65105148Y-112905000D01*
X62925802Y-112905000D01*
X61878401Y-111857599D01*
X61631839Y-111692852D01*
X61341000Y-111635000D01*
X60773525Y-111635000D01*
X60874970Y-111125000D01*
X60765737Y-110575849D01*
X60454668Y-110110302D01*
X60072582Y-109855000D01*
X60454668Y-109599698D01*
X60765737Y-109134151D01*
X60805541Y-108934039D01*
X64933096Y-108934039D01*
X64950633Y-109016819D01*
X65220500Y-109509896D01*
X65649607Y-109855000D01*
X65220500Y-110200104D01*
X64950633Y-110693181D01*
X64933096Y-110775961D01*
X65055085Y-110998000D01*
X66548000Y-110998000D01*
X66548000Y-108712000D01*
X66802000Y-108712000D01*
X66802000Y-110998000D01*
X68294915Y-110998000D01*
X68416904Y-110775961D01*
X68399367Y-110693181D01*
X68129500Y-110200104D01*
X67700393Y-109855000D01*
X68074062Y-109554481D01*
X69834777Y-109554481D01*
X70029995Y-110026943D01*
X70391155Y-110388735D01*
X70863276Y-110584777D01*
X71374481Y-110585223D01*
X71846943Y-110390005D01*
X72208735Y-110028845D01*
X72404777Y-109556724D01*
X72405223Y-109045519D01*
X72210005Y-108573057D01*
X71848845Y-108211265D01*
X71376724Y-108015223D01*
X70865519Y-108014777D01*
X70393057Y-108209995D01*
X70031265Y-108571155D01*
X69835223Y-109043276D01*
X69834777Y-109554481D01*
X68074062Y-109554481D01*
X68129500Y-109509896D01*
X68399367Y-109016819D01*
X68416904Y-108934039D01*
X68294915Y-108712000D01*
X66802000Y-108712000D01*
X66548000Y-108712000D01*
X65055085Y-108712000D01*
X64933096Y-108934039D01*
X60805541Y-108934039D01*
X60874970Y-108585000D01*
X60765737Y-108035849D01*
X60454668Y-107570302D01*
X60076849Y-107317851D01*
X60509500Y-106969896D01*
X60779367Y-106476819D01*
X60796904Y-106394039D01*
X60674915Y-106172000D01*
X59182000Y-106172000D01*
X59182000Y-106192000D01*
X58928000Y-106192000D01*
X58928000Y-106172000D01*
X57435085Y-106172000D01*
X57313096Y-106394039D01*
X57330633Y-106476819D01*
X57600500Y-106969896D01*
X58033151Y-107317851D01*
X57655332Y-107570302D01*
X57344263Y-108035849D01*
X57235030Y-108585000D01*
X57344263Y-109134151D01*
X57655332Y-109599698D01*
X58037418Y-109855000D01*
X57655332Y-110110302D01*
X57344263Y-110575849D01*
X57235030Y-111125000D01*
X57336475Y-111635000D01*
X56950463Y-111635000D01*
X56918327Y-111602808D01*
X56574799Y-111460162D01*
X56202833Y-111459838D01*
X55859057Y-111601883D01*
X55595808Y-111864673D01*
X55453162Y-112208201D01*
X55452838Y-112580167D01*
X55594883Y-112923943D01*
X55857673Y-113187192D01*
X56201201Y-113329838D01*
X56573167Y-113330162D01*
X56916943Y-113188117D01*
X56950118Y-113155000D01*
X57336475Y-113155000D01*
X57235030Y-113665000D01*
X57336475Y-114175000D01*
X56448802Y-114175000D01*
X55037122Y-112763320D01*
X55037162Y-112717833D01*
X54895117Y-112374057D01*
X54632327Y-112110808D01*
X54288799Y-111968162D01*
X53916833Y-111967838D01*
X53573057Y-112109883D01*
X53309808Y-112372673D01*
X53167162Y-112716201D01*
X53166838Y-113088167D01*
X52830000Y-113088167D01*
X52830000Y-110832006D01*
X53158735Y-110503845D01*
X53354777Y-110031724D01*
X53354778Y-110029481D01*
X53959777Y-110029481D01*
X54154995Y-110501943D01*
X54516155Y-110863735D01*
X54988276Y-111059777D01*
X55499481Y-111060223D01*
X55971943Y-110865005D01*
X56333735Y-110503845D01*
X56529777Y-110031724D01*
X56530223Y-109520519D01*
X56335005Y-109048057D01*
X55973845Y-108686265D01*
X55501724Y-108490223D01*
X54990519Y-108489777D01*
X54518057Y-108684995D01*
X54156265Y-109046155D01*
X53960223Y-109518276D01*
X53959777Y-110029481D01*
X53354778Y-110029481D01*
X53355004Y-109771798D01*
X54258401Y-108868401D01*
X54423148Y-108621840D01*
X54481000Y-108331000D01*
X54481000Y-106060000D01*
X54959250Y-106060000D01*
X55118000Y-105901250D01*
X55118000Y-104902000D01*
X55372000Y-104902000D01*
X55372000Y-105901250D01*
X55530750Y-106060000D01*
X56021310Y-106060000D01*
X56254699Y-105963327D01*
X56433327Y-105784698D01*
X56530000Y-105551309D01*
X56530000Y-105060750D01*
X56371250Y-104902000D01*
X55372000Y-104902000D01*
X55118000Y-104902000D01*
X55098000Y-104902000D01*
X55098000Y-104648000D01*
X55118000Y-104648000D01*
X55118000Y-103648750D01*
X55372000Y-103648750D01*
X55372000Y-104648000D01*
X56371250Y-104648000D01*
X56530000Y-104489250D01*
X56530000Y-103998691D01*
X56433327Y-103765302D01*
X56254699Y-103586673D01*
X56021310Y-103490000D01*
X55530750Y-103490000D01*
X55372000Y-103648750D01*
X55118000Y-103648750D01*
X54959250Y-103490000D01*
X54478016Y-103490000D01*
X54423148Y-103214161D01*
X54423148Y-103214160D01*
X54258401Y-102967599D01*
X53894397Y-102603595D01*
X54360377Y-102586341D01*
X54848958Y-102383965D01*
X54947557Y-102117163D01*
X53975000Y-101144605D01*
X53002443Y-102117163D01*
X53093664Y-102364000D01*
X52511802Y-102364000D01*
X51989122Y-101841320D01*
X51989162Y-101795833D01*
X51847117Y-101452057D01*
X51584327Y-101188808D01*
X51240799Y-101046162D01*
X50868833Y-101045838D01*
X50525057Y-101187883D01*
X50261808Y-101450673D01*
X50119162Y-101794201D01*
X50118838Y-102166167D01*
X50260883Y-102509943D01*
X50523673Y-102773192D01*
X50867201Y-102915838D01*
X50914077Y-102915879D01*
X51475758Y-103477560D01*
X51420000Y-103477560D01*
X51184683Y-103521838D01*
X50968559Y-103660910D01*
X50823569Y-103873110D01*
X50794619Y-104016070D01*
X50557414Y-104063254D01*
X50509160Y-104072852D01*
X50262599Y-104237599D01*
X49136320Y-105363878D01*
X49090833Y-105363838D01*
X48747057Y-105505883D01*
X48483808Y-105768673D01*
X48341162Y-106112201D01*
X48340838Y-106484167D01*
X44577000Y-106484167D01*
X44577000Y-98425000D01*
X45941655Y-98425000D01*
X46055729Y-98998489D01*
X46380585Y-99484670D01*
X46695366Y-99695000D01*
X46380585Y-99905330D01*
X46055729Y-100391511D01*
X45941655Y-100965000D01*
X46055729Y-101538489D01*
X46380585Y-102024670D01*
X46695366Y-102235000D01*
X46380585Y-102445330D01*
X46055729Y-102931511D01*
X45941655Y-103505000D01*
X46055729Y-104078489D01*
X46380585Y-104564670D01*
X46866766Y-104889526D01*
X47440255Y-105003600D01*
X47809745Y-105003600D01*
X48383234Y-104889526D01*
X48869415Y-104564670D01*
X49194271Y-104078489D01*
X49308345Y-103505000D01*
X49194271Y-102931511D01*
X48869415Y-102445330D01*
X48554634Y-102235000D01*
X48869415Y-102024670D01*
X49068312Y-101727000D01*
X49403000Y-101727000D01*
X49694605Y-101668996D01*
X49941815Y-101503815D01*
X50745048Y-100700582D01*
X52329599Y-100700582D01*
X52353659Y-101350377D01*
X52556035Y-101838958D01*
X52822837Y-101937557D01*
X53795395Y-100965000D01*
X54154605Y-100965000D01*
X55127163Y-101937557D01*
X55393965Y-101838958D01*
X55620401Y-101229418D01*
X55596341Y-100579623D01*
X55393965Y-100091042D01*
X55127163Y-99992443D01*
X54154605Y-100965000D01*
X53795395Y-100965000D01*
X52822837Y-99992443D01*
X52556035Y-100091042D01*
X52329599Y-100700582D01*
X50745048Y-100700582D01*
X51632793Y-99812837D01*
X53002443Y-99812837D01*
X53975000Y-100785395D01*
X54947557Y-99812837D01*
X54848958Y-99546035D01*
X54239418Y-99319599D01*
X53589623Y-99343659D01*
X53101042Y-99546035D01*
X53002443Y-99812837D01*
X51632793Y-99812837D01*
X54798630Y-96647000D01*
X57486484Y-96647000D01*
X57655332Y-96899698D01*
X58037418Y-97155000D01*
X57655332Y-97410302D01*
X57344263Y-97875849D01*
X57235030Y-98425000D01*
X57344263Y-98974151D01*
X57655332Y-99439698D01*
X58037418Y-99695000D01*
X57655332Y-99950302D01*
X57344263Y-100415849D01*
X57235030Y-100965000D01*
X57344263Y-101514151D01*
X57655332Y-101979698D01*
X58037418Y-102235000D01*
X57655332Y-102490302D01*
X57344263Y-102955849D01*
X57235030Y-103505000D01*
X57344263Y-104054151D01*
X57655332Y-104519698D01*
X58033151Y-104772149D01*
X57600500Y-105120104D01*
X57330633Y-105613181D01*
X57313096Y-105695961D01*
X57435085Y-105918000D01*
X58928000Y-105918000D01*
X58928000Y-105898000D01*
X59182000Y-105898000D01*
X59182000Y-105918000D01*
X60674915Y-105918000D01*
X60796904Y-105695961D01*
X60779367Y-105613181D01*
X60509500Y-105120104D01*
X60076849Y-104772149D01*
X60454668Y-104519698D01*
X60765737Y-104054151D01*
X60874970Y-103505000D01*
X60765737Y-102955849D01*
X60454668Y-102490302D01*
X60072582Y-102235000D01*
X60454668Y-101979698D01*
X60765737Y-101514151D01*
X60874970Y-100965000D01*
X60765737Y-100415849D01*
X60454668Y-99950302D01*
X60072582Y-99695000D01*
X60454668Y-99439698D01*
X60765737Y-98974151D01*
X60874970Y-98425000D01*
X60765737Y-97875849D01*
X60454668Y-97410302D01*
X60072582Y-97155000D01*
X60454668Y-96899698D01*
X60765737Y-96434151D01*
X60874970Y-95885000D01*
X60765737Y-95335849D01*
X60454668Y-94870302D01*
X60072582Y-94615000D01*
X60454668Y-94359698D01*
X60765737Y-93894151D01*
X60874970Y-93345000D01*
X60765737Y-92795849D01*
X60454668Y-92330302D01*
X60072582Y-92075000D01*
X60454668Y-91819698D01*
X60765737Y-91354151D01*
X60874970Y-90805000D01*
X60765737Y-90255849D01*
X60454668Y-89790302D01*
X59989121Y-89479233D01*
X59439970Y-89370000D01*
X58670030Y-89370000D01*
X58120879Y-89479233D01*
X57655332Y-89790302D01*
X57486484Y-90043000D01*
X55428670Y-90043000D01*
X55361462Y-89880345D01*
X54902073Y-89420154D01*
X54301547Y-89170794D01*
X53651306Y-89170226D01*
X53050345Y-89418538D01*
X52590154Y-89877927D01*
X52340794Y-90478453D01*
X52340226Y-91128694D01*
X52588538Y-91729655D01*
X53047927Y-92189846D01*
X53648453Y-92439206D01*
X54298694Y-92439774D01*
X54899655Y-92191462D01*
X55359846Y-91732073D01*
X55428390Y-91567000D01*
X57486484Y-91567000D01*
X57655332Y-91819698D01*
X58037418Y-92075000D01*
X57655332Y-92330302D01*
X57486484Y-92583000D01*
X54610000Y-92583000D01*
X54318395Y-92641004D01*
X54086654Y-92795849D01*
X54071185Y-92806185D01*
X49214370Y-97663000D01*
X49068312Y-97663000D01*
X48869415Y-97365330D01*
X48559931Y-97158539D01*
X48975732Y-96787036D01*
X49229709Y-96259791D01*
X49232358Y-96244026D01*
X49111217Y-96012000D01*
X47752000Y-96012000D01*
X47752000Y-96032000D01*
X47498000Y-96032000D01*
X47498000Y-96012000D01*
X46138783Y-96012000D01*
X46017642Y-96244026D01*
X46020291Y-96259791D01*
X46274268Y-96787036D01*
X46690069Y-97158539D01*
X46380585Y-97365330D01*
X46055729Y-97851511D01*
X45941655Y-98425000D01*
X44577000Y-98425000D01*
X44577000Y-93345000D01*
X45941655Y-93345000D01*
X46055729Y-93918489D01*
X46380585Y-94404670D01*
X46690069Y-94611461D01*
X46274268Y-94982964D01*
X46020291Y-95510209D01*
X46017642Y-95525974D01*
X46138783Y-95758000D01*
X47498000Y-95758000D01*
X47498000Y-95738000D01*
X47752000Y-95738000D01*
X47752000Y-95758000D01*
X49111217Y-95758000D01*
X49232358Y-95525974D01*
X49229709Y-95510209D01*
X48975732Y-94982964D01*
X48559931Y-94611461D01*
X48869415Y-94404670D01*
X49194271Y-93918489D01*
X49308345Y-93345000D01*
X49194271Y-92771511D01*
X48869415Y-92285330D01*
X48855087Y-92275757D01*
X48876317Y-92271762D01*
X49092441Y-92132690D01*
X49237431Y-91920490D01*
X49288440Y-91668600D01*
X49288440Y-89941400D01*
X49244162Y-89706083D01*
X49105090Y-89489959D01*
X48892890Y-89344969D01*
X48641000Y-89293960D01*
X46609000Y-89293960D01*
X46373683Y-89338238D01*
X46157559Y-89477310D01*
X46012569Y-89689510D01*
X45961560Y-89941400D01*
X45961560Y-91668600D01*
X46005838Y-91903917D01*
X46144910Y-92120041D01*
X46357110Y-92265031D01*
X46398439Y-92273400D01*
X46380585Y-92285330D01*
X46055729Y-92771511D01*
X45941655Y-93345000D01*
X44577000Y-93345000D01*
X44577000Y-85607163D01*
X58082443Y-85607163D01*
X58181042Y-85873965D01*
X58790582Y-86100401D01*
X59440377Y-86076341D01*
X59928958Y-85873965D01*
X60027557Y-85607163D01*
X59055000Y-84634605D01*
X58082443Y-85607163D01*
X44577000Y-85607163D01*
X44577000Y-84190582D01*
X57409599Y-84190582D01*
X57433659Y-84840377D01*
X57636035Y-85328958D01*
X57902837Y-85427557D01*
X58875395Y-84455000D01*
X59234605Y-84455000D01*
X60207163Y-85427557D01*
X60454000Y-85336336D01*
X60454000Y-89154000D01*
X60511852Y-89444839D01*
X60676599Y-89691401D01*
X61294878Y-90309680D01*
X61294838Y-90355167D01*
X61436883Y-90698943D01*
X61699673Y-90962192D01*
X62043201Y-91104838D01*
X62415167Y-91105162D01*
X62758943Y-90963117D01*
X63022192Y-90700327D01*
X63164838Y-90356799D01*
X63165162Y-89984833D01*
X63023117Y-89641057D01*
X62760327Y-89377808D01*
X62416799Y-89235162D01*
X62369923Y-89235121D01*
X61974000Y-88839198D01*
X61974000Y-85827851D01*
X61991042Y-85873965D01*
X62600582Y-86100401D01*
X63250377Y-86076341D01*
X63738958Y-85873965D01*
X63837557Y-85607163D01*
X65702443Y-85607163D01*
X65801042Y-85873965D01*
X66410582Y-86100401D01*
X67060377Y-86076341D01*
X67548958Y-85873965D01*
X67647557Y-85607163D01*
X66675000Y-84634605D01*
X65702443Y-85607163D01*
X63837557Y-85607163D01*
X62865000Y-84634605D01*
X62850858Y-84648748D01*
X62671252Y-84469142D01*
X62685395Y-84455000D01*
X63044605Y-84455000D01*
X64017163Y-85427557D01*
X64283965Y-85328958D01*
X64510401Y-84719418D01*
X64490820Y-84190582D01*
X65029599Y-84190582D01*
X65053659Y-84840377D01*
X65256035Y-85328958D01*
X65522837Y-85427557D01*
X66495395Y-84455000D01*
X66854605Y-84455000D01*
X67827163Y-85427557D01*
X68093965Y-85328958D01*
X68320401Y-84719418D01*
X68300820Y-84190582D01*
X68839599Y-84190582D01*
X68863659Y-84840377D01*
X69066035Y-85328958D01*
X69332837Y-85427557D01*
X70305395Y-84455000D01*
X69332837Y-83482443D01*
X69066035Y-83581042D01*
X68839599Y-84190582D01*
X68300820Y-84190582D01*
X68296341Y-84069623D01*
X68093965Y-83581042D01*
X67827163Y-83482443D01*
X66854605Y-84455000D01*
X66495395Y-84455000D01*
X65522837Y-83482443D01*
X65256035Y-83581042D01*
X65029599Y-84190582D01*
X64490820Y-84190582D01*
X64486341Y-84069623D01*
X64283965Y-83581042D01*
X64017163Y-83482443D01*
X63044605Y-84455000D01*
X62685395Y-84455000D01*
X62671252Y-84440858D01*
X62850858Y-84261252D01*
X62865000Y-84275395D01*
X63837557Y-83302837D01*
X65702443Y-83302837D01*
X66675000Y-84275395D01*
X67647557Y-83302837D01*
X67548958Y-83036035D01*
X66939418Y-82809599D01*
X66289623Y-82833659D01*
X65801042Y-83036035D01*
X65702443Y-83302837D01*
X63837557Y-83302837D01*
X63738958Y-83036035D01*
X63129418Y-82809599D01*
X62479623Y-82833659D01*
X61991042Y-83036035D01*
X61974000Y-83082149D01*
X61974000Y-82864802D01*
X63131680Y-81707122D01*
X63177167Y-81707162D01*
X63520943Y-81565117D01*
X63784192Y-81302327D01*
X63926838Y-80958799D01*
X63927162Y-80586833D01*
X63785117Y-80243057D01*
X63522327Y-79979808D01*
X63178799Y-79837162D01*
X62806833Y-79836838D01*
X62463057Y-79978883D01*
X62199808Y-80241673D01*
X62057162Y-80585201D01*
X62057121Y-80632077D01*
X60676599Y-82012599D01*
X60511852Y-82259161D01*
X60454000Y-82550000D01*
X60454000Y-83573664D01*
X60207163Y-83482443D01*
X59234605Y-84455000D01*
X58875395Y-84455000D01*
X57902837Y-83482443D01*
X57636035Y-83581042D01*
X57409599Y-84190582D01*
X44577000Y-84190582D01*
X44577000Y-83302837D01*
X58082443Y-83302837D01*
X59055000Y-84275395D01*
X60027557Y-83302837D01*
X59928958Y-83036035D01*
X59319418Y-82809599D01*
X58669623Y-82833659D01*
X58181042Y-83036035D01*
X58082443Y-83302837D01*
X44577000Y-83302837D01*
X44577000Y-80930750D01*
X45705000Y-80930750D01*
X45705000Y-81421309D01*
X45801673Y-81654698D01*
X45980301Y-81833327D01*
X46213690Y-81930000D01*
X46704250Y-81930000D01*
X46863000Y-81771250D01*
X46863000Y-80772000D01*
X47117000Y-80772000D01*
X47117000Y-81771250D01*
X47275750Y-81930000D01*
X47766310Y-81930000D01*
X47999699Y-81833327D01*
X48178327Y-81654698D01*
X48275000Y-81421309D01*
X48275000Y-80930750D01*
X48163731Y-80819481D01*
X53324777Y-80819481D01*
X53519995Y-81291943D01*
X53881155Y-81653735D01*
X54353276Y-81849777D01*
X54864481Y-81850223D01*
X55336943Y-81655005D01*
X55698735Y-81293845D01*
X55785801Y-81084167D01*
X59135838Y-81084167D01*
X59277883Y-81427943D01*
X59540673Y-81691192D01*
X59884201Y-81833838D01*
X60256167Y-81834162D01*
X60599943Y-81692117D01*
X60863192Y-81429327D01*
X61005838Y-81085799D01*
X61005876Y-81041754D01*
X62387816Y-79659815D01*
X62387818Y-79659812D01*
X66185916Y-75861715D01*
X66348453Y-75929206D01*
X66998694Y-75929774D01*
X67599655Y-75681462D01*
X68059846Y-75222073D01*
X68309206Y-74621547D01*
X68309774Y-73971306D01*
X68061462Y-73370345D01*
X67602073Y-72910154D01*
X67001547Y-72660794D01*
X66351306Y-72660226D01*
X65750345Y-72908538D01*
X65290154Y-73367927D01*
X65040794Y-73968453D01*
X65040226Y-74618694D01*
X65108482Y-74783887D01*
X61310188Y-78582182D01*
X61310185Y-78582184D01*
X59928495Y-79963875D01*
X59885833Y-79963838D01*
X59542057Y-80105883D01*
X59278808Y-80368673D01*
X59136162Y-80712201D01*
X59135838Y-81084167D01*
X55785801Y-81084167D01*
X55894777Y-80821724D01*
X55895223Y-80310519D01*
X55700005Y-79838057D01*
X55338845Y-79476265D01*
X54866724Y-79280223D01*
X54355519Y-79279777D01*
X53883057Y-79474995D01*
X53521265Y-79836155D01*
X53325223Y-80308276D01*
X53324777Y-80819481D01*
X48163731Y-80819481D01*
X48116250Y-80772000D01*
X47117000Y-80772000D01*
X46863000Y-80772000D01*
X45863750Y-80772000D01*
X45705000Y-80930750D01*
X44577000Y-80930750D01*
X44577000Y-79868691D01*
X45705000Y-79868691D01*
X45705000Y-80359250D01*
X45863750Y-80518000D01*
X46863000Y-80518000D01*
X46863000Y-79518750D01*
X47117000Y-79518750D01*
X47117000Y-80518000D01*
X48116250Y-80518000D01*
X48275000Y-80359250D01*
X48275000Y-79868691D01*
X48178327Y-79635302D01*
X47999699Y-79456673D01*
X47766310Y-79360000D01*
X47275750Y-79360000D01*
X47117000Y-79518750D01*
X46863000Y-79518750D01*
X46704250Y-79360000D01*
X46213690Y-79360000D01*
X45980301Y-79456673D01*
X45801673Y-79635302D01*
X45705000Y-79868691D01*
X44577000Y-79868691D01*
X44577000Y-78417167D01*
X56341838Y-78417167D01*
X56483883Y-78760943D01*
X56746673Y-79024192D01*
X57090201Y-79166838D01*
X57462167Y-79167162D01*
X57805943Y-79025117D01*
X57837114Y-78994000D01*
X59944000Y-78994000D01*
X60235605Y-78935996D01*
X60482815Y-78770815D01*
X63403815Y-75849815D01*
X63412055Y-75837483D01*
X63789655Y-75681462D01*
X64249846Y-75222073D01*
X64499206Y-74621547D01*
X64499774Y-73971306D01*
X64251462Y-73370345D01*
X63792073Y-72910154D01*
X63191547Y-72660794D01*
X62541306Y-72660226D01*
X61940345Y-72908538D01*
X61480154Y-73367927D01*
X61230794Y-73968453D01*
X61230226Y-74618694D01*
X61478538Y-75219655D01*
X61678452Y-75419918D01*
X59628370Y-77470000D01*
X57837466Y-77470000D01*
X57807327Y-77439808D01*
X57463799Y-77297162D01*
X57091833Y-77296838D01*
X56748057Y-77438883D01*
X56484808Y-77701673D01*
X56342162Y-78045201D01*
X56341838Y-78417167D01*
X44577000Y-78417167D01*
X44577000Y-75899481D01*
X45704777Y-75899481D01*
X45899995Y-76371943D01*
X46261155Y-76733735D01*
X46733276Y-76929777D01*
X47244481Y-76930223D01*
X47716943Y-76735005D01*
X48078735Y-76373845D01*
X48274777Y-75901724D01*
X48274821Y-75850750D01*
X53325000Y-75850750D01*
X53325000Y-76341309D01*
X53421673Y-76574698D01*
X53600301Y-76753327D01*
X53833690Y-76850000D01*
X54324250Y-76850000D01*
X54483000Y-76691250D01*
X54483000Y-75692000D01*
X54737000Y-75692000D01*
X54737000Y-76691250D01*
X54895750Y-76850000D01*
X55386310Y-76850000D01*
X55619699Y-76753327D01*
X55798327Y-76574698D01*
X55895000Y-76341309D01*
X55895000Y-75850750D01*
X55736250Y-75692000D01*
X54737000Y-75692000D01*
X54483000Y-75692000D01*
X53483750Y-75692000D01*
X53325000Y-75850750D01*
X48274821Y-75850750D01*
X48275223Y-75390519D01*
X48080005Y-74918057D01*
X47950865Y-74788691D01*
X53325000Y-74788691D01*
X53325000Y-75279250D01*
X53483750Y-75438000D01*
X54483000Y-75438000D01*
X54483000Y-74438750D01*
X54737000Y-74438750D01*
X54737000Y-75438000D01*
X55736250Y-75438000D01*
X55895000Y-75279250D01*
X55895000Y-74788691D01*
X55824585Y-74618694D01*
X57420226Y-74618694D01*
X57668538Y-75219655D01*
X58127927Y-75679846D01*
X58728453Y-75929206D01*
X59378694Y-75929774D01*
X59979655Y-75681462D01*
X60439846Y-75222073D01*
X60689206Y-74621547D01*
X60689774Y-73971306D01*
X60441462Y-73370345D01*
X59982073Y-72910154D01*
X59381547Y-72660794D01*
X58731306Y-72660226D01*
X58130345Y-72908538D01*
X57670154Y-73367927D01*
X57420794Y-73968453D01*
X57420226Y-74618694D01*
X55824585Y-74618694D01*
X55798327Y-74555302D01*
X55619699Y-74376673D01*
X55386310Y-74280000D01*
X54895750Y-74280000D01*
X54737000Y-74438750D01*
X54483000Y-74438750D01*
X54324250Y-74280000D01*
X53833690Y-74280000D01*
X53600301Y-74376673D01*
X53421673Y-74555302D01*
X53325000Y-74788691D01*
X47950865Y-74788691D01*
X47718845Y-74556265D01*
X47246724Y-74360223D01*
X46735519Y-74359777D01*
X46263057Y-74554995D01*
X45901265Y-74916155D01*
X45705223Y-75388276D01*
X45704777Y-75899481D01*
X44577000Y-75899481D01*
X44577000Y-68850000D01*
X45342560Y-68850000D01*
X45342560Y-70850000D01*
X45386838Y-71085317D01*
X45525910Y-71301441D01*
X45738110Y-71446431D01*
X45990000Y-71497440D01*
X47990000Y-71497440D01*
X48225317Y-71453162D01*
X48441441Y-71314090D01*
X48538910Y-71171439D01*
X48602637Y-71235278D01*
X49203352Y-71484716D01*
X49853795Y-71485284D01*
X50454943Y-71236894D01*
X50915278Y-70777363D01*
X51164716Y-70176648D01*
X51165284Y-69526205D01*
X50916894Y-68925057D01*
X50841969Y-68850000D01*
X73282560Y-68850000D01*
X73282560Y-70850000D01*
X73326838Y-71085317D01*
X73465910Y-71301441D01*
X73678110Y-71446431D01*
X73930000Y-71497440D01*
X75930000Y-71497440D01*
X76165317Y-71453162D01*
X76381441Y-71314090D01*
X76478910Y-71171439D01*
X76542637Y-71235278D01*
X77143352Y-71484716D01*
X77793795Y-71485284D01*
X78394943Y-71236894D01*
X78855278Y-70777363D01*
X79104716Y-70176648D01*
X79105284Y-69526205D01*
X78856894Y-68925057D01*
X78397363Y-68464722D01*
X77796648Y-68215284D01*
X77146205Y-68214716D01*
X76545057Y-68463106D01*
X76478426Y-68529621D01*
X76394090Y-68398559D01*
X76181890Y-68253569D01*
X75930000Y-68202560D01*
X73930000Y-68202560D01*
X73694683Y-68246838D01*
X73478559Y-68385910D01*
X73333569Y-68598110D01*
X73282560Y-68850000D01*
X50841969Y-68850000D01*
X50457363Y-68464722D01*
X49856648Y-68215284D01*
X49206205Y-68214716D01*
X48605057Y-68463106D01*
X48538426Y-68529621D01*
X48454090Y-68398559D01*
X48241890Y-68253569D01*
X47990000Y-68202560D01*
X45990000Y-68202560D01*
X45754683Y-68246838D01*
X45538559Y-68385910D01*
X45393569Y-68598110D01*
X45342560Y-68850000D01*
X44577000Y-68850000D01*
X44577000Y-67437000D01*
X79883000Y-67437000D01*
X79883000Y-77804889D01*
M02*
