M48
;DRILL file {KiCad 4.0.6-e0-6349~53~ubuntu16.04.1} date Sun Nov  5 16:38:01 2017
;FORMAT={-:-/ absolute / inch / decimal}
FMAT,2
INCH,TZ
T1C0.016
T2C0.031
T3C0.032
T4C0.039
T5C0.040
T6C0.050
T7C0.093
%
G90
G05
M72
T1
X1.735Y-3.115
X1.78Y-2.99
X1.78Y-3.05
X1.79Y-3.24
X1.825Y-4.7
X2.01Y-4.015
X2.13Y-4.445
X2.205Y-2.925
X2.35Y-4.5
X2.35Y-4.6
X2.355Y-3.12
X2.48Y-3.18
T2
X2.Y-3.0281
X2.Y-3.225
X2.05Y-4.125
X2.05Y-4.3219
X2.15Y-3.0281
X2.15Y-3.225
X2.175Y-4.125
X2.175Y-4.3219
X2.2Y-5.575
X2.2Y-5.7719
X2.325Y-3.575
X2.325Y-3.675
X2.325Y-3.775
X2.325Y-3.875
X2.325Y-3.975
X2.325Y-4.075
X2.325Y-4.175
X2.325Y-4.275
X2.325Y-4.375
X2.325Y-4.475
X2.325Y-4.575
X2.325Y-4.675
X2.325Y-4.775
X2.325Y-4.875
X2.4Y-5.575
X2.4Y-5.7719
X2.625Y-3.575
X2.625Y-3.675
X2.625Y-3.775
X2.625Y-3.875
X2.625Y-3.975
X2.625Y-4.075
X2.625Y-4.175
X2.625Y-4.275
X2.625Y-4.375
X2.625Y-4.475
X2.625Y-4.575
X2.625Y-4.675
X2.625Y-4.775
X2.625Y-4.875
X2.775Y-3.7531
X2.775Y-3.95
X2.775Y-4.45
X2.775Y-4.6469
T3
X1.85Y-5.0213
X1.85Y-5.1
X1.85Y-5.1787
T4
X1.85Y-2.75
X1.95Y-2.75
X2.125Y-3.575
X2.125Y-3.975
X2.2Y-5.4
X2.3Y-5.4
X2.325Y-2.925
X2.325Y-3.325
X2.4Y-5.4
X2.475Y-2.925
X2.475Y-3.325
X2.625Y-2.925
X2.625Y-3.325
X2.775Y-2.925
X2.775Y-3.325
X2.95Y-2.75
X3.05Y-2.75
T5
X1.825Y-4.5
X1.825Y-4.6
X1.825Y-4.7
X1.875Y-3.575
X1.875Y-3.675
X1.875Y-3.775
X1.875Y-3.875
X1.875Y-3.975
X1.875Y-4.075
X1.925Y-4.5
X1.925Y-4.6
X1.925Y-4.7
X3.Y-3.
X3.Y-3.1
X3.Y-3.3
X3.Y-3.4
X3.Y-3.6
X3.Y-3.7
X3.Y-3.9
X3.Y-4.
X3.Y-4.2
X3.Y-4.3
X3.Y-4.5
X3.Y-4.6
X3.Y-4.8
X3.Y-4.9
X3.Y-5.1
X3.Y-5.2
X3.1Y-3.05
X3.1Y-3.15
X3.1Y-3.35
X3.1Y-3.45
X3.1Y-3.65
X3.1Y-3.75
X3.1Y-3.95
X3.1Y-4.05
X3.1Y-4.25
X3.1Y-4.35
X3.1Y-4.55
X3.1Y-4.65
X3.1Y-4.85
X3.1Y-4.95
X3.1Y-5.15
X3.1Y-5.25
T6
X1.85Y-4.9386
X1.85Y-5.2614
X2.33Y-5.175
X2.6Y-5.55
X2.6Y-5.75
X2.8Y-5.175
X3.1Y-5.55
X3.1Y-5.75
T7
X1.86Y-4.265
X2.8Y-4.265
T0
M30
