G04 #@! TF.FileFunction,Legend,Top*
%FSLAX46Y46*%
G04 Gerber Fmt 4.6, Leading zero omitted, Abs format (unit mm)*
G04 Created by KiCad (PCBNEW 4.0.0-rc1-stable) date Tue 17 Nov 2015 04:01:17 PM EST*
%MOMM*%
G01*
G04 APERTURE LIST*
%ADD10C,0.100000*%
%ADD11C,0.300000*%
%ADD12C,0.200000*%
%ADD13C,0.203200*%
%ADD14C,0.150000*%
%ADD15C,0.127000*%
G04 APERTURE END LIST*
D10*
D11*
X50050000Y-91312857D02*
X49978571Y-91455714D01*
X49978571Y-91670000D01*
X50050000Y-91884285D01*
X50192857Y-92027143D01*
X50335714Y-92098571D01*
X50621429Y-92170000D01*
X50835714Y-92170000D01*
X51121429Y-92098571D01*
X51264286Y-92027143D01*
X51407143Y-91884285D01*
X51478571Y-91670000D01*
X51478571Y-91527143D01*
X51407143Y-91312857D01*
X51335714Y-91241428D01*
X50835714Y-91241428D01*
X50835714Y-91527143D01*
X51478571Y-90598571D02*
X49978571Y-90598571D01*
X51478571Y-89741428D01*
X49978571Y-89741428D01*
X51478571Y-89027142D02*
X49978571Y-89027142D01*
X49978571Y-88669999D01*
X50050000Y-88455714D01*
X50192857Y-88312856D01*
X50335714Y-88241428D01*
X50621429Y-88169999D01*
X50835714Y-88169999D01*
X51121429Y-88241428D01*
X51264286Y-88312856D01*
X51407143Y-88455714D01*
X51478571Y-88669999D01*
X51478571Y-89027142D01*
D12*
X64135000Y-91440000D02*
X64135000Y-88265000D01*
X61595000Y-91440000D02*
X64135000Y-91440000D01*
X61595000Y-88265000D02*
X61595000Y-91440000D01*
D11*
X53777143Y-135782857D02*
X54277143Y-135782857D01*
X54491429Y-136568571D02*
X53777143Y-136568571D01*
X53777143Y-135068571D01*
X54491429Y-135068571D01*
X55134286Y-136425714D02*
X55205714Y-136497143D01*
X55134286Y-136568571D01*
X55062857Y-136497143D01*
X55134286Y-136425714D01*
X55134286Y-136568571D01*
X56991429Y-136568571D02*
X56991429Y-135068571D01*
X56991429Y-135782857D02*
X57848572Y-135782857D01*
X57848572Y-136568571D02*
X57848572Y-135068571D01*
X59205715Y-136568571D02*
X59205715Y-135782857D01*
X59134286Y-135640000D01*
X58991429Y-135568571D01*
X58705715Y-135568571D01*
X58562858Y-135640000D01*
X59205715Y-136497143D02*
X59062858Y-136568571D01*
X58705715Y-136568571D01*
X58562858Y-136497143D01*
X58491429Y-136354286D01*
X58491429Y-136211429D01*
X58562858Y-136068571D01*
X58705715Y-135997143D01*
X59062858Y-135997143D01*
X59205715Y-135925714D01*
X59777144Y-135568571D02*
X60562858Y-135568571D01*
X59777144Y-136568571D01*
X60562858Y-136568571D01*
X61705715Y-136497143D02*
X61562858Y-136568571D01*
X61277144Y-136568571D01*
X61134287Y-136497143D01*
X61062858Y-136354286D01*
X61062858Y-135782857D01*
X61134287Y-135640000D01*
X61277144Y-135568571D01*
X61562858Y-135568571D01*
X61705715Y-135640000D01*
X61777144Y-135782857D01*
X61777144Y-135925714D01*
X61062858Y-136068571D01*
X62420001Y-135568571D02*
X62420001Y-136568571D01*
X62420001Y-135711429D02*
X62491429Y-135640000D01*
X62634287Y-135568571D01*
X62848572Y-135568571D01*
X62991429Y-135640000D01*
X63062858Y-135782857D01*
X63062858Y-136568571D01*
D13*
X51489428Y-133537476D02*
X51549904Y-133477000D01*
X51670856Y-133416524D01*
X51973237Y-133416524D01*
X52094190Y-133477000D01*
X52154666Y-133537476D01*
X52215142Y-133658429D01*
X52215142Y-133779381D01*
X52154666Y-133960810D01*
X51428952Y-134686524D01*
X52215142Y-134686524D01*
X53001333Y-133416524D02*
X53122285Y-133416524D01*
X53243237Y-133477000D01*
X53303714Y-133537476D01*
X53364190Y-133658429D01*
X53424666Y-133900333D01*
X53424666Y-134202714D01*
X53364190Y-134444619D01*
X53303714Y-134565571D01*
X53243237Y-134626048D01*
X53122285Y-134686524D01*
X53001333Y-134686524D01*
X52880380Y-134626048D01*
X52819904Y-134565571D01*
X52759428Y-134444619D01*
X52698952Y-134202714D01*
X52698952Y-133900333D01*
X52759428Y-133658429D01*
X52819904Y-133537476D01*
X52880380Y-133477000D01*
X53001333Y-133416524D01*
X54634190Y-134686524D02*
X53908476Y-134686524D01*
X54271333Y-134686524D02*
X54271333Y-133416524D01*
X54150381Y-133597952D01*
X54029428Y-133718905D01*
X53908476Y-133779381D01*
X55783238Y-133416524D02*
X55178476Y-133416524D01*
X55118000Y-134021286D01*
X55178476Y-133960810D01*
X55299428Y-133900333D01*
X55601809Y-133900333D01*
X55722762Y-133960810D01*
X55783238Y-134021286D01*
X55843714Y-134142238D01*
X55843714Y-134444619D01*
X55783238Y-134565571D01*
X55722762Y-134626048D01*
X55601809Y-134686524D01*
X55299428Y-134686524D01*
X55178476Y-134626048D01*
X55118000Y-134565571D01*
X56388000Y-134202714D02*
X57355619Y-134202714D01*
X58625619Y-134686524D02*
X57899905Y-134686524D01*
X58262762Y-134686524D02*
X58262762Y-133416524D01*
X58141810Y-133597952D01*
X58020857Y-133718905D01*
X57899905Y-133779381D01*
X59835143Y-134686524D02*
X59109429Y-134686524D01*
X59472286Y-134686524D02*
X59472286Y-133416524D01*
X59351334Y-133597952D01*
X59230381Y-133718905D01*
X59109429Y-133779381D01*
X60379429Y-134202714D02*
X61347048Y-134202714D01*
X62617048Y-134686524D02*
X61891334Y-134686524D01*
X62254191Y-134686524D02*
X62254191Y-133416524D01*
X62133239Y-133597952D01*
X62012286Y-133718905D01*
X61891334Y-133779381D01*
X63705620Y-133416524D02*
X63463715Y-133416524D01*
X63342763Y-133477000D01*
X63282286Y-133537476D01*
X63161334Y-133718905D01*
X63100858Y-133960810D01*
X63100858Y-134444619D01*
X63161334Y-134565571D01*
X63221810Y-134626048D01*
X63342763Y-134686524D01*
X63584667Y-134686524D01*
X63705620Y-134626048D01*
X63766096Y-134565571D01*
X63826572Y-134444619D01*
X63826572Y-134142238D01*
X63766096Y-134021286D01*
X63705620Y-133960810D01*
X63584667Y-133900333D01*
X63342763Y-133900333D01*
X63221810Y-133960810D01*
X63161334Y-134021286D01*
X63100858Y-134142238D01*
D11*
X51498572Y-145601429D02*
X52641429Y-145601429D01*
X51498572Y-140950143D02*
X52641429Y-140950143D01*
X52070000Y-141521571D02*
X52070000Y-140378714D01*
X45311429Y-136925857D02*
X45525715Y-136997286D01*
X45597143Y-137068714D01*
X45668572Y-137211571D01*
X45668572Y-137425857D01*
X45597143Y-137568714D01*
X45525715Y-137640143D01*
X45382857Y-137711571D01*
X44811429Y-137711571D01*
X44811429Y-136211571D01*
X45311429Y-136211571D01*
X45454286Y-136283000D01*
X45525715Y-136354429D01*
X45597143Y-136497286D01*
X45597143Y-136640143D01*
X45525715Y-136783000D01*
X45454286Y-136854429D01*
X45311429Y-136925857D01*
X44811429Y-136925857D01*
X46240000Y-137283000D02*
X46954286Y-137283000D01*
X46097143Y-137711571D02*
X46597143Y-136211571D01*
X47097143Y-137711571D01*
X47382857Y-136211571D02*
X48240000Y-136211571D01*
X47811429Y-137711571D02*
X47811429Y-136211571D01*
X48525714Y-136211571D02*
X49382857Y-136211571D01*
X48954286Y-137711571D02*
X48954286Y-136211571D01*
X66282429Y-136187571D02*
X66282429Y-134687571D01*
X66853857Y-134687571D01*
X66996715Y-134759000D01*
X67068143Y-134830429D01*
X67139572Y-134973286D01*
X67139572Y-135187571D01*
X67068143Y-135330429D01*
X66996715Y-135401857D01*
X66853857Y-135473286D01*
X66282429Y-135473286D01*
X68639572Y-136187571D02*
X68139572Y-135473286D01*
X67782429Y-136187571D02*
X67782429Y-134687571D01*
X68353857Y-134687571D01*
X68496715Y-134759000D01*
X68568143Y-134830429D01*
X68639572Y-134973286D01*
X68639572Y-135187571D01*
X68568143Y-135330429D01*
X68496715Y-135401857D01*
X68353857Y-135473286D01*
X67782429Y-135473286D01*
X69568143Y-134687571D02*
X69853857Y-134687571D01*
X69996715Y-134759000D01*
X70139572Y-134901857D01*
X70211000Y-135187571D01*
X70211000Y-135687571D01*
X70139572Y-135973286D01*
X69996715Y-136116143D01*
X69853857Y-136187571D01*
X69568143Y-136187571D01*
X69425286Y-136116143D01*
X69282429Y-135973286D01*
X69211000Y-135687571D01*
X69211000Y-135187571D01*
X69282429Y-134901857D01*
X69425286Y-134759000D01*
X69568143Y-134687571D01*
X71639572Y-134759000D02*
X71496715Y-134687571D01*
X71282429Y-134687571D01*
X71068144Y-134759000D01*
X70925286Y-134901857D01*
X70853858Y-135044714D01*
X70782429Y-135330429D01*
X70782429Y-135544714D01*
X70853858Y-135830429D01*
X70925286Y-135973286D01*
X71068144Y-136116143D01*
X71282429Y-136187571D01*
X71425286Y-136187571D01*
X71639572Y-136116143D01*
X71711001Y-136044714D01*
X71711001Y-135544714D01*
X71425286Y-135544714D01*
D13*
X51961144Y-72166238D02*
X51961144Y-70134238D01*
X52614287Y-72166238D02*
X52614287Y-71101857D01*
X52541716Y-70908333D01*
X52396573Y-70811571D01*
X52178858Y-70811571D01*
X52033716Y-70908333D01*
X51961144Y-71005095D01*
X53122287Y-70811571D02*
X53702858Y-70811571D01*
X53340001Y-70134238D02*
X53340001Y-71875952D01*
X53412573Y-72069476D01*
X53557715Y-72166238D01*
X53702858Y-72166238D01*
X53993144Y-70811571D02*
X54573715Y-70811571D01*
X54210858Y-70134238D02*
X54210858Y-71875952D01*
X54283430Y-72069476D01*
X54428572Y-72166238D01*
X54573715Y-72166238D01*
X55081715Y-70811571D02*
X55081715Y-72843571D01*
X55081715Y-70908333D02*
X55226858Y-70811571D01*
X55517144Y-70811571D01*
X55662287Y-70908333D01*
X55734858Y-71005095D01*
X55807429Y-71198619D01*
X55807429Y-71779190D01*
X55734858Y-71972714D01*
X55662287Y-72069476D01*
X55517144Y-72166238D01*
X55226858Y-72166238D01*
X55081715Y-72069476D01*
X56460572Y-71972714D02*
X56533144Y-72069476D01*
X56460572Y-72166238D01*
X56388001Y-72069476D01*
X56460572Y-71972714D01*
X56460572Y-72166238D01*
X56460572Y-70908333D02*
X56533144Y-71005095D01*
X56460572Y-71101857D01*
X56388001Y-71005095D01*
X56460572Y-70908333D01*
X56460572Y-71101857D01*
X58274858Y-70037476D02*
X56968572Y-72650048D01*
X59871429Y-70037476D02*
X58565143Y-72650048D01*
X60960000Y-72069476D02*
X60814857Y-72166238D01*
X60524571Y-72166238D01*
X60379428Y-72069476D01*
X60306857Y-71875952D01*
X60306857Y-71101857D01*
X60379428Y-70908333D01*
X60524571Y-70811571D01*
X60814857Y-70811571D01*
X60960000Y-70908333D01*
X61032571Y-71101857D01*
X61032571Y-71295381D01*
X60306857Y-71488905D01*
X62338857Y-72166238D02*
X62338857Y-70134238D01*
X62338857Y-72069476D02*
X62193714Y-72166238D01*
X61903428Y-72166238D01*
X61758286Y-72069476D01*
X61685714Y-71972714D01*
X61613143Y-71779190D01*
X61613143Y-71198619D01*
X61685714Y-71005095D01*
X61758286Y-70908333D01*
X61903428Y-70811571D01*
X62193714Y-70811571D01*
X62338857Y-70908333D01*
X62846857Y-70811571D02*
X63427428Y-70811571D01*
X63064571Y-72166238D02*
X63064571Y-70424524D01*
X63137143Y-70231000D01*
X63282285Y-70134238D01*
X63427428Y-70134238D01*
X63935428Y-71972714D02*
X64008000Y-72069476D01*
X63935428Y-72166238D01*
X63862857Y-72069476D01*
X63935428Y-71972714D01*
X63935428Y-72166238D01*
X64661142Y-72166238D02*
X64661142Y-70134238D01*
X64661142Y-70908333D02*
X64806285Y-70811571D01*
X65096571Y-70811571D01*
X65241714Y-70908333D01*
X65314285Y-71005095D01*
X65386856Y-71198619D01*
X65386856Y-71779190D01*
X65314285Y-71972714D01*
X65241714Y-72069476D01*
X65096571Y-72166238D01*
X64806285Y-72166238D01*
X64661142Y-72069476D01*
X66693142Y-70811571D02*
X66693142Y-72166238D01*
X66039999Y-70811571D02*
X66039999Y-71875952D01*
X66112571Y-72069476D01*
X66257713Y-72166238D01*
X66475428Y-72166238D01*
X66620571Y-72069476D01*
X66693142Y-71972714D01*
X67418856Y-71972714D02*
X67491428Y-72069476D01*
X67418856Y-72166238D01*
X67346285Y-72069476D01*
X67418856Y-71972714D01*
X67418856Y-72166238D01*
X68725142Y-72069476D02*
X68579999Y-72166238D01*
X68289713Y-72166238D01*
X68144570Y-72069476D01*
X68071999Y-71875952D01*
X68071999Y-71101857D01*
X68144570Y-70908333D01*
X68289713Y-70811571D01*
X68579999Y-70811571D01*
X68725142Y-70908333D01*
X68797713Y-71101857D01*
X68797713Y-71295381D01*
X68071999Y-71488905D01*
X70103999Y-72166238D02*
X70103999Y-70134238D01*
X70103999Y-72069476D02*
X69958856Y-72166238D01*
X69668570Y-72166238D01*
X69523428Y-72069476D01*
X69450856Y-71972714D01*
X69378285Y-71779190D01*
X69378285Y-71198619D01*
X69450856Y-71005095D01*
X69523428Y-70908333D01*
X69668570Y-70811571D01*
X69958856Y-70811571D01*
X70103999Y-70908333D01*
X71482856Y-70811571D02*
X71482856Y-72166238D01*
X70829713Y-70811571D02*
X70829713Y-71875952D01*
X70902285Y-72069476D01*
X71047427Y-72166238D01*
X71265142Y-72166238D01*
X71410285Y-72069476D01*
X71482856Y-71972714D01*
X52705000Y-68144571D02*
X52922714Y-68265524D01*
X52995286Y-68386476D01*
X53067857Y-68628381D01*
X53067857Y-68991238D01*
X52995286Y-69233143D01*
X52922714Y-69354095D01*
X52777572Y-69475048D01*
X52197000Y-69475048D01*
X52197000Y-66935048D01*
X52705000Y-66935048D01*
X52850143Y-67056000D01*
X52922714Y-67176952D01*
X52995286Y-67418857D01*
X52995286Y-67660762D01*
X52922714Y-67902667D01*
X52850143Y-68023619D01*
X52705000Y-68144571D01*
X52197000Y-68144571D01*
X53938714Y-69475048D02*
X53793572Y-69354095D01*
X53721000Y-69112190D01*
X53721000Y-66935048D01*
X54519286Y-69475048D02*
X54519286Y-67781714D01*
X54519286Y-66935048D02*
X54446715Y-67056000D01*
X54519286Y-67176952D01*
X54591858Y-67056000D01*
X54519286Y-66935048D01*
X54519286Y-67176952D01*
X55245000Y-67781714D02*
X55245000Y-69475048D01*
X55245000Y-68023619D02*
X55317572Y-67902667D01*
X55462714Y-67781714D01*
X55680429Y-67781714D01*
X55825572Y-67902667D01*
X55898143Y-68144571D01*
X55898143Y-69475048D01*
X56623857Y-69475048D02*
X56623857Y-66935048D01*
X56769000Y-68507429D02*
X57204429Y-69475048D01*
X57204429Y-67781714D02*
X56623857Y-68749333D01*
X57712428Y-67781714D02*
X58075285Y-69475048D01*
X58438143Y-67781714D02*
X58075285Y-69475048D01*
X57930143Y-70079810D01*
X57857571Y-70200762D01*
X57712428Y-70321714D01*
X59889571Y-69233143D02*
X59817000Y-69354095D01*
X59599286Y-69475048D01*
X59454143Y-69475048D01*
X59236428Y-69354095D01*
X59091286Y-69112190D01*
X59018714Y-68870286D01*
X58946143Y-68386476D01*
X58946143Y-68023619D01*
X59018714Y-67539810D01*
X59091286Y-67297905D01*
X59236428Y-67056000D01*
X59454143Y-66935048D01*
X59599286Y-66935048D01*
X59817000Y-67056000D01*
X59889571Y-67176952D01*
X60760428Y-69475048D02*
X60615286Y-69354095D01*
X60542714Y-69233143D01*
X60470143Y-68991238D01*
X60470143Y-68265524D01*
X60542714Y-68023619D01*
X60615286Y-67902667D01*
X60760428Y-67781714D01*
X60978143Y-67781714D01*
X61123286Y-67902667D01*
X61195857Y-68023619D01*
X61268428Y-68265524D01*
X61268428Y-68991238D01*
X61195857Y-69233143D01*
X61123286Y-69354095D01*
X60978143Y-69475048D01*
X60760428Y-69475048D01*
X62139285Y-69475048D02*
X61994143Y-69354095D01*
X61921571Y-69112190D01*
X61921571Y-66935048D01*
X62937571Y-69475048D02*
X62792429Y-69354095D01*
X62719857Y-69233143D01*
X62647286Y-68991238D01*
X62647286Y-68265524D01*
X62719857Y-68023619D01*
X62792429Y-67902667D01*
X62937571Y-67781714D01*
X63155286Y-67781714D01*
X63300429Y-67902667D01*
X63373000Y-68023619D01*
X63445571Y-68265524D01*
X63445571Y-68991238D01*
X63373000Y-69233143D01*
X63300429Y-69354095D01*
X63155286Y-69475048D01*
X62937571Y-69475048D01*
X64098714Y-69475048D02*
X64098714Y-67781714D01*
X64098714Y-68265524D02*
X64171286Y-68023619D01*
X64243857Y-67902667D01*
X64389000Y-67781714D01*
X64534143Y-67781714D01*
X65042143Y-69475048D02*
X65042143Y-66935048D01*
X65622715Y-66935048D01*
X65767857Y-67056000D01*
X65840429Y-67176952D01*
X65913000Y-67418857D01*
X65913000Y-67781714D01*
X65840429Y-68023619D01*
X65767857Y-68144571D01*
X65622715Y-68265524D01*
X65042143Y-68265524D01*
X66856429Y-66935048D02*
X67146715Y-66935048D01*
X67291857Y-67056000D01*
X67437000Y-67297905D01*
X67509572Y-67781714D01*
X67509572Y-68628381D01*
X67437000Y-69112190D01*
X67291857Y-69354095D01*
X67146715Y-69475048D01*
X66856429Y-69475048D01*
X66711286Y-69354095D01*
X66566143Y-69112190D01*
X66493572Y-68628381D01*
X66493572Y-67781714D01*
X66566143Y-67297905D01*
X66711286Y-67056000D01*
X66856429Y-66935048D01*
X67945000Y-66935048D02*
X68453000Y-69475048D01*
X68961000Y-66935048D01*
X70485000Y-67781714D02*
X70847857Y-69475048D01*
X71210715Y-67781714D01*
X71718715Y-67176952D02*
X71791286Y-67056000D01*
X71936429Y-66935048D01*
X72299286Y-66935048D01*
X72444429Y-67056000D01*
X72517000Y-67176952D01*
X72589572Y-67418857D01*
X72589572Y-67660762D01*
X72517000Y-68023619D01*
X71646143Y-69475048D01*
X72589572Y-69475048D01*
D14*
X44450000Y-148590000D02*
X44450000Y-138430000D01*
X43180000Y-148590000D02*
X50800000Y-148590000D01*
X50800000Y-148590000D02*
X50800000Y-138430000D01*
X50800000Y-138430000D02*
X43180000Y-138430000D01*
X43180000Y-138430000D02*
X43180000Y-148590000D01*
X61960000Y-138700000D02*
X61960000Y-145700000D01*
X61960000Y-145700000D02*
X59960000Y-145700000D01*
X59960000Y-145700000D02*
X59960000Y-138700000D01*
X59960000Y-138700000D02*
X61960000Y-138700000D01*
X56880000Y-138700000D02*
X56880000Y-145700000D01*
X56880000Y-145700000D02*
X54880000Y-145700000D01*
X54880000Y-145700000D02*
X54880000Y-138700000D01*
X54880000Y-138700000D02*
X56880000Y-138700000D01*
X70120000Y-115300000D02*
X70120000Y-108300000D01*
X70120000Y-108300000D02*
X72120000Y-108300000D01*
X72120000Y-108300000D02*
X72120000Y-115300000D01*
X72120000Y-115300000D02*
X70120000Y-115300000D01*
X56245000Y-103775000D02*
X56245000Y-110775000D01*
X56245000Y-110775000D02*
X54245000Y-110775000D01*
X54245000Y-110775000D02*
X54245000Y-103775000D01*
X54245000Y-103775000D02*
X56245000Y-103775000D01*
X55610000Y-74565000D02*
X55610000Y-81565000D01*
X55610000Y-81565000D02*
X53610000Y-81565000D01*
X53610000Y-81565000D02*
X53610000Y-74565000D01*
X53610000Y-74565000D02*
X55610000Y-74565000D01*
X45990000Y-81645000D02*
X45990000Y-74645000D01*
X45990000Y-74645000D02*
X47990000Y-74645000D01*
X47990000Y-74645000D02*
X47990000Y-81645000D01*
X47990000Y-81645000D02*
X45990000Y-81645000D01*
X72120000Y-98695000D02*
X72120000Y-105695000D01*
X72120000Y-105695000D02*
X70120000Y-105695000D01*
X70120000Y-105695000D02*
X70120000Y-98695000D01*
X70120000Y-98695000D02*
X72120000Y-98695000D01*
X59190000Y-88510000D02*
X59190000Y-89780000D01*
X66540000Y-88510000D02*
X66540000Y-89780000D01*
X66540000Y-126120000D02*
X66540000Y-124850000D01*
X59190000Y-126120000D02*
X59190000Y-124850000D01*
X59190000Y-88510000D02*
X66540000Y-88510000D01*
X59190000Y-126120000D02*
X66540000Y-126120000D01*
X59190000Y-89780000D02*
X57905000Y-89780000D01*
X45085000Y-115570000D02*
X45085000Y-120650000D01*
X44805000Y-112750000D02*
X46355000Y-112750000D01*
X47625000Y-113030000D02*
X47625000Y-115570000D01*
X47625000Y-115570000D02*
X45085000Y-115570000D01*
X45085000Y-120650000D02*
X50165000Y-120650000D01*
X50165000Y-120650000D02*
X50165000Y-115570000D01*
X44805000Y-112750000D02*
X44805000Y-114300000D01*
X50165000Y-113030000D02*
X47625000Y-113030000D01*
X50165000Y-115570000D02*
X50165000Y-113030000D01*
X48895000Y-92075000D02*
X48895000Y-104775000D01*
X48895000Y-104775000D02*
X46355000Y-104775000D01*
X46355000Y-104775000D02*
X46355000Y-92075000D01*
X49175000Y-89255000D02*
X49175000Y-90805000D01*
X48895000Y-92075000D02*
X46355000Y-92075000D01*
X46075000Y-90805000D02*
X46075000Y-89255000D01*
X46075000Y-89255000D02*
X49175000Y-89255000D01*
X52705000Y-98425000D02*
X52705000Y-93345000D01*
X52705000Y-93345000D02*
X55245000Y-93345000D01*
X55245000Y-93345000D02*
X55245000Y-98425000D01*
X55245000Y-98425000D02*
X52705000Y-98425000D01*
X53975000Y-98425000D02*
X53975000Y-99695000D01*
X53975000Y-93345000D02*
X53975000Y-92075000D01*
X65405000Y-81915000D02*
X65405000Y-76835000D01*
X65405000Y-76835000D02*
X67945000Y-76835000D01*
X67945000Y-76835000D02*
X67945000Y-81915000D01*
X67945000Y-81915000D02*
X65405000Y-81915000D01*
X66675000Y-81915000D02*
X66675000Y-83185000D01*
X66675000Y-76835000D02*
X66675000Y-75565000D01*
X61595000Y-81915000D02*
X61595000Y-76835000D01*
X61595000Y-76835000D02*
X64135000Y-76835000D01*
X64135000Y-76835000D02*
X64135000Y-81915000D01*
X64135000Y-81915000D02*
X61595000Y-81915000D01*
X62865000Y-81915000D02*
X62865000Y-83185000D01*
X62865000Y-76835000D02*
X62865000Y-75565000D01*
X57785000Y-81915000D02*
X57785000Y-76835000D01*
X57785000Y-76835000D02*
X60325000Y-76835000D01*
X60325000Y-76835000D02*
X60325000Y-81915000D01*
X60325000Y-81915000D02*
X57785000Y-81915000D01*
X59055000Y-81915000D02*
X59055000Y-83185000D01*
X59055000Y-76835000D02*
X59055000Y-75565000D01*
X69215000Y-81915000D02*
X69215000Y-76835000D01*
X69215000Y-76835000D02*
X71755000Y-76835000D01*
X71755000Y-76835000D02*
X71755000Y-81915000D01*
X71755000Y-81915000D02*
X69215000Y-81915000D01*
X70485000Y-81915000D02*
X70485000Y-83185000D01*
X70485000Y-76835000D02*
X70485000Y-75565000D01*
X58166000Y-127762000D02*
X58166000Y-128905000D01*
X61214000Y-127762000D02*
X61214000Y-128905000D01*
X65024000Y-128905000D02*
X65024000Y-132588000D01*
X65024000Y-132588000D02*
X54356000Y-132588000D01*
X54356000Y-132588000D02*
X54356000Y-128905000D01*
X65024000Y-127762000D02*
X65024000Y-128905000D01*
X65024000Y-128905000D02*
X54356000Y-128905000D01*
X54356000Y-128905000D02*
X54356000Y-127762000D01*
X59690000Y-127762000D02*
X54356000Y-127762000D01*
X59690000Y-127762000D02*
X65024000Y-127762000D01*
D15*
X74295000Y-133350000D02*
X74295000Y-129540000D01*
X78894077Y-131445000D02*
G75*
G03X78894077Y-131445000I-2694077J0D01*
G01*
X74295000Y-125730000D02*
X74295000Y-121920000D01*
X78894077Y-123825000D02*
G75*
G03X78894077Y-123825000I-2694077J0D01*
G01*
X74295000Y-118110000D02*
X74295000Y-114300000D01*
X78894077Y-116205000D02*
G75*
G03X78894077Y-116205000I-2694077J0D01*
G01*
X74295000Y-110490000D02*
X74295000Y-106680000D01*
X78894077Y-108585000D02*
G75*
G03X78894077Y-108585000I-2694077J0D01*
G01*
X74295000Y-102870000D02*
X74295000Y-99060000D01*
X78894077Y-100965000D02*
G75*
G03X78894077Y-100965000I-2694077J0D01*
G01*
X74295000Y-95250000D02*
X74295000Y-91440000D01*
X78894077Y-93345000D02*
G75*
G03X78894077Y-93345000I-2694077J0D01*
G01*
X74295000Y-87630000D02*
X74295000Y-83820000D01*
X78894077Y-85725000D02*
G75*
G03X78894077Y-85725000I-2694077J0D01*
G01*
X74295000Y-80010000D02*
X74295000Y-76200000D01*
X78894077Y-78105000D02*
G75*
G03X78894077Y-78105000I-2694077J0D01*
G01*
D14*
X46791000Y-71164000D02*
X46791000Y-70964000D01*
X46791000Y-68570000D02*
X46791000Y-68750000D01*
X50018744Y-68880357D02*
G75*
G03X46791000Y-68564000I-1727744J-1003643D01*
G01*
X49343006Y-68750932D02*
G75*
G03X47240000Y-68750000I-1052006J-1133068D01*
G01*
X46803780Y-71190726D02*
G75*
G03X50041000Y-70844000I1497220J1306726D01*
G01*
X47277111Y-70963253D02*
G75*
G03X49325000Y-70944000I1013889J1079253D01*
G01*
X74731000Y-71164000D02*
X74731000Y-70964000D01*
X74731000Y-68570000D02*
X74731000Y-68750000D01*
X77958744Y-68880357D02*
G75*
G03X74731000Y-68564000I-1727744J-1003643D01*
G01*
X77283006Y-68750932D02*
G75*
G03X75180000Y-68750000I-1052006J-1133068D01*
G01*
X74743780Y-71190726D02*
G75*
G03X77981000Y-70844000I1497220J1306726D01*
G01*
X75217111Y-70963253D02*
G75*
G03X77265000Y-70944000I1013889J1079253D01*
G01*
X45890000Y-133840000D02*
X44890000Y-133840000D01*
X44890000Y-133840000D02*
X44890000Y-129540000D01*
X48090000Y-125240000D02*
X49090000Y-125240000D01*
X49090000Y-125240000D02*
X49090000Y-133840000D01*
X49090000Y-133840000D02*
X48090000Y-133840000D01*
X44890000Y-129540000D02*
X44890000Y-125240000D01*
X44890000Y-125240000D02*
X45890000Y-125240000D01*
X76969050Y-143510000D02*
G75*
G03X76969050Y-143510000I-4579050J0D01*
G01*
X66040000Y-137160000D02*
X78740000Y-137160000D01*
X78740000Y-137160000D02*
X78740000Y-149860000D01*
X78740000Y-149860000D02*
X66040000Y-149860000D01*
X66040000Y-149860000D02*
X66040000Y-137160000D01*
X53070000Y-103775000D02*
X53070000Y-110775000D01*
X53070000Y-110775000D02*
X51070000Y-110775000D01*
X51070000Y-110775000D02*
X51070000Y-103775000D01*
X51070000Y-103775000D02*
X53070000Y-103775000D01*
X51538286Y-147502571D02*
X51681143Y-147550190D01*
X51728762Y-147597810D01*
X51776381Y-147693048D01*
X51776381Y-147835905D01*
X51728762Y-147931143D01*
X51681143Y-147978762D01*
X51585905Y-148026381D01*
X51204952Y-148026381D01*
X51204952Y-147026381D01*
X51538286Y-147026381D01*
X51633524Y-147074000D01*
X51681143Y-147121619D01*
X51728762Y-147216857D01*
X51728762Y-147312095D01*
X51681143Y-147407333D01*
X51633524Y-147454952D01*
X51538286Y-147502571D01*
X51204952Y-147502571D01*
X52062095Y-147026381D02*
X52633524Y-147026381D01*
X52347809Y-148026381D02*
X52347809Y-147026381D01*
X53490667Y-148026381D02*
X52919238Y-148026381D01*
X53204952Y-148026381D02*
X53204952Y-147026381D01*
X53109714Y-147169238D01*
X53014476Y-147264476D01*
X52919238Y-147312095D01*
X61317143Y-142406666D02*
X61364762Y-142454285D01*
X61412381Y-142597142D01*
X61412381Y-142692380D01*
X61364762Y-142835238D01*
X61269524Y-142930476D01*
X61174286Y-142978095D01*
X60983810Y-143025714D01*
X60840952Y-143025714D01*
X60650476Y-142978095D01*
X60555238Y-142930476D01*
X60460000Y-142835238D01*
X60412381Y-142692380D01*
X60412381Y-142597142D01*
X60460000Y-142454285D01*
X60507619Y-142406666D01*
X61412381Y-141454285D02*
X61412381Y-142025714D01*
X61412381Y-141740000D02*
X60412381Y-141740000D01*
X60555238Y-141835238D01*
X60650476Y-141930476D01*
X60698095Y-142025714D01*
X56237143Y-142406666D02*
X56284762Y-142454285D01*
X56332381Y-142597142D01*
X56332381Y-142692380D01*
X56284762Y-142835238D01*
X56189524Y-142930476D01*
X56094286Y-142978095D01*
X55903810Y-143025714D01*
X55760952Y-143025714D01*
X55570476Y-142978095D01*
X55475238Y-142930476D01*
X55380000Y-142835238D01*
X55332381Y-142692380D01*
X55332381Y-142597142D01*
X55380000Y-142454285D01*
X55427619Y-142406666D01*
X55427619Y-142025714D02*
X55380000Y-141978095D01*
X55332381Y-141882857D01*
X55332381Y-141644761D01*
X55380000Y-141549523D01*
X55427619Y-141501904D01*
X55522857Y-141454285D01*
X55618095Y-141454285D01*
X55760952Y-141501904D01*
X56332381Y-142073333D01*
X56332381Y-141454285D01*
X71477143Y-111926666D02*
X71524762Y-111974285D01*
X71572381Y-112117142D01*
X71572381Y-112212380D01*
X71524762Y-112355238D01*
X71429524Y-112450476D01*
X71334286Y-112498095D01*
X71143810Y-112545714D01*
X71000952Y-112545714D01*
X70810476Y-112498095D01*
X70715238Y-112450476D01*
X70620000Y-112355238D01*
X70572381Y-112212380D01*
X70572381Y-112117142D01*
X70620000Y-111974285D01*
X70667619Y-111926666D01*
X70572381Y-111593333D02*
X70572381Y-110974285D01*
X70953333Y-111307619D01*
X70953333Y-111164761D01*
X71000952Y-111069523D01*
X71048571Y-111021904D01*
X71143810Y-110974285D01*
X71381905Y-110974285D01*
X71477143Y-111021904D01*
X71524762Y-111069523D01*
X71572381Y-111164761D01*
X71572381Y-111450476D01*
X71524762Y-111545714D01*
X71477143Y-111593333D01*
X55602143Y-107481666D02*
X55649762Y-107529285D01*
X55697381Y-107672142D01*
X55697381Y-107767380D01*
X55649762Y-107910238D01*
X55554524Y-108005476D01*
X55459286Y-108053095D01*
X55268810Y-108100714D01*
X55125952Y-108100714D01*
X54935476Y-108053095D01*
X54840238Y-108005476D01*
X54745000Y-107910238D01*
X54697381Y-107767380D01*
X54697381Y-107672142D01*
X54745000Y-107529285D01*
X54792619Y-107481666D01*
X55030714Y-106624523D02*
X55697381Y-106624523D01*
X54649762Y-106862619D02*
X55364048Y-107100714D01*
X55364048Y-106481666D01*
X54967143Y-78271666D02*
X55014762Y-78319285D01*
X55062381Y-78462142D01*
X55062381Y-78557380D01*
X55014762Y-78700238D01*
X54919524Y-78795476D01*
X54824286Y-78843095D01*
X54633810Y-78890714D01*
X54490952Y-78890714D01*
X54300476Y-78843095D01*
X54205238Y-78795476D01*
X54110000Y-78700238D01*
X54062381Y-78557380D01*
X54062381Y-78462142D01*
X54110000Y-78319285D01*
X54157619Y-78271666D01*
X54062381Y-77366904D02*
X54062381Y-77843095D01*
X54538571Y-77890714D01*
X54490952Y-77843095D01*
X54443333Y-77747857D01*
X54443333Y-77509761D01*
X54490952Y-77414523D01*
X54538571Y-77366904D01*
X54633810Y-77319285D01*
X54871905Y-77319285D01*
X54967143Y-77366904D01*
X55014762Y-77414523D01*
X55062381Y-77509761D01*
X55062381Y-77747857D01*
X55014762Y-77843095D01*
X54967143Y-77890714D01*
X47347143Y-78271666D02*
X47394762Y-78319285D01*
X47442381Y-78462142D01*
X47442381Y-78557380D01*
X47394762Y-78700238D01*
X47299524Y-78795476D01*
X47204286Y-78843095D01*
X47013810Y-78890714D01*
X46870952Y-78890714D01*
X46680476Y-78843095D01*
X46585238Y-78795476D01*
X46490000Y-78700238D01*
X46442381Y-78557380D01*
X46442381Y-78462142D01*
X46490000Y-78319285D01*
X46537619Y-78271666D01*
X46442381Y-77938333D02*
X46442381Y-77271666D01*
X47442381Y-77700238D01*
X71477143Y-102401666D02*
X71524762Y-102449285D01*
X71572381Y-102592142D01*
X71572381Y-102687380D01*
X71524762Y-102830238D01*
X71429524Y-102925476D01*
X71334286Y-102973095D01*
X71143810Y-103020714D01*
X71000952Y-103020714D01*
X70810476Y-102973095D01*
X70715238Y-102925476D01*
X70620000Y-102830238D01*
X70572381Y-102687380D01*
X70572381Y-102592142D01*
X70620000Y-102449285D01*
X70667619Y-102401666D01*
X71000952Y-101830238D02*
X70953333Y-101925476D01*
X70905714Y-101973095D01*
X70810476Y-102020714D01*
X70762857Y-102020714D01*
X70667619Y-101973095D01*
X70620000Y-101925476D01*
X70572381Y-101830238D01*
X70572381Y-101639761D01*
X70620000Y-101544523D01*
X70667619Y-101496904D01*
X70762857Y-101449285D01*
X70810476Y-101449285D01*
X70905714Y-101496904D01*
X70953333Y-101544523D01*
X71000952Y-101639761D01*
X71000952Y-101830238D01*
X71048571Y-101925476D01*
X71096190Y-101973095D01*
X71191429Y-102020714D01*
X71381905Y-102020714D01*
X71477143Y-101973095D01*
X71524762Y-101925476D01*
X71572381Y-101830238D01*
X71572381Y-101639761D01*
X71524762Y-101544523D01*
X71477143Y-101496904D01*
X71381905Y-101449285D01*
X71191429Y-101449285D01*
X71096190Y-101496904D01*
X71048571Y-101544523D01*
X71000952Y-101639761D01*
X61888810Y-93797381D02*
X61888810Y-92797381D01*
X62936429Y-93702143D02*
X62888810Y-93749762D01*
X62745953Y-93797381D01*
X62650715Y-93797381D01*
X62507857Y-93749762D01*
X62412619Y-93654524D01*
X62365000Y-93559286D01*
X62317381Y-93368810D01*
X62317381Y-93225952D01*
X62365000Y-93035476D01*
X62412619Y-92940238D01*
X62507857Y-92845000D01*
X62650715Y-92797381D01*
X62745953Y-92797381D01*
X62888810Y-92845000D01*
X62936429Y-92892619D01*
X63888810Y-93797381D02*
X63317381Y-93797381D01*
X63603095Y-93797381D02*
X63603095Y-92797381D01*
X63507857Y-92940238D01*
X63412619Y-93035476D01*
X63317381Y-93083095D01*
X45616905Y-111577381D02*
X45616905Y-110577381D01*
X45997858Y-110577381D01*
X46093096Y-110625000D01*
X46140715Y-110672619D01*
X46188334Y-110767857D01*
X46188334Y-110910714D01*
X46140715Y-111005952D01*
X46093096Y-111053571D01*
X45997858Y-111101190D01*
X45616905Y-111101190D01*
X47140715Y-111577381D02*
X46569286Y-111577381D01*
X46855000Y-111577381D02*
X46855000Y-110577381D01*
X46759762Y-110720238D01*
X46664524Y-110815476D01*
X46569286Y-110863095D01*
X45616905Y-88082381D02*
X45616905Y-87082381D01*
X45997858Y-87082381D01*
X46093096Y-87130000D01*
X46140715Y-87177619D01*
X46188334Y-87272857D01*
X46188334Y-87415714D01*
X46140715Y-87510952D01*
X46093096Y-87558571D01*
X45997858Y-87606190D01*
X45616905Y-87606190D01*
X46569286Y-87177619D02*
X46616905Y-87130000D01*
X46712143Y-87082381D01*
X46950239Y-87082381D01*
X47045477Y-87130000D01*
X47093096Y-87177619D01*
X47140715Y-87272857D01*
X47140715Y-87368095D01*
X47093096Y-87510952D01*
X46521667Y-88082381D01*
X47140715Y-88082381D01*
X54427381Y-96051666D02*
X53951190Y-96385000D01*
X54427381Y-96623095D02*
X53427381Y-96623095D01*
X53427381Y-96242142D01*
X53475000Y-96146904D01*
X53522619Y-96099285D01*
X53617857Y-96051666D01*
X53760714Y-96051666D01*
X53855952Y-96099285D01*
X53903571Y-96146904D01*
X53951190Y-96242142D01*
X53951190Y-96623095D01*
X54427381Y-95099285D02*
X54427381Y-95670714D01*
X54427381Y-95385000D02*
X53427381Y-95385000D01*
X53570238Y-95480238D01*
X53665476Y-95575476D01*
X53713095Y-95670714D01*
X67127381Y-79541666D02*
X66651190Y-79875000D01*
X67127381Y-80113095D02*
X66127381Y-80113095D01*
X66127381Y-79732142D01*
X66175000Y-79636904D01*
X66222619Y-79589285D01*
X66317857Y-79541666D01*
X66460714Y-79541666D01*
X66555952Y-79589285D01*
X66603571Y-79636904D01*
X66651190Y-79732142D01*
X66651190Y-80113095D01*
X66222619Y-79160714D02*
X66175000Y-79113095D01*
X66127381Y-79017857D01*
X66127381Y-78779761D01*
X66175000Y-78684523D01*
X66222619Y-78636904D01*
X66317857Y-78589285D01*
X66413095Y-78589285D01*
X66555952Y-78636904D01*
X67127381Y-79208333D01*
X67127381Y-78589285D01*
X63317381Y-79541666D02*
X62841190Y-79875000D01*
X63317381Y-80113095D02*
X62317381Y-80113095D01*
X62317381Y-79732142D01*
X62365000Y-79636904D01*
X62412619Y-79589285D01*
X62507857Y-79541666D01*
X62650714Y-79541666D01*
X62745952Y-79589285D01*
X62793571Y-79636904D01*
X62841190Y-79732142D01*
X62841190Y-80113095D01*
X62317381Y-79208333D02*
X62317381Y-78589285D01*
X62698333Y-78922619D01*
X62698333Y-78779761D01*
X62745952Y-78684523D01*
X62793571Y-78636904D01*
X62888810Y-78589285D01*
X63126905Y-78589285D01*
X63222143Y-78636904D01*
X63269762Y-78684523D01*
X63317381Y-78779761D01*
X63317381Y-79065476D01*
X63269762Y-79160714D01*
X63222143Y-79208333D01*
X59507381Y-79541666D02*
X59031190Y-79875000D01*
X59507381Y-80113095D02*
X58507381Y-80113095D01*
X58507381Y-79732142D01*
X58555000Y-79636904D01*
X58602619Y-79589285D01*
X58697857Y-79541666D01*
X58840714Y-79541666D01*
X58935952Y-79589285D01*
X58983571Y-79636904D01*
X59031190Y-79732142D01*
X59031190Y-80113095D01*
X58840714Y-78684523D02*
X59507381Y-78684523D01*
X58459762Y-78922619D02*
X59174048Y-79160714D01*
X59174048Y-78541666D01*
X70937381Y-79541666D02*
X70461190Y-79875000D01*
X70937381Y-80113095D02*
X69937381Y-80113095D01*
X69937381Y-79732142D01*
X69985000Y-79636904D01*
X70032619Y-79589285D01*
X70127857Y-79541666D01*
X70270714Y-79541666D01*
X70365952Y-79589285D01*
X70413571Y-79636904D01*
X70461190Y-79732142D01*
X70461190Y-80113095D01*
X69937381Y-78636904D02*
X69937381Y-79113095D01*
X70413571Y-79160714D01*
X70365952Y-79113095D01*
X70318333Y-79017857D01*
X70318333Y-78779761D01*
X70365952Y-78684523D01*
X70413571Y-78636904D01*
X70508810Y-78589285D01*
X70746905Y-78589285D01*
X70842143Y-78636904D01*
X70889762Y-78684523D01*
X70937381Y-78779761D01*
X70937381Y-79017857D01*
X70889762Y-79113095D01*
X70842143Y-79160714D01*
X52070095Y-127595381D02*
X52070095Y-128404905D01*
X52117714Y-128500143D01*
X52165333Y-128547762D01*
X52260571Y-128595381D01*
X52451048Y-128595381D01*
X52546286Y-128547762D01*
X52593905Y-128500143D01*
X52641524Y-128404905D01*
X52641524Y-127595381D01*
X53641524Y-128595381D02*
X53070095Y-128595381D01*
X53355809Y-128595381D02*
X53355809Y-127595381D01*
X53260571Y-127738238D01*
X53165333Y-127833476D01*
X53070095Y-127881095D01*
X78255905Y-129103381D02*
X78255905Y-128103381D01*
X78494000Y-128103381D01*
X78636858Y-128151000D01*
X78732096Y-128246238D01*
X78779715Y-128341476D01*
X78827334Y-128531952D01*
X78827334Y-128674810D01*
X78779715Y-128865286D01*
X78732096Y-128960524D01*
X78636858Y-129055762D01*
X78494000Y-129103381D01*
X78255905Y-129103381D01*
X79398762Y-128531952D02*
X79303524Y-128484333D01*
X79255905Y-128436714D01*
X79208286Y-128341476D01*
X79208286Y-128293857D01*
X79255905Y-128198619D01*
X79303524Y-128151000D01*
X79398762Y-128103381D01*
X79589239Y-128103381D01*
X79684477Y-128151000D01*
X79732096Y-128198619D01*
X79779715Y-128293857D01*
X79779715Y-128341476D01*
X79732096Y-128436714D01*
X79684477Y-128484333D01*
X79589239Y-128531952D01*
X79398762Y-128531952D01*
X79303524Y-128579571D01*
X79255905Y-128627190D01*
X79208286Y-128722429D01*
X79208286Y-128912905D01*
X79255905Y-129008143D01*
X79303524Y-129055762D01*
X79398762Y-129103381D01*
X79589239Y-129103381D01*
X79684477Y-129055762D01*
X79732096Y-129008143D01*
X79779715Y-128912905D01*
X79779715Y-128722429D01*
X79732096Y-128627190D01*
X79684477Y-128579571D01*
X79589239Y-128531952D01*
X78509905Y-121737381D02*
X78509905Y-120737381D01*
X78748000Y-120737381D01*
X78890858Y-120785000D01*
X78986096Y-120880238D01*
X79033715Y-120975476D01*
X79081334Y-121165952D01*
X79081334Y-121308810D01*
X79033715Y-121499286D01*
X78986096Y-121594524D01*
X78890858Y-121689762D01*
X78748000Y-121737381D01*
X78509905Y-121737381D01*
X79414667Y-120737381D02*
X80081334Y-120737381D01*
X79652762Y-121737381D01*
X78255905Y-113990381D02*
X78255905Y-112990381D01*
X78494000Y-112990381D01*
X78636858Y-113038000D01*
X78732096Y-113133238D01*
X78779715Y-113228476D01*
X78827334Y-113418952D01*
X78827334Y-113561810D01*
X78779715Y-113752286D01*
X78732096Y-113847524D01*
X78636858Y-113942762D01*
X78494000Y-113990381D01*
X78255905Y-113990381D01*
X79684477Y-112990381D02*
X79494000Y-112990381D01*
X79398762Y-113038000D01*
X79351143Y-113085619D01*
X79255905Y-113228476D01*
X79208286Y-113418952D01*
X79208286Y-113799905D01*
X79255905Y-113895143D01*
X79303524Y-113942762D01*
X79398762Y-113990381D01*
X79589239Y-113990381D01*
X79684477Y-113942762D01*
X79732096Y-113895143D01*
X79779715Y-113799905D01*
X79779715Y-113561810D01*
X79732096Y-113466571D01*
X79684477Y-113418952D01*
X79589239Y-113371333D01*
X79398762Y-113371333D01*
X79303524Y-113418952D01*
X79255905Y-113466571D01*
X79208286Y-113561810D01*
X78128905Y-106370381D02*
X78128905Y-105370381D01*
X78367000Y-105370381D01*
X78509858Y-105418000D01*
X78605096Y-105513238D01*
X78652715Y-105608476D01*
X78700334Y-105798952D01*
X78700334Y-105941810D01*
X78652715Y-106132286D01*
X78605096Y-106227524D01*
X78509858Y-106322762D01*
X78367000Y-106370381D01*
X78128905Y-106370381D01*
X79605096Y-105370381D02*
X79128905Y-105370381D01*
X79081286Y-105846571D01*
X79128905Y-105798952D01*
X79224143Y-105751333D01*
X79462239Y-105751333D01*
X79557477Y-105798952D01*
X79605096Y-105846571D01*
X79652715Y-105941810D01*
X79652715Y-106179905D01*
X79605096Y-106275143D01*
X79557477Y-106322762D01*
X79462239Y-106370381D01*
X79224143Y-106370381D01*
X79128905Y-106322762D01*
X79081286Y-106275143D01*
X78255905Y-98242381D02*
X78255905Y-97242381D01*
X78494000Y-97242381D01*
X78636858Y-97290000D01*
X78732096Y-97385238D01*
X78779715Y-97480476D01*
X78827334Y-97670952D01*
X78827334Y-97813810D01*
X78779715Y-98004286D01*
X78732096Y-98099524D01*
X78636858Y-98194762D01*
X78494000Y-98242381D01*
X78255905Y-98242381D01*
X79684477Y-97575714D02*
X79684477Y-98242381D01*
X79446381Y-97194762D02*
X79208286Y-97909048D01*
X79827334Y-97909048D01*
X78128905Y-90749381D02*
X78128905Y-89749381D01*
X78367000Y-89749381D01*
X78509858Y-89797000D01*
X78605096Y-89892238D01*
X78652715Y-89987476D01*
X78700334Y-90177952D01*
X78700334Y-90320810D01*
X78652715Y-90511286D01*
X78605096Y-90606524D01*
X78509858Y-90701762D01*
X78367000Y-90749381D01*
X78128905Y-90749381D01*
X79033667Y-89749381D02*
X79652715Y-89749381D01*
X79319381Y-90130333D01*
X79462239Y-90130333D01*
X79557477Y-90177952D01*
X79605096Y-90225571D01*
X79652715Y-90320810D01*
X79652715Y-90558905D01*
X79605096Y-90654143D01*
X79557477Y-90701762D01*
X79462239Y-90749381D01*
X79176524Y-90749381D01*
X79081286Y-90701762D01*
X79033667Y-90654143D01*
X78255905Y-83510381D02*
X78255905Y-82510381D01*
X78494000Y-82510381D01*
X78636858Y-82558000D01*
X78732096Y-82653238D01*
X78779715Y-82748476D01*
X78827334Y-82938952D01*
X78827334Y-83081810D01*
X78779715Y-83272286D01*
X78732096Y-83367524D01*
X78636858Y-83462762D01*
X78494000Y-83510381D01*
X78255905Y-83510381D01*
X79208286Y-82605619D02*
X79255905Y-82558000D01*
X79351143Y-82510381D01*
X79589239Y-82510381D01*
X79684477Y-82558000D01*
X79732096Y-82605619D01*
X79779715Y-82700857D01*
X79779715Y-82796095D01*
X79732096Y-82938952D01*
X79160667Y-83510381D01*
X79779715Y-83510381D01*
X78509905Y-75890381D02*
X78509905Y-74890381D01*
X78748000Y-74890381D01*
X78890858Y-74938000D01*
X78986096Y-75033238D01*
X79033715Y-75128476D01*
X79081334Y-75318952D01*
X79081334Y-75461810D01*
X79033715Y-75652286D01*
X78986096Y-75747524D01*
X78890858Y-75842762D01*
X78748000Y-75890381D01*
X78509905Y-75890381D01*
X80033715Y-75890381D02*
X79462286Y-75890381D01*
X79748000Y-75890381D02*
X79748000Y-74890381D01*
X79652762Y-75033238D01*
X79557524Y-75128476D01*
X79462286Y-75176095D01*
X47648905Y-73477381D02*
X47648905Y-72477381D01*
X47887000Y-72477381D01*
X48029858Y-72525000D01*
X48125096Y-72620238D01*
X48172715Y-72715476D01*
X48220334Y-72905952D01*
X48220334Y-73048810D01*
X48172715Y-73239286D01*
X48125096Y-73334524D01*
X48029858Y-73429762D01*
X47887000Y-73477381D01*
X47648905Y-73477381D01*
X48696524Y-73477381D02*
X48887000Y-73477381D01*
X48982239Y-73429762D01*
X49029858Y-73382143D01*
X49125096Y-73239286D01*
X49172715Y-73048810D01*
X49172715Y-72667857D01*
X49125096Y-72572619D01*
X49077477Y-72525000D01*
X48982239Y-72477381D01*
X48791762Y-72477381D01*
X48696524Y-72525000D01*
X48648905Y-72572619D01*
X48601286Y-72667857D01*
X48601286Y-72905952D01*
X48648905Y-73001190D01*
X48696524Y-73048810D01*
X48791762Y-73096429D01*
X48982239Y-73096429D01*
X49077477Y-73048810D01*
X49125096Y-73001190D01*
X49172715Y-72905952D01*
X45038095Y-72042381D02*
X45038095Y-71042381D01*
X45609524Y-72042381D02*
X45180952Y-71470952D01*
X45609524Y-71042381D02*
X45038095Y-71613810D01*
X74858714Y-73604381D02*
X74858714Y-72604381D01*
X75096809Y-72604381D01*
X75239667Y-72652000D01*
X75334905Y-72747238D01*
X75382524Y-72842476D01*
X75430143Y-73032952D01*
X75430143Y-73175810D01*
X75382524Y-73366286D01*
X75334905Y-73461524D01*
X75239667Y-73556762D01*
X75096809Y-73604381D01*
X74858714Y-73604381D01*
X76382524Y-73604381D02*
X75811095Y-73604381D01*
X76096809Y-73604381D02*
X76096809Y-72604381D01*
X76001571Y-72747238D01*
X75906333Y-72842476D01*
X75811095Y-72890095D01*
X77001571Y-72604381D02*
X77096810Y-72604381D01*
X77192048Y-72652000D01*
X77239667Y-72699619D01*
X77287286Y-72794857D01*
X77334905Y-72985333D01*
X77334905Y-73223429D01*
X77287286Y-73413905D01*
X77239667Y-73509143D01*
X77192048Y-73556762D01*
X77096810Y-73604381D01*
X77001571Y-73604381D01*
X76906333Y-73556762D01*
X76858714Y-73509143D01*
X76811095Y-73413905D01*
X76763476Y-73223429D01*
X76763476Y-72985333D01*
X76811095Y-72794857D01*
X76858714Y-72699619D01*
X76906333Y-72652000D01*
X77001571Y-72604381D01*
X72978095Y-72042381D02*
X72978095Y-71042381D01*
X73549524Y-72042381D02*
X73120952Y-71470952D01*
X73549524Y-71042381D02*
X72978095Y-71613810D01*
X48450667Y-124102762D02*
X48593524Y-124150381D01*
X48831620Y-124150381D01*
X48926858Y-124102762D01*
X48974477Y-124055143D01*
X49022096Y-123959905D01*
X49022096Y-123864667D01*
X48974477Y-123769429D01*
X48926858Y-123721810D01*
X48831620Y-123674190D01*
X48641143Y-123626571D01*
X48545905Y-123578952D01*
X48498286Y-123531333D01*
X48450667Y-123436095D01*
X48450667Y-123340857D01*
X48498286Y-123245619D01*
X48545905Y-123198000D01*
X48641143Y-123150381D01*
X48879239Y-123150381D01*
X49022096Y-123198000D01*
X49355429Y-123150381D02*
X49593524Y-124150381D01*
X49784001Y-123436095D01*
X49974477Y-124150381D01*
X50212572Y-123150381D01*
X51117334Y-124150381D02*
X50545905Y-124150381D01*
X50831619Y-124150381D02*
X50831619Y-123150381D01*
X50736381Y-123293238D01*
X50641143Y-123388476D01*
X50545905Y-123436095D01*
X71056667Y-143152762D02*
X71199524Y-143200381D01*
X71437620Y-143200381D01*
X71532858Y-143152762D01*
X71580477Y-143105143D01*
X71628096Y-143009905D01*
X71628096Y-142914667D01*
X71580477Y-142819429D01*
X71532858Y-142771810D01*
X71437620Y-142724190D01*
X71247143Y-142676571D01*
X71151905Y-142628952D01*
X71104286Y-142581333D01*
X71056667Y-142486095D01*
X71056667Y-142390857D01*
X71104286Y-142295619D01*
X71151905Y-142248000D01*
X71247143Y-142200381D01*
X71485239Y-142200381D01*
X71628096Y-142248000D01*
X71961429Y-142200381D02*
X72199524Y-143200381D01*
X72390001Y-142486095D01*
X72580477Y-143200381D01*
X72818572Y-142200381D01*
X73151905Y-142295619D02*
X73199524Y-142248000D01*
X73294762Y-142200381D01*
X73532858Y-142200381D01*
X73628096Y-142248000D01*
X73675715Y-142295619D01*
X73723334Y-142390857D01*
X73723334Y-142486095D01*
X73675715Y-142628952D01*
X73104286Y-143200381D01*
X73723334Y-143200381D01*
X52427143Y-107481666D02*
X52474762Y-107529285D01*
X52522381Y-107672142D01*
X52522381Y-107767380D01*
X52474762Y-107910238D01*
X52379524Y-108005476D01*
X52284286Y-108053095D01*
X52093810Y-108100714D01*
X51950952Y-108100714D01*
X51760476Y-108053095D01*
X51665238Y-108005476D01*
X51570000Y-107910238D01*
X51522381Y-107767380D01*
X51522381Y-107672142D01*
X51570000Y-107529285D01*
X51617619Y-107481666D01*
X51522381Y-106624523D02*
X51522381Y-106815000D01*
X51570000Y-106910238D01*
X51617619Y-106957857D01*
X51760476Y-107053095D01*
X51950952Y-107100714D01*
X52331905Y-107100714D01*
X52427143Y-107053095D01*
X52474762Y-107005476D01*
X52522381Y-106910238D01*
X52522381Y-106719761D01*
X52474762Y-106624523D01*
X52427143Y-106576904D01*
X52331905Y-106529285D01*
X52093810Y-106529285D01*
X51998571Y-106576904D01*
X51950952Y-106624523D01*
X51903333Y-106719761D01*
X51903333Y-106910238D01*
X51950952Y-107005476D01*
X51998571Y-107053095D01*
X52093810Y-107100714D01*
M02*
