M48
;DRILL file {KiCad 4.0.0-rc1-stable} date Tue 17 Nov 2015 04:01:22 PM EST
;FORMAT={2:4/ absolute / inch / keep zeros}
FMAT,2
INCH,TZ
T1C0.016
T2C0.030
T3C0.031
T4C0.032
T5C0.039
T6C0.040
T7C0.050
T8C0.060
%
G90
G05
M72
T1
X018250Y-047000
X019400Y-041850
X019700Y-032100
X019900Y-029350
X020100Y-040150
X020400Y-047950
X021300Y-044450
X021550Y-046250
X022200Y-044250
X022250Y-049750
X022550Y-030800
X023500Y-045000
X023500Y-046000
X023650Y-031850
X024500Y-035500
X024650Y-039650
X024650Y-047800
X024800Y-031800
X026250Y-051500
X026500Y-050500
X027300Y-037900
X027750Y-050100
X028050Y-034700
X029050Y-035800
X031450Y-053150
X031500Y-031000
T2
X029750Y-030500
X029750Y-031500
X029750Y-033500
X029750Y-034500
X029750Y-036500
X029750Y-037500
X029750Y-039500
X029750Y-040500
X029750Y-042500
X029750Y-043500
X029750Y-045500
X029750Y-046500
X029750Y-048500
X029750Y-049500
X029750Y-051500
X029750Y-052500
X030250Y-030000
X030250Y-031000
X030250Y-033000
X030250Y-034000
X030250Y-036000
X030250Y-037000
X030250Y-039000
X030250Y-040000
X030250Y-042000
X030250Y-043000
X030250Y-045000
X030250Y-046000
X030250Y-048000
X030250Y-049000
X030250Y-051000
X030250Y-052000
T3
X018500Y-029781
X018500Y-031750
X020500Y-041250
X020500Y-043219
X021500Y-029750
X021500Y-031719
X021750Y-041250
X021750Y-043219
X022000Y-055000
X022000Y-056969
X023250Y-035750
X023250Y-036750
X023250Y-037750
X023250Y-038750
X023250Y-039750
X023250Y-040750
X023250Y-041750
X023250Y-042750
X023250Y-043750
X023250Y-044750
X023250Y-045750
X023250Y-046750
X023250Y-047750
X023250Y-048750
X024000Y-055000
X024000Y-056969
X026250Y-035750
X026250Y-036750
X026250Y-037750
X026250Y-038750
X026250Y-039750
X026250Y-040750
X026250Y-041750
X026250Y-042750
X026250Y-043750
X026250Y-044750
X026250Y-045750
X026250Y-046750
X026250Y-047750
X026250Y-048750
X028000Y-039250
X028000Y-041219
X028000Y-043031
X028000Y-045000
T4
X018500Y-050213
X018500Y-051000
X018500Y-051787
T5
X018500Y-027500
X019500Y-027500
X021250Y-035750
X021250Y-039750
X022500Y-051500
X023250Y-029250
X023250Y-033250
X023500Y-051500
X024500Y-051500
X024750Y-029250
X024750Y-033250
X026250Y-029250
X026250Y-033250
X027750Y-029250
X027750Y-033250
X029500Y-027500
X030500Y-027500
T6
X018250Y-045000
X018250Y-046000
X018250Y-047000
X018750Y-035750
X018750Y-036750
X018750Y-037750
X018750Y-038750
X018750Y-039750
X018750Y-040750
X019250Y-045000
X019250Y-046000
X019250Y-047000
T7
X018500Y-049386
X018500Y-052614
X026000Y-055500
X026000Y-057500
X031000Y-055500
X031000Y-057500
T8
X018500Y-055500
X018500Y-057500
T0
M30
